<svg width="71" height="71" viewBox="0 0 71 71" fill="none" xmlns="http://www.w3.org/2000/svg">
<path fill-rule="evenodd" clip-rule="evenodd" d="M53.25 34.5459C52.6571 35.1259 51.8607 35.4507 51.0313 35.4507C50.2018 35.4507 49.4054 35.1259 48.8125 34.5459L38.6063 24.4062V55.7794C38.6063 56.6032 38.279 57.3933 37.6965 57.9758C37.1139 58.5583 36.3238 58.8856 35.5 58.8856C34.6762 58.8856 33.8861 58.5583 33.3036 57.9758C32.721 57.3933 32.3938 56.6032 32.3938 55.7794V24.7169L22.5647 34.5459C21.9762 35.1344 21.1781 35.465 20.3459 35.465C19.5138 35.465 18.7156 35.1344 18.1272 34.5459C17.5388 33.9575 17.2082 33.1594 17.2082 32.3272C17.2082 31.495 17.5388 30.6969 18.1272 30.1084L35.6775 12.6469L53.25 30.1528C53.5385 30.4412 53.7673 30.7837 53.9234 31.1606C54.0796 31.5375 54.1599 31.9414 54.1599 32.3494C54.1599 32.7573 54.0796 33.1613 53.9234 33.5381C53.7673 33.915 53.5385 34.2575 53.25 34.5459Z" fill="#D9D9D9"/>
<path fill-rule="evenodd" clip-rule="evenodd" d="M35.5 0C28.4788 0 21.6152 2.08204 15.7773 5.98283C9.93932 9.88361 5.3892 15.428 2.70229 21.9147C0.0153816 28.4015 -0.687637 35.5394 0.682138 42.4257C2.05191 49.312 5.43296 55.6375 10.3977 60.6023C15.3625 65.567 21.688 68.9481 28.5743 70.3179C35.4606 71.6876 42.5985 70.9846 49.0853 68.2977C55.572 65.6108 61.1164 61.0607 65.0172 55.2227C68.918 49.3848 71 42.5212 71 35.5C71 26.0848 67.2598 17.0552 60.6023 10.3977C53.9448 3.74017 44.9152 0 35.5 0ZM51.0313 35.4507C51.8607 35.4507 52.6571 35.1259 53.25 34.5459C53.5385 34.2575 53.7673 33.915 53.9234 33.5381C54.0796 33.1613 54.1599 32.7573 54.1599 32.3494C54.1599 31.9414 54.0796 31.5375 53.9234 31.1606C53.7673 30.7837 53.5385 30.4412 53.25 30.1528L35.6775 12.6469L18.1272 30.1084C17.5388 30.6969 17.2082 31.495 17.2082 32.3272C17.2082 33.1594 17.5388 33.9575 18.1272 34.5459C18.7156 35.1344 19.5138 35.465 20.3459 35.465C21.1781 35.465 21.9762 35.1344 22.5647 34.5459L32.3938 24.7169V55.7794C32.3938 56.6032 32.721 57.3933 33.3036 57.9758C33.8861 58.5583 34.6762 58.8856 35.5 58.8856C36.3238 58.8856 37.1139 58.5583 37.6965 57.9758C38.279 57.3933 38.6063 56.6032 38.6063 55.7794V24.4062L48.8125 34.5459C49.4054 35.1259 50.2018 35.4507 51.0313 35.4507Z" fill="#D64923"/>
</svg>
