<svg width="28" height="28" viewBox="0 0 28 28" fill="none" xmlns="http://www.w3.org/2000/svg">
<path d="M8.16666 12.8334C8.16666 10.6335 8.16666 9.53352 8.85007 8.8501C9.53349 8.16669 10.6334 8.16669 12.8333 8.16669H15.1667C17.3665 8.16669 18.4665 8.16669 19.1499 8.8501C19.8333 9.53352 19.8333 10.6335 19.8333 12.8334V15.1667C19.8333 17.3666 19.8333 18.4665 19.1499 19.1499C18.4665 19.8334 17.3665 19.8334 15.1667 19.8334H12.8333C10.6334 19.8334 9.53349 19.8334 8.85007 19.1499C8.16666 18.4665 8.16666 17.3666 8.16666 15.1667V12.8334Z" stroke="#D64923" stroke-width="2"/>
<rect x="11.6667" y="11.6667" width="4.66667" height="4.66667" rx="1" fill="#D64923"/>
<path d="M11.6667 8.16669V4.66669" stroke="#D64923" stroke-width="2" stroke-linecap="round"/>
<path d="M16.3333 8.16669V4.66669" stroke="#D64923" stroke-width="2" stroke-linecap="round"/>
<path d="M19.8333 11.6667L23.3333 11.6667" stroke="#D64923" stroke-width="2" stroke-linecap="round"/>
<path d="M19.8333 16.3334L23.3333 16.3334" stroke="#D64923" stroke-width="2" stroke-linecap="round"/>
<path d="M11.6667 23.3333V19.8333" stroke="#D64923" stroke-width="2" stroke-linecap="round"/>
<path d="M16.3333 23.3333V19.8333" stroke="#D64923" stroke-width="2" stroke-linecap="round"/>
<path d="M4.66666 11.6667L8.16666 11.6667" stroke="#D64923" stroke-width="2" stroke-linecap="round"/>
<path d="M4.66666 16.3334L8.16666 16.3334" stroke="#D64923" stroke-width="2" stroke-linecap="round"/>
</svg>
