<svg width="28" height="28" viewBox="0 0 28 28" fill="none" xmlns="http://www.w3.org/2000/svg">
<path d="M4.5 9.33335C4.5 8.20514 4.50212 7.45958 4.57651 6.9063C4.64703 6.38179 4.76558 6.18215 4.89052 6.05721C5.01546 5.93227 5.2151 5.81372 5.73961 5.7432C6.29289 5.66881 7.03845 5.66669 8.16667 5.66669H19.8333C20.9615 5.66669 21.7071 5.66881 22.2604 5.7432C22.7849 5.81372 22.9845 5.93227 23.1095 6.05721C23.2344 6.18215 23.353 6.38179 23.4235 6.9063C23.4979 7.45958 23.5 8.20514 23.5 9.33335V18.8333H4.5V9.33335Z" stroke="#D64923" stroke-width="2"/>
<path d="M4.27778 18.8333C3.29594 18.8333 2.5 19.6293 2.5 20.6111C2.5 22.0225 3.64416 23.1666 5.05556 23.1666H22.9444C24.3558 23.1666 25.5 22.0225 25.5 20.6111C25.5 19.6293 24.7041 18.8333 23.7222 18.8333H4.27778Z" stroke="#D64923" stroke-width="2"/>
</svg>
