<svg width="234" height="373" viewBox="0 0 234 373" fill="none" xmlns="http://www.w3.org/2000/svg">
<g clip-path="url(#clip0_1_1306)">
<path d="M228.774 253.794L228.246 253.847C225.703 254.076 223.829 256.342 224.058 258.881C224.287 261.42 226.548 263.307 229.082 263.078L229.609 263.025C232.152 262.796 234.026 260.53 233.797 257.991C233.568 255.443 231.307 253.565 228.774 253.794Z" fill="#F5F5F5"/>
<path d="M164.366 96.3714C143.594 82.3704 118.899 77.3801 102.711 77.3801C87.5528 77.3801 65.2418 79.7783 45.051 91.1871C32.5143 98.2758 22.5025 107.965 15.3147 119.974C6.79856 134.204 2.17976 151.811 1.60791 172.301C1.51993 175.378 2.65484 178.288 4.80148 180.492C6.95692 182.714 9.84257 183.939 12.9394 183.939H52.6874C58.3004 183.939 63.1215 179.742 63.9045 174.188C65.6641 161.694 73.0629 140.667 102.808 140.146C125.471 139.758 134.814 156.193 137.788 163.281C142.618 174.814 141.395 188.488 134.506 199.871C123.931 217.346 104.471 220.026 93.8168 220.061C81.5615 220.105 71.5937 230.077 71.5937 242.288V285.155C71.5937 291.415 76.6788 296.511 82.9252 296.511H121.653C127.899 296.511 132.984 291.415 132.984 285.155V276.153C132.984 275.933 133.116 275.748 133.327 275.677C142.099 272.591 159.105 265.141 174.421 249.879C193.979 230.394 203.885 205.249 203.885 175.14C203.885 132.053 182.401 108.521 164.383 96.3802L164.366 96.3714Z" fill="#D64923"/>
<path d="M101.295 316.507H104.418C119.796 316.507 132.307 329.045 132.307 344.456C132.307 359.868 119.796 372.405 104.418 372.405H101.295C85.9164 372.405 73.3972 359.868 73.3972 344.456C73.3972 329.045 85.9076 316.507 101.295 316.507Z" fill="#263238"/>
<path d="M82.758 304.799H121.468C127.714 304.799 132.791 299.87 132.791 293.804V276.277C132.791 276.065 132.923 275.889 133.134 275.818C137.708 274.258 144.113 271.401 151.354 266.94C126.623 266.763 81.5351 266.516 71.4353 266.878V293.804C71.4353 299.87 76.5116 304.799 82.758 304.799Z" fill="#263238"/>
<path d="M114.641 110.61L89.7962 38.3131C84.5528 20.2123 69.667 8.18632 51.7549 13.9348L50.1273 14.5608C33.7812 20.8912 25.0186 38.7363 29.9982 55.5674C34.6346 71.2347 39.9572 88.4802 43.1947 96.5916C49.9074 113.379 67.4764 108.671 67.4764 108.671C67.5116 108.662 71.3914 119.859 73.0806 124.893L82.1774 133.904L85.934 129.787L114.623 110.601L114.641 110.61Z" fill="#FFBF9D"/>
<path d="M67.4852 108.679C67.4852 108.679 78.3416 105.197 86.9018 93.6997C86.9018 93.6997 86.5147 108.424 69.1304 113.414L67.4852 108.688V108.679Z" fill="#D64923"/>
<path d="M42.1566 66.9938C42.6053 68.281 44.0569 68.9687 45.4118 68.5279C46.7578 68.0871 47.4968 66.6852 47.0481 65.398C46.5995 64.1107 45.1478 63.423 43.793 63.8639C42.4381 64.3047 41.7079 65.7066 42.1478 67.0026L42.1566 66.9938Z" fill="#263238"/>
<path d="M36.1829 60.8221C36.6052 61.0249 37.8984 58.9617 40.4938 57.9655C43.0627 56.9339 45.4821 57.5334 45.6404 57.1102C45.7284 56.9163 45.2006 56.4666 44.1448 56.1845C43.0979 55.9023 41.4879 55.8494 39.8779 56.4842C38.268 57.119 37.1418 58.2388 36.5964 59.1469C36.0333 60.0638 35.9893 60.7427 36.1917 60.8221H36.1829Z" fill="#263238"/>
<path d="M63.7902 58.3975C64.2125 58.6003 65.5146 56.5372 68.1011 55.5497C70.67 54.5181 73.0894 55.1177 73.2478 54.6945C73.3269 54.5005 72.8079 54.0508 71.7522 53.7687C70.7052 53.4866 69.0952 53.4337 67.4853 54.0685C65.8753 54.7033 64.7492 55.823 64.2037 56.7311C63.6495 57.6481 63.5967 58.327 63.7902 58.4063V58.3975Z" fill="#263238"/>
<path d="M60.1743 75.123C60.1303 74.9731 58.4147 75.3169 55.6786 75.987C54.9924 76.1722 54.315 76.2868 54.0335 75.8724C53.6903 75.458 53.6904 74.638 53.7167 73.7387C53.7167 71.896 53.7167 69.9652 53.7255 67.9373C53.6728 59.7113 53.3648 53.0459 53.0305 53.0547C52.6962 53.0547 52.4763 59.7378 52.5291 67.9638C52.5554 69.9828 52.5818 71.9137 52.617 73.7564C52.661 74.6028 52.5555 75.6255 53.2769 76.4896C53.6464 76.9128 54.271 77.0891 54.7373 77.0362C55.2124 77.0009 55.5819 76.8687 55.9162 76.7541C58.5907 75.8812 60.2271 75.264 60.1743 75.1141V75.123Z" fill="#263238"/>
<path d="M57.8077 43.8236C58.4147 44.3526 60.6582 42.6775 63.6846 41.4343C66.6934 40.1206 69.4471 39.671 69.4911 38.8686C69.4999 38.4895 68.7521 38.0928 67.4764 37.9782C66.2007 37.8547 64.3972 38.0663 62.5849 38.8334C60.7725 39.6004 59.3649 40.7466 58.5643 41.7517C57.7549 42.7568 57.5174 43.568 57.7989 43.8236H57.8077Z" fill="#263238"/>
<path d="M33.1213 53.2485C33.8779 53.6364 35.7694 52.2434 38.312 51.2736C40.8193 50.2244 43.1595 49.9334 43.4322 49.1311C43.5378 48.752 42.9836 48.2847 41.8311 48.0731C40.6962 47.8615 38.9718 47.9761 37.2387 48.6726C35.5055 49.3692 34.1858 50.4624 33.526 51.397C32.8486 52.3404 32.7782 53.0545 33.1213 53.2573V53.2485Z" fill="#263238"/>
<path d="M92.9634 50.5243C93.2009 50.2863 103.213 42.6158 107.286 54.2979C111.368 65.9713 98.8227 67.6729 98.6907 67.3467C98.5499 67.0204 92.9634 50.5332 92.9634 50.5332V50.5243Z" fill="#FFBF9D"/>
<path d="M100.705 61.6685C100.741 61.6156 100.961 61.739 101.356 61.7743C101.744 61.8096 102.359 61.7126 102.887 61.2717C103.961 60.3901 104.312 58.0624 103.635 55.9376C103.292 54.862 102.72 53.9274 102.051 53.2221C101.4 52.4903 100.635 52.0935 99.9752 52.1993C99.3066 52.2699 98.9987 52.7989 98.9723 53.178C98.9283 53.5571 99.0866 53.7687 99.0338 53.804C99.0075 53.8481 98.7171 53.6982 98.638 53.178C98.6028 52.9311 98.638 52.6049 98.8403 52.2875C99.0426 51.9613 99.4122 51.6968 99.8608 51.5998C100.785 51.3441 101.876 51.8907 102.615 52.6666C103.398 53.4248 104.075 54.4652 104.453 55.6731C105.201 58.0536 104.77 60.6722 103.257 61.7567C102.509 62.2592 101.744 62.2504 101.295 62.1005C100.837 61.9418 100.679 61.7038 100.714 61.6597L100.705 61.6685Z" fill="#D64923"/>
<path d="M68.9632 73.9502C68.5497 74.0648 69.4471 76.7539 67.7843 79.443C66.1304 82.1321 63.1655 82.7934 63.2623 83.1725C63.2799 83.3577 64.0717 83.4811 65.2946 83.1108C66.4911 82.7581 68.1011 81.7883 69.1128 80.1484C70.1245 78.5085 70.2037 76.7363 69.931 75.5989C69.6583 74.4351 69.1304 73.8709 68.9544 73.9502H68.9632Z" fill="#263238"/>
<path d="M0.912871 47.3767C0.860085 46.6273 1.15921 45.8867 1.64308 45.3048C2.69881 44.044 4.2736 43.6032 5.75161 43.0565C9.42906 41.69 12.7546 39.4505 15.4643 36.6115C14.1094 36.4352 12.7898 36.1001 11.5581 35.5182C9.01556 34.3015 6.92171 31.8064 6.89532 28.9762C6.89532 28.4472 6.99209 27.8565 7.41438 27.5391C8.09181 27.0366 9.01556 27.5479 9.74577 27.9535C12.1651 29.2848 14.0567 29.5493 16.5552 28.3767C18.1036 27.6449 19.5376 26.7368 20.523 25.5024C20.5582 25.4319 20.5758 25.3614 20.611 25.2908C20.9981 24.4533 21.3764 23.6421 21.7547 22.8574C24.6051 16.959 27.3148 12.6124 30.6403 9.67642C35.5143 5.37386 44.6991 1.08893 51.1742 0.551113C57.6493 0.0132924 64.6699 2.95808 67.6347 8.75067C69.9661 4.75669 74.9632 3.01979 79.5908 3.22258L79.6788 3.14323C84.7551 3.16086 88.9956 7.03141 91.9428 11.1664C92.1012 11.3957 92.2595 11.6249 92.4179 11.8542C94.7933 13.7409 97.5998 15.0811 100.573 15.6542C101.101 15.7511 101.708 15.8922 101.937 16.3771C102.166 16.8532 101.893 17.4175 101.585 17.8495C100.776 19.0045 99.6936 19.9655 98.4707 20.6621C99.2713 21.6143 100.125 22.5048 101.084 23.3071C101.893 23.9948 102.861 24.8147 102.738 25.8639C102.641 26.6839 101.858 27.2746 101.048 27.4333C100.239 27.592 99.4121 27.4069 98.6115 27.2217C99.5353 28.2533 100.468 29.276 101.392 30.3076C99.8608 31.1716 98.1276 31.6301 96.3681 31.7094C96.9223 36.3558 99.0074 44.5907 98.9282 47.9057C95.8578 49.0519 94.9868 48.9814 93.6144 50.0482C91.8372 51.4324 93.8607 54.7387 90.8783 54.6505C89.3563 54.6064 85.5293 50.251 84.5967 49.0519C78.4471 41.0551 74.0571 31.7094 71.8049 21.8611C69.2359 20.5298 66.4119 19.6922 63.5262 19.4189L63.7901 19.5335C58.4499 19.56 52.4851 19.8333 48.7548 23.6597C45.8604 26.631 45.0862 31.0041 43.485 34.8394C40.4586 42.1043 35.875 47.0329 28.5817 49.96C29.7254 55.3471 32.4879 63.8376 33.9307 68.7397L26.4526 60.5666V60.6106C25.9336 60.161 25.4585 59.6937 25.001 59.2176L24.8514 59.0765V59.0589C24.1036 58.2918 23.3822 57.516 22.5377 56.8018C22.5289 56.8194 22.5201 56.8371 22.5025 56.8635C20.7077 60.0816 15.649 57.9215 16.7136 54.3948C16.9247 53.6983 17.2326 53.0283 17.6461 52.4199C16.8543 53.954 15.2707 55.1178 13.5464 55.1884C11.822 55.2589 10.0537 54.1039 9.6226 52.4287C9.32348 51.2825 9.76337 50.0129 10.6167 49.2194C8.57568 50.1187 6.27068 50.4185 4.07125 50.0218C2.62842 49.7572 1.05364 49.0431 0.93047 47.3944L0.912871 47.3767Z" fill="#263238"/>
<path d="M62.9544 12.6035C62.9368 12.6564 63.8253 12.8063 65.2154 13.5645C66.5878 14.3228 68.3737 15.8657 69.8254 18.3079C70.5556 19.5158 71.233 20.9177 71.7873 22.4959C72.3503 24.0653 72.8166 25.7933 73.3181 27.6096C73.8283 29.4258 74.3562 31.3479 75.1568 33.2523C75.5527 34.2045 76.019 35.1567 76.582 36.0736C77.1363 36.9729 77.7609 37.934 78.7902 38.5159C79.6172 38.992 80.6993 38.9479 81.4823 38.4806C82.2829 38.031 82.8812 37.308 83.2155 36.488C83.8577 34.8217 83.5586 33.0936 83.3299 31.5683L82.9867 31.7358C84.0249 32.8203 85.0718 33.8783 86.3211 34.5836C87.5528 35.2978 89.0044 35.5446 90.2713 35.2184C90.9047 35.0597 91.4853 34.7423 91.9164 34.2927C92.3651 33.843 92.5939 33.2611 92.6994 32.6968C92.7874 32.1237 92.7346 31.5507 92.5323 31.0569C92.3211 30.5632 91.9604 30.1488 91.5205 29.9196L91.3974 30.1488C93.2361 31.1804 94.9077 31.4978 96.025 31.6124C96.588 31.6653 97.0191 31.6653 97.3182 31.6565C97.6086 31.6388 97.7581 31.63 97.7581 31.6124C97.7581 31.6036 97.6086 31.5947 97.3182 31.5859C97.0279 31.5683 96.5968 31.5507 96.0425 31.4801C94.9428 31.3302 93.3065 30.9776 91.5293 29.9372L91.4062 30.1664C92.198 30.572 92.6027 31.63 92.4091 32.6616C92.3123 33.1729 92.0924 33.6931 91.6965 34.0899C91.3094 34.4866 90.7727 34.7688 90.1921 34.9098C89.022 35.192 87.6671 34.9627 86.5146 34.275C85.3357 33.5961 84.3152 32.5646 83.2859 31.4801L82.846 31.0217L82.9428 31.6565C83.1715 33.1818 83.4354 34.8481 82.8372 36.3558C82.5381 37.0876 81.9838 37.74 81.2888 38.1368C80.5938 38.5423 79.714 38.5776 79.0014 38.172C78.104 37.6783 77.497 36.7702 76.9515 35.8797C76.4061 34.9892 75.9486 34.0546 75.5527 33.12C74.7609 31.2421 74.2242 29.3377 73.7052 27.5302C73.1949 25.714 72.711 23.9859 72.1304 22.3989C71.5585 20.8119 70.8459 19.3924 70.0981 18.1757C68.5937 15.7158 66.7374 14.1729 65.3121 13.4411C63.8781 12.7093 62.9719 12.6211 62.9719 12.6211L62.9544 12.6035Z" fill="#002029"/>
<path d="M16.0801 47.8352C16.0801 47.8352 16.1417 47.8617 16.256 47.9057C16.3968 47.9498 16.5728 48.0027 16.7927 48.0644C17.0302 48.135 17.3206 48.2143 17.6813 48.276C18.0332 48.3378 18.4467 48.4259 18.9129 48.4612C20.7605 48.6552 23.5581 48.5053 26.6725 47.2004C29.7517 45.9132 33.1301 43.4621 35.6198 39.7591C38.1624 36.1001 39.8779 31.4361 40.8633 26.437C41.3735 23.9331 41.6375 21.4556 42.0685 19.1015C42.482 16.7474 43.0715 14.508 44.048 12.5595C45.007 10.6022 46.3266 8.94463 47.9102 7.84254C48.6932 7.27827 49.5466 6.90796 50.3912 6.62583C51.2445 6.37014 52.1067 6.26434 52.9249 6.24671C54.5701 6.22026 56.0393 6.61701 57.2358 7.1372C58.4323 7.6662 59.356 8.33627 60.0423 8.95344C61.3707 10.2495 61.7666 11.2458 61.8194 11.2017C61.8194 11.2017 61.8018 11.14 61.7402 11.0254C61.6698 10.8931 61.5819 10.7256 61.4763 10.5316C61.23 10.0996 60.7989 9.5089 60.1478 8.83001C59.4704 8.18639 58.5466 7.47223 57.3326 6.90796C56.1185 6.35251 54.6229 5.92931 52.9249 5.93812C52.0803 5.93812 51.1918 6.05274 50.3032 6.30842C49.4234 6.58174 48.5173 6.96968 47.7079 7.54277C46.0627 8.68012 44.6903 10.3818 43.6961 12.3743C42.6844 14.3669 42.0861 16.6504 41.655 19.0221C41.224 21.3938 40.9512 23.8625 40.441 26.3488C39.4644 31.3127 37.7752 35.9238 35.2855 39.5387C32.8573 43.1976 29.567 45.6134 26.5406 46.9183C23.4966 48.2408 20.7429 48.4347 18.9129 48.2937C17.0654 48.1438 16.0889 47.7823 16.0713 47.8352H16.0801Z" fill="#002029"/>
<path d="M11.8837 40.8788C11.8837 40.8788 12.1476 40.9846 12.6491 41.0904C13.1418 41.205 13.872 41.3108 14.7869 41.3725C15.6931 41.443 16.784 41.4254 17.9805 41.302C19.177 41.1609 20.4878 40.914 21.8163 40.4997C23.1448 40.0676 24.3588 39.521 25.4146 38.9479C26.4615 38.3484 27.3677 37.74 28.0715 37.1581C28.7753 36.585 29.3208 36.0737 29.6551 35.6945C29.9982 35.3154 30.1741 35.1038 30.1565 35.0862C30.1037 35.0333 29.3296 35.8444 27.8867 36.9201C27.1741 37.4667 26.2679 38.0398 25.2298 38.6041C24.1829 39.1507 22.9864 39.6797 21.6843 40.0941C20.3823 40.4997 19.1066 40.7553 17.9277 40.914C16.7488 41.0551 15.6843 41.0992 14.7869 41.0727C12.9922 41.0198 11.8925 40.7994 11.8749 40.8788H11.8837Z" fill="#002029"/>
<path d="M43.793 163.096C43.6434 163.14 45.6317 173.147 47.5848 183.534H48.2006C46.2475 173.156 43.9425 163.052 43.7842 163.096H43.793Z" fill="#263238"/>
<path d="M52.2212 184.027C57.8693 184.027 63.0688 179.954 63.8518 174.399C65.6289 161.924 72.7287 140.816 102.667 140.296C125.48 139.908 135.078 156.087 137.77 163.281C142.037 174.708 141.509 188.568 134.577 199.933C123.931 217.381 104.348 220.052 93.6144 220.096C81.28 220.14 71.2419 230.095 71.2419 242.288V288.893L133.028 287.729V276.1C133.028 275.889 133.16 275.695 133.371 275.624C140.893 272.997 152.832 268.024 166.257 257.171L162.237 203.494C162.237 203.494 173.999 180.844 173.41 175.748C168.087 129.196 152.286 102.852 145.864 100.392C138.659 97.6321 110.823 98.981 110.823 98.981C110.823 98.981 98.7963 121.305 81.9311 123.774C72.5439 125.149 69.1216 113.405 69.1216 113.405L47.3209 126.216C31.8105 134.063 28.7929 164.569 28.5114 184.027H52.2036H52.2212Z" fill="#002029"/>
<path d="M137.524 163.608C142.503 175.122 141.245 188.779 134.145 200.144C130.204 206.448 125.189 210.945 119.726 213.969C125.62 220.387 131.594 226.048 137.506 230.253C143.867 234.776 158.533 233.489 164.093 223.588C170.955 211.368 171.527 180.148 171.527 180.148L172.829 161.324L134.471 155.435L134.163 156.493C135.808 158.961 136.776 161.88 137.533 163.608H137.524Z" fill="#FFBF9D"/>
<path d="M70.7316 155.699L68.5497 159.146C66.887 160.293 65.3122 159.667 64.2829 157.533L40.6698 121.517L46.4235 117.849L72.4999 152.384C72.4999 152.384 72.8694 154.218 70.7316 155.69V155.699Z" fill="#002029"/>
<path d="M16.1857 120.908C11.5669 118.29 7.68712 114.26 5.28534 109.076C2.32931 102.693 2.03019 95.5425 4.44956 88.9299C6.86014 82.3262 11.6989 77.0538 18.0684 74.0914C31.2122 67.9814 46.8721 73.7211 52.9777 86.9021C55.9338 93.2854 56.2329 100.436 53.8135 107.048C51.403 113.652 46.5642 118.924 40.1947 121.887C32.2151 125.599 23.3119 124.937 16.1857 120.908ZM41.2064 76.613C34.5553 72.8482 26.2503 72.2399 18.8074 75.696C12.869 78.4557 8.35574 83.3754 6.10353 89.5383C3.85131 95.7012 4.13284 102.375 6.88652 108.336C9.64021 114.287 14.5493 118.81 20.6989 121.067C26.8485 123.324 33.5084 123.042 39.4557 120.282C45.3941 117.523 49.9074 112.603 52.1596 106.44C54.4118 100.277 54.1303 93.6028 51.3766 87.6427C49.142 82.8111 45.5173 79.0464 41.2064 76.6041V76.613Z" fill="#263238"/>
<path d="M17.303 119.797C12.6842 117.179 8.80443 113.15 6.40265 107.965C3.44662 101.582 3.1475 94.4316 5.56687 87.8191C7.97745 81.2154 12.8162 75.943 19.1857 72.9805C32.3295 66.8706 47.9895 72.6102 54.0951 85.7913C57.0511 92.1746 57.3502 99.3249 54.9308 105.937C52.5203 112.541 47.6815 117.814 41.312 120.776C33.3325 124.488 24.4292 123.827 17.303 119.797ZM42.3237 75.5021C35.6726 71.7374 27.3676 71.129 19.9247 74.5852C13.9863 77.3448 9.47306 82.2646 7.22085 88.4274C4.96863 94.5903 5.25016 101.265 8.00384 107.225C10.7575 113.176 15.6667 117.699 21.8163 119.956C27.9659 122.213 34.6257 121.931 40.573 119.171C46.5114 116.412 51.0247 111.492 53.2769 105.329C55.5291 99.1662 55.2476 92.492 52.4939 86.5319C50.2593 81.7003 46.6346 77.9355 42.3237 75.4933V75.5021Z" fill="#002029"/>
<path d="M52.1068 97.2529C52.1068 97.2529 52.0892 97.103 52.0804 96.8209C52.0628 96.5387 52.0892 96.1155 52.0276 95.5865C51.966 94.5197 51.7285 92.9679 51.1566 91.1429C50.8751 90.2259 50.4792 89.2561 50.0041 88.2334C49.4938 87.2282 48.9308 86.1614 48.2094 85.1211C47.4968 84.0719 46.6874 83.0139 45.7372 82.0176C44.7959 81.0125 43.7577 80.0338 42.5788 79.1698C41.4087 78.2969 40.1771 77.5739 38.9366 76.9832C37.6873 76.4101 36.4292 75.9781 35.2151 75.6431C32.7606 75.0259 30.4732 74.8584 28.5641 74.9642C26.655 75.07 25.1242 75.3698 24.0948 75.6607C23.567 75.7753 23.1799 75.934 22.9071 76.0046C22.6344 76.0839 22.4937 76.128 22.4849 76.1192C22.4849 76.1104 22.6168 76.0575 22.8808 75.9517C23.1535 75.8635 23.5318 75.6872 24.0596 75.5549C25.089 75.2287 26.6198 74.9025 28.5465 74.7702C30.4732 74.6292 32.7958 74.779 35.2767 75.3962C36.5084 75.7224 37.7841 76.1544 39.0509 76.7364C40.309 77.3271 41.5583 78.0677 42.746 78.9494C43.9337 79.8222 44.9894 80.8185 45.9308 81.8412C46.8809 82.8552 47.6991 83.922 48.4117 84.9888C49.1419 86.038 49.6962 87.1225 50.2065 88.1452C50.6727 89.1856 51.0686 90.173 51.3326 91.0988C51.8868 92.9503 52.098 94.5197 52.1244 95.5953C52.1683 96.1331 52.1244 96.5564 52.1244 96.8385C52.1156 97.1206 52.1068 97.2705 52.098 97.2705L52.1068 97.2529Z" fill="white"/>
<path d="M24.6843 118.695C24.7019 118.634 25.9072 119.074 27.9307 119.356C28.1858 119.383 28.4497 119.418 28.7225 119.453C28.9952 119.489 29.2855 119.489 29.5846 119.506C30.1829 119.559 30.8251 119.524 31.4937 119.506C32.8398 119.427 34.309 119.224 35.8134 118.827C37.3178 118.413 38.6903 117.849 39.8956 117.24C40.485 116.914 41.0569 116.614 41.5495 116.271C41.7959 116.103 42.051 115.953 42.2709 115.795C42.4909 115.627 42.702 115.468 42.9132 115.31C44.5232 114.049 45.3414 113.061 45.3853 113.105C45.4029 113.114 45.1918 113.361 44.8135 113.793C44.6287 114.014 44.3824 114.269 44.0833 114.543C43.7842 114.816 43.4586 115.16 43.0363 115.459C42.834 115.618 42.6229 115.786 42.4029 115.962C42.183 116.138 41.9278 116.288 41.6815 116.465C41.1888 116.817 40.617 117.126 40.0187 117.47C38.8047 118.096 37.4146 118.678 35.8926 119.101C34.3706 119.506 32.875 119.7 31.5113 119.771C30.8251 119.771 30.1829 119.797 29.5759 119.744C29.2767 119.718 28.9776 119.718 28.7049 119.674C28.4233 119.63 28.1594 119.595 27.9043 119.559C27.394 119.498 26.9365 119.374 26.5406 119.286C26.1359 119.207 25.8016 119.101 25.5289 119.004C24.9834 118.827 24.6843 118.713 24.6931 118.695H24.6843Z" fill="white"/>
<path d="M42.7636 101.829C42.7109 101.882 39.2797 98.4433 35.1096 94.1496C30.9395 89.8558 27.6052 86.3291 27.658 86.2762C27.7108 86.2233 31.1419 89.6619 35.312 93.9556C39.4821 98.2494 42.8164 101.776 42.7636 101.829Z" fill="white"/>
<path d="M38.7167 108.724C38.7167 108.724 38.6199 108.644 38.4704 108.477C38.2944 108.283 38.0745 108.045 37.7929 107.745C37.1947 107.075 36.3589 106.149 35.3472 105.012C33.2797 102.702 30.4204 99.5189 27.2181 96.0452C24.0157 92.5626 21.0861 89.4503 18.957 87.1932C17.9101 86.0823 17.0567 85.183 16.4409 84.5217C16.1594 84.2219 15.9394 83.9751 15.7635 83.7899C15.6139 83.6224 15.5347 83.5254 15.5435 83.5166C15.5435 83.5166 15.6403 83.5871 15.8074 83.7458C15.9922 83.9222 16.2297 84.1602 16.5201 84.4424C17.1359 85.0507 18.0245 85.9412 19.1066 87.0521C21.2708 89.2651 24.2269 92.3686 27.4292 95.8512C30.6316 99.3338 33.4733 102.534 35.4967 104.88C36.5085 106.052 37.3267 107.004 37.8809 107.674C38.1448 107.992 38.3472 108.248 38.5143 108.441C38.6551 108.618 38.7255 108.715 38.7167 108.724Z" fill="white"/>
<g opacity="0.3">
<path d="M17.2854 76.4631L49.5554 111.598C49.5554 111.598 46.9425 115.257 44.5495 116.853L11.5933 80.8979C11.5933 80.8979 13.9686 78.0325 17.2766 76.4631H17.2854Z" fill="white"/>
</g>
<g opacity="0.3">
<path d="M8.83084 84.9448L40.573 119.171C40.573 119.171 40.8633 119.33 38.6815 119.886L7.93347 86.6817C7.93347 86.6817 8.09183 85.8529 8.83084 84.9448Z" fill="white"/>
</g>
<path d="M92.3828 141.425C85.5997 135.967 68.9897 122.628 68.233 122.266C67.2741 121.816 52.6523 116.615 49.8546 118.281C47.0569 119.956 39.5437 129.399 39.5437 129.399C39.5437 129.399 40.2563 135.271 46.8106 131.065C51.8077 127.856 52.5819 127.362 52.6699 127.3H52.6611L59.6289 128.932C59.6289 128.932 51.1391 132.485 49.3355 134.354C47.5408 136.223 44.6992 143.382 46.4675 145.031C48.2358 146.68 50.2945 146.821 50.2945 146.821C50.2945 146.821 46.7842 151.811 53.0042 154.826C53.0042 154.826 53.9104 159.023 56.9808 160.663C60.0512 162.303 65.7609 161.73 65.7609 161.73C65.7609 161.73 68.409 160.16 66.4383 157.551C64.4676 154.95 60.8342 154.588 60.8342 154.588L65.3386 151.952C65.3386 151.952 67.6788 152.675 71.1539 155.355C71.1539 155.355 75.2624 150.083 79.3709 147.103C83.9809 143.761 92.3828 141.407 92.3828 141.407V141.425Z" fill="#FFBF9D"/>
<path d="M63.5615 143.638C63.5615 143.638 63.324 143.62 62.8929 143.673C62.4618 143.726 61.8547 143.849 61.1157 144.087C59.6465 144.546 57.6846 145.569 56.0658 147.323C54.4559 149.078 53.6025 151.132 53.2682 152.631C53.0922 153.389 53.0218 154.006 53.0042 154.438C52.9866 154.87 53.0042 155.108 53.0218 155.108C53.0834 155.108 53.101 154.156 53.4969 152.684C53.884 151.22 54.7462 149.245 56.3122 147.544C57.8782 145.833 59.7697 144.81 61.1949 144.308C62.6201 143.788 63.5791 143.691 63.5615 143.629V143.638Z" fill="#D64923"/>
<path d="M63.8605 136.047C63.8605 136.047 63.6054 136.047 63.1479 136.1C62.9192 136.126 62.6377 136.161 62.3209 136.232C62.0042 136.302 61.6347 136.364 61.2388 136.487C60.4382 136.699 59.5145 137.043 58.5203 137.51C57.5438 137.995 56.4968 138.612 55.4939 139.379C54.4998 140.155 53.6376 141.01 52.9162 141.83C52.2124 142.668 51.6405 143.479 51.2358 144.202C51.0159 144.555 50.8575 144.89 50.7079 145.19C50.5584 145.481 50.444 145.745 50.3648 145.957C50.1977 146.389 50.1097 146.627 50.1361 146.636C50.1977 146.662 50.5672 145.71 51.4382 144.326C51.8692 143.629 52.4499 142.853 53.1537 142.033C53.8751 141.231 54.7197 140.402 55.705 139.644C56.6904 138.894 57.8253 138.039 58.7842 137.554C59.752 137.078 60.5262 136.955 61.3092 136.717C62.8664 136.232 63.8781 136.108 63.8693 136.047H63.8605Z" fill="#D64923"/>
<path d="M65.1363 127.327C65.1363 127.327 64.7932 127.151 64.1861 127.115C63.5879 127.071 62.7345 127.168 61.8811 127.53C60.7198 128.023 60.3151 128.508 59.9808 128.905C59.5937 129.372 59.4442 129.716 59.4793 129.734C59.5585 129.804 60.3679 128.517 62.0131 127.83C63.6407 127.115 65.1363 127.424 65.1363 127.327Z" fill="#D64923"/>
<path d="M143.181 99.6951C143.181 99.6951 164.638 101.758 171.448 120.441C176.858 135.271 179.788 179.698 178.433 180.597L140.55 179.381C140.049 168.545 137.137 160.195 133.063 154.791L143.181 99.6863V99.6951Z" fill="#002029"/>
<path d="M141.131 179.39C141.131 179.39 141.412 179.513 141.879 179.804C142.345 180.095 142.996 180.545 143.779 181.127C145.354 182.282 147.439 184.018 149.541 186.143C151.653 188.259 153.377 190.349 154.565 191.901C155.154 192.676 155.621 193.32 155.92 193.779C156.228 194.237 156.377 194.493 156.36 194.51C156.307 194.554 155.559 193.602 154.319 192.103C153.078 190.605 151.319 188.568 149.225 186.461C147.131 184.353 145.099 182.599 143.585 181.382C142.072 180.166 141.096 179.451 141.14 179.39H141.131Z" fill="#D64923"/>
<path d="M136.618 133.692C136.741 133.71 136.046 138.453 135.069 144.281C134.084 150.109 133.187 154.817 133.063 154.8C132.94 154.782 133.635 150.039 134.621 144.211C135.606 138.383 136.503 133.675 136.626 133.692H136.618Z" fill="#263238"/>
<path d="M88.9427 266.913C88.9427 266.913 89.1539 266.869 89.5762 266.816C90.0337 266.772 90.6407 266.71 91.3885 266.631C93.0161 266.481 95.2771 266.261 98.0484 265.996C103.67 265.458 111.438 264.638 119.99 263.563C128.541 262.478 136.266 261.323 141.852 260.451C144.606 260.01 146.849 259.657 148.459 259.401C149.207 259.287 149.805 259.199 150.263 259.128C150.676 259.066 150.896 259.049 150.896 259.066C150.896 259.084 150.685 259.137 150.28 259.225C149.832 259.313 149.233 259.437 148.494 259.586C146.946 259.895 144.694 260.301 141.905 260.786C136.336 261.747 128.612 262.946 120.051 264.039C111.491 265.123 103.714 265.882 98.0836 266.34C95.2683 266.569 92.9809 266.737 91.4061 266.825C90.6495 266.869 90.0513 266.896 89.585 266.922C89.1715 266.94 88.9515 266.94 88.9515 266.922L88.9427 266.913Z" fill="#263238"/>
<path d="M85.5908 261.235C85.5908 261.235 86.1451 261.156 87.148 261.094C88.2302 261.032 89.6642 260.962 91.4061 260.865C95.0748 260.68 100.01 260.424 105.465 260.142C110.919 259.825 115.855 259.542 119.524 259.322C121.266 259.225 122.7 259.146 123.782 259.084C124.785 259.031 125.348 259.022 125.348 259.058C125.348 259.093 124.793 259.163 123.791 259.269C122.788 259.375 121.336 259.507 119.541 259.657C115.952 259.957 110.981 260.31 105.482 260.609C99.9927 260.909 95.0132 261.103 91.4061 261.2C89.6026 261.253 88.1422 261.279 87.1392 261.279C86.1275 261.279 85.5732 261.279 85.5732 261.244L85.5908 261.235Z" fill="#263238"/>
<path d="M25.256 180.853C25.3968 180.315 25.6256 179.804 25.9423 179.346C26.5757 178.437 27.5347 177.741 28.6256 177.494C30.4291 177.08 32.4526 177.926 33.4291 179.504C33.3675 178.305 34.3089 177.177 35.4702 176.859C36.6315 176.542 37.5289 176.992 38.4526 177.759C39.3764 178.526 39.6139 179.143 39.9922 180.28C40.916 178.199 45.658 178.455 46.2386 180.016C46.2386 180.016 50.3207 175.537 52.4058 177.741C53.2768 178.658 52.8985 180.06 52.3266 181.462C51.5612 183.34 51.0509 184.124 50.048 186.187L46.1858 186.399C45.8603 187.616 45.1741 192.544 45.0333 193.787C44.8925 195.031 44.6374 196.3 43.9776 197.367C43.3178 198.434 42.1653 199.271 40.916 199.254C39.6667 199.236 38.4262 198.16 38.5054 196.908C38.2415 197.94 37.8016 198.963 37.0362 199.712C36.2708 200.462 35.1447 200.894 34.1153 200.62C33.086 200.347 32.2678 199.271 32.4702 198.222C31.0889 199.174 29.0567 198.328 28.1769 196.9C27.3059 195.463 27.2795 193.682 27.3323 192.006C27.3763 190.516 27.5171 188.85 26.9276 187.439C26.8396 187.219 26.6725 187.025 26.6197 186.787C26.5405 186.434 26.5933 186.037 26.5669 185.685C26.5141 184.9 26.3733 184.124 26.1006 183.392C26.039 183.234 25.9775 183.075 25.9071 182.916C25.7223 182.502 25.4408 182.149 25.2297 181.744C25.1857 181.656 25.1417 181.567 25.1329 181.47C25.1065 181.268 25.1945 181.038 25.2473 180.853H25.256Z" fill="#FFBF9D"/>
<path d="M20.9012 178.702C19.8719 178.667 18.7458 178.878 18.0508 179.654C17.2326 180.571 17.0478 182.758 17.1358 183.983C18.5698 184.256 19.3352 183.93 20.7605 184.204C21.0596 184.256 21.3147 184.186 21.5611 184.362C22.2209 184.83 22.1153 186.417 22.3792 187.184C22.8367 188.515 24.5435 189.167 25.8543 188.674C27.174 188.189 28.0186 186.778 28.089 185.376C28.1593 183.966 27.5347 182.59 26.6373 181.514C25.2209 179.83 23.0831 178.781 20.8924 178.702H20.9012Z" fill="#FFBF9D"/>
<path d="M45.2972 191.742C45.1477 191.707 45.7371 189.088 46.1154 185.817C46.2914 184.186 46.3354 182.696 46.2738 181.62C46.221 180.545 46.089 179.892 46.1594 179.875C46.2122 179.857 46.4497 180.501 46.5905 181.594C46.7401 182.678 46.7489 184.212 46.5641 185.87C46.3882 187.528 46.0802 189.009 45.8251 190.067C45.57 191.125 45.3588 191.768 45.2972 191.751V191.742Z" fill="#D64923"/>
<path d="M38.3207 197.385C38.2591 197.367 38.4174 196.415 38.7078 194.881C38.9893 193.346 39.3764 191.222 39.6755 188.868C39.9746 186.513 40.0802 184.362 40.045 182.81C40.0186 181.259 39.9131 180.298 39.9834 180.289C40.0362 180.28 40.265 181.232 40.3705 182.802C40.4849 184.371 40.4321 186.549 40.133 188.929C39.8339 191.31 39.3852 193.426 39.0245 194.951C38.6638 196.476 38.3823 197.402 38.3207 197.385Z" fill="#D64923"/>
<path d="M32.4175 198.39C32.3471 198.372 32.5935 197.314 32.9014 195.604C33.2093 193.893 33.5524 191.504 33.702 188.859C33.8427 186.205 33.7636 183.798 33.6404 182.061C33.5172 180.324 33.394 179.249 33.4644 179.24C33.4996 179.24 33.5612 179.495 33.658 179.98C33.7548 180.465 33.8603 181.162 33.9659 182.035C34.1682 183.78 34.3002 186.205 34.1594 188.885C34.0099 191.566 33.614 193.964 33.2181 195.674C33.0245 196.529 32.8398 197.217 32.6902 197.684C32.5407 198.152 32.4527 198.407 32.4175 198.398V198.39Z" fill="#D64923"/>
<path d="M24.6403 181.126C24.6579 181.082 25.1681 181.223 25.8456 181.735C26.5142 182.237 27.3236 183.137 27.7987 184.353C28.2737 185.561 28.3089 186.796 28.0626 187.624C27.8075 188.48 27.2708 188.771 27.2532 188.718C27.2004 188.665 27.5963 188.321 27.7459 187.545C27.8954 186.787 27.8163 185.649 27.3764 184.521C26.9365 183.392 26.2239 182.52 25.6344 181.982C25.045 181.435 24.6051 181.188 24.6403 181.126Z" fill="#D64923"/>
</g>
<defs>
<clipPath id="clip0_1_1306">
<rect width="234" height="373" fill="white"/>
</clipPath>
</defs>
</svg>
