<svg width="24" height="25" viewBox="0 0 24 25" fill="none" xmlns="http://www.w3.org/2000/svg">
<path id="Vector" d="M13.2336 0.5C14.5835 0.5036 15.2687 0.510799 15.8603 0.527599L16.0931 0.535998C16.3619 0.545598 16.627 0.557597 16.9474 0.571996C18.2242 0.631993 19.0953 0.833583 19.8597 1.12997C20.6516 1.43475 21.3188 1.84753 21.986 2.5135C22.5961 3.11334 23.0683 3.83894 23.3695 4.63979C23.6659 5.40415 23.8675 6.2753 23.9275 7.55324C23.9419 7.87242 23.9539 8.13761 23.9635 8.4076L23.9707 8.64038C23.9887 9.23075 23.9959 9.91592 23.9983 11.2658L23.9995 12.161V13.7329C24.0024 14.6082 23.9932 15.4834 23.9719 16.3584L23.9647 16.5912C23.9551 16.8612 23.9431 17.1263 23.9287 17.4455C23.8687 18.7235 23.6647 19.5934 23.3695 20.359C23.0691 21.1603 22.5969 21.886 21.986 22.4853C21.386 23.0952 20.6604 23.5673 19.8597 23.8688C19.0953 24.1652 18.2242 24.3668 16.9474 24.4268C16.6627 24.4402 16.3779 24.4522 16.0931 24.4628L15.8603 24.47C15.2687 24.4868 14.5835 24.4952 13.2336 24.4976L12.3385 24.4988H10.7677C9.8921 24.5018 9.01646 24.4926 8.14108 24.4712L7.90829 24.464C7.62343 24.4532 7.33864 24.4408 7.05393 24.4268C5.7772 24.3668 4.90604 24.1652 4.14048 23.8688C3.33972 23.5681 2.61442 23.0959 2.01539 22.4853C1.40467 21.8856 0.932114 21.16 0.63066 20.359C0.334275 19.5946 0.132686 18.7235 0.0726886 17.4455C0.0593199 17.1608 0.0473204 16.876 0.0366905 16.5912L0.0306909 16.3584C0.00857853 15.4834 -0.00142203 14.6082 0.000692365 13.7329V11.2658C-0.00265662 10.3906 0.00614386 9.51537 0.0270911 8.64038L0.0354906 8.4076C0.0450901 8.13761 0.0570895 7.87242 0.0714888 7.55324C0.131486 6.2753 0.333075 5.40535 0.62946 4.63979C0.930781 3.83811 1.40428 3.11229 2.01659 2.5135C2.61547 1.9033 3.34029 1.43114 4.14048 1.12997C4.90604 0.833583 5.776 0.631993 7.05393 0.571996C7.37311 0.557597 7.6395 0.545598 7.90829 0.535998L8.14108 0.528798C9.01606 0.507479 9.8913 0.498278 10.7665 0.5012L13.2336 0.5ZM12.0001 6.49969C10.4089 6.49969 8.88282 7.1318 7.75765 8.25696C6.63249 9.38212 6.00038 10.9082 6.00038 12.4994C6.00038 14.0906 6.63249 15.6166 7.75765 16.7418C8.88282 17.867 10.4089 18.4991 12.0001 18.4991C13.5913 18.4991 15.1173 17.867 16.2425 16.7418C17.3677 15.6166 17.9998 14.0906 17.9998 12.4994C17.9998 10.9082 17.3677 9.38212 16.2425 8.25696C15.1173 7.1318 13.5913 6.49969 12.0001 6.49969ZM12.0001 8.89957C12.4728 8.89949 12.9409 8.99253 13.3777 9.17336C13.8145 9.35419 14.2114 9.61929 14.5457 9.95351C14.88 10.2877 15.1453 10.6845 15.3262 11.1212C15.5072 11.558 15.6004 12.0261 15.6005 12.4988C15.6006 12.9715 15.5075 13.4396 15.3267 13.8764C15.1459 14.3132 14.8808 14.7101 14.5466 15.0444C14.2123 15.3787 13.8155 15.644 13.3788 15.825C12.9421 16.0059 12.474 16.0991 12.0013 16.0992C11.0465 16.0992 10.1309 15.7199 9.45582 15.0448C8.78073 14.3697 8.40146 13.4541 8.40146 12.4994C8.40146 11.5447 8.78073 10.629 9.45582 9.95393C10.1309 9.27883 11.0465 8.89957 12.0013 8.89957M18.301 4.69978C17.9032 4.69978 17.5216 4.85781 17.2403 5.1391C16.9591 5.42039 16.801 5.8019 16.801 6.19971C16.801 6.59751 16.9591 6.97902 17.2403 7.26031C17.5216 7.5416 17.9032 7.69963 18.301 7.69963C18.6988 7.69963 19.0803 7.5416 19.3616 7.26031C19.6429 6.97902 19.8009 6.59751 19.8009 6.19971C19.8009 5.8019 19.6429 5.42039 19.3616 5.1391C19.0803 4.85781 18.6988 4.69978 18.301 4.69978Z" fill="white"/>
</svg>
