<svg width="883" height="210" viewBox="0 0 883 210" fill="none" xmlns="http://www.w3.org/2000/svg">
<path d="M251.512 100.696H292.856V120.28H251.512V100.696ZM253.304 151H227.96V61.4H298.232V80.984H253.304V151Z" fill="url(#paint0_linear_58_94)"/>
<path d="M355.049 152.152C347.454 152.152 340.713 150.616 334.825 147.544C328.937 144.472 324.286 140.248 320.873 134.872C317.545 129.411 315.881 123.181 315.881 116.184C315.881 109.187 317.545 103 320.873 97.624C324.286 92.248 328.937 88.0667 334.825 85.08C340.713 82.008 347.454 80.472 355.049 80.472C362.644 80.472 369.385 82.008 375.273 85.08C381.246 88.0667 385.897 92.248 389.225 97.624C392.553 103 394.217 109.187 394.217 116.184C394.217 123.181 392.553 129.411 389.225 134.872C385.897 140.248 381.246 144.472 375.273 147.544C369.385 150.616 362.644 152.152 355.049 152.152ZM355.049 132.824C357.865 132.824 360.34 132.184 362.473 130.904C364.692 129.624 366.441 127.747 367.721 125.272C369.001 122.712 369.641 119.683 369.641 116.184C369.641 112.685 369.001 109.741 367.721 107.352C366.441 104.877 364.692 103 362.473 101.72C360.34 100.44 357.865 99.8 355.049 99.8C352.318 99.8 349.844 100.44 347.625 101.72C345.492 103 343.742 104.877 342.377 107.352C341.097 109.741 340.457 112.685 340.457 116.184C340.457 119.683 341.097 122.712 342.377 125.272C343.742 127.747 345.492 129.624 347.625 130.904C349.844 132.184 352.318 132.824 355.049 132.824ZM418.283 151V81.624H441.451V101.848L437.995 96.088C440.043 90.8827 443.371 87 447.979 84.44C452.587 81.7947 458.176 80.472 464.747 80.472V102.36C463.638 102.189 462.656 102.104 461.803 102.104C461.035 102.019 460.182 101.976 459.243 101.976C454.294 101.976 450.283 103.341 447.211 106.072C444.139 108.717 442.603 113.069 442.603 119.128V151H418.283ZM522.414 152.152C514.734 152.152 507.865 150.616 501.806 147.544C495.833 144.472 491.139 140.248 487.726 134.872C484.313 129.411 482.606 123.181 482.606 116.184C482.606 109.187 484.313 103 487.726 97.624C491.139 92.248 495.833 88.0667 501.806 85.08C507.865 82.008 514.734 80.472 522.414 80.472C530.265 80.472 537.049 82.136 542.766 85.464C548.483 88.792 552.537 93.4853 554.926 99.544L536.11 109.144C534.489 105.901 532.483 103.555 530.094 102.104C527.705 100.568 525.102 99.8 522.286 99.8C519.47 99.8 516.91 100.44 514.606 101.72C512.302 103 510.467 104.877 509.102 107.352C507.822 109.741 507.182 112.685 507.182 116.184C507.182 119.768 507.822 122.797 509.102 125.272C510.467 127.747 512.302 129.624 514.606 130.904C516.91 132.184 519.47 132.824 522.286 132.824C525.102 132.824 527.705 132.099 530.094 130.648C532.483 129.112 534.489 126.723 536.11 123.48L554.926 133.08C552.537 139.139 548.483 143.832 542.766 147.16C537.049 150.488 530.265 152.152 522.414 152.152ZM610.949 152.152C603.354 152.152 596.613 150.616 590.725 147.544C584.837 144.472 580.186 140.248 576.773 134.872C573.445 129.411 571.781 123.181 571.781 116.184C571.781 109.187 573.445 103 576.773 97.624C580.186 92.248 584.837 88.0667 590.725 85.08C596.613 82.008 603.354 80.472 610.949 80.472C618.544 80.472 625.285 82.008 631.173 85.08C637.146 88.0667 641.797 92.248 645.125 97.624C648.453 103 650.117 109.187 650.117 116.184C650.117 123.181 648.453 129.411 645.125 134.872C641.797 140.248 637.146 144.472 631.173 147.544C625.285 150.616 618.544 152.152 610.949 152.152ZM610.949 132.824C613.765 132.824 616.24 132.184 618.373 130.904C620.592 129.624 622.341 127.747 623.621 125.272C624.901 122.712 625.541 119.683 625.541 116.184C625.541 112.685 624.901 109.741 623.621 107.352C622.341 104.877 620.592 103 618.373 101.72C616.24 100.44 613.765 99.8 610.949 99.8C608.218 99.8 605.744 100.44 603.525 101.72C601.392 103 599.642 104.877 598.277 107.352C596.997 109.741 596.357 112.685 596.357 116.184C596.357 119.683 596.997 122.712 598.277 125.272C599.642 127.747 601.392 129.624 603.525 130.904C605.744 132.184 608.218 132.824 610.949 132.824ZM764.551 80.472C769.927 80.472 774.706 81.5813 778.887 83.8C783.154 85.9333 786.482 89.2613 788.871 93.784C791.346 98.3067 792.583 104.152 792.583 111.32V151H768.263V115.288C768.263 110.339 767.324 106.755 765.447 104.536C763.57 102.232 761.01 101.08 757.767 101.08C755.463 101.08 753.372 101.635 751.495 102.744C749.618 103.853 748.167 105.56 747.143 107.864C746.119 110.083 745.607 112.984 745.607 116.568V151H721.287V115.288C721.287 110.339 720.348 106.755 718.471 104.536C716.679 102.232 714.119 101.08 710.791 101.08C708.402 101.08 706.268 101.635 704.391 102.744C702.599 103.853 701.148 105.56 700.039 107.864C699.015 110.083 698.503 112.984 698.503 116.568V151H674.183V81.624H697.351V100.952L692.743 95.448C695.303 90.4987 698.802 86.7867 703.239 84.312C707.676 81.752 712.626 80.472 718.087 80.472C724.316 80.472 729.778 82.0933 734.471 85.336C739.25 88.4933 742.45 93.4427 744.071 100.184L736.135 98.52C738.61 92.888 742.322 88.4933 747.271 85.336C752.306 82.0933 758.066 80.472 764.551 80.472ZM845.949 152.152C840.061 152.152 834.301 151.469 828.669 150.104C823.122 148.739 818.642 147.032 815.229 144.984L822.525 128.344C825.768 130.307 829.565 131.885 833.917 133.08C838.269 134.189 842.536 134.744 846.717 134.744C850.813 134.744 853.629 134.317 855.165 133.464C856.786 132.611 857.597 131.459 857.597 130.008C857.597 128.643 856.829 127.661 855.293 127.064C853.842 126.381 851.88 125.869 849.405 125.528C847.016 125.187 844.37 124.803 841.469 124.376C838.568 123.949 835.624 123.395 832.637 122.712C829.736 121.944 827.048 120.835 824.573 119.384C822.184 117.848 820.264 115.8 818.813 113.24C817.362 110.68 816.637 107.437 816.637 103.512C816.637 99.0747 817.917 95.1493 820.477 91.736C823.122 88.2373 826.962 85.5067 831.997 83.544C837.032 81.496 843.176 80.472 850.429 80.472C855.293 80.472 860.2 80.984 865.149 82.008C870.184 82.9467 874.408 84.3973 877.821 86.36L870.525 102.872C867.112 100.909 863.698 99.5867 860.285 98.904C856.872 98.136 853.629 97.752 850.557 97.752C846.461 97.752 843.56 98.2213 841.853 99.16C840.232 100.099 839.421 101.251 839.421 102.616C839.421 103.981 840.146 105.048 841.597 105.816C843.048 106.499 844.968 107.053 847.357 107.48C849.832 107.821 852.52 108.205 855.421 108.632C858.322 108.973 861.224 109.528 864.125 110.296C867.112 111.064 869.8 112.216 872.189 113.752C874.664 115.203 876.626 117.208 878.077 119.768C879.528 122.243 880.253 125.443 880.253 129.368C880.253 133.635 878.93 137.475 876.285 140.888C873.725 144.301 869.885 147.032 864.765 149.08C859.73 151.128 853.458 152.152 845.949 152.152Z" fill="#D9D9D9"/>
<path d="M13.8857 0C6.21685 0 0 6.24488 0 13.9483V41.845C0 49.5485 6.21685 55.7934 13.8857 55.7934H41.6571C49.326 55.7934 55.5429 49.5485 55.5429 41.845V13.9483C55.5429 6.24488 49.326 0 41.6571 0H13.8857Z" fill="url(#paint1_linear_58_94)"/>
<path d="M13.8857 154.207C6.21685 154.207 0 160.452 0 168.155V196.052C0 203.755 6.21685 210 13.8857 210H41.6571C49.326 210 55.5429 203.755 55.5429 196.052V168.155C55.5429 160.452 49.326 154.207 41.6571 154.207H13.8857Z" fill="url(#paint2_linear_58_94)"/>
<path d="M133.457 13.9483C133.457 6.24488 139.674 0 147.343 0H175.114C182.783 0 189 6.24488 189 13.9483V41.845C189 49.5485 182.783 55.7934 175.114 55.7934H159.3C130.603 55.7934 117 85.2394 113.786 99.9628V105.63C113.838 123.845 143.009 150.68 170.388 154.207H175.114C182.783 154.207 189 160.452 189 168.155V196.052C189 203.755 182.783 210 175.114 210H147.343C139.674 210 133.457 203.755 133.457 196.052V181.137C130.53 160.098 94.9835 133.849 76.3832 131.347H72.1286C64.4597 131.347 58.2429 125.102 58.2429 117.399V89.5018C58.2429 81.7984 64.4597 75.5535 72.1286 75.5535H73.6713C94.0132 75.5535 130.491 56.8153 133.457 27.1271V13.9483Z" fill="url(#paint3_linear_58_94)"/>
<defs>
<linearGradient id="paint0_linear_58_94" x1="551" y1="27" x2="551" y2="183" gradientUnits="userSpaceOnUse">
<stop stop-color="#D65923"/>
<stop offset="1" stop-color="#D62E23"/>
</linearGradient>
<linearGradient id="paint1_linear_58_94" x1="94.5" y1="0" x2="94.5" y2="210" gradientUnits="userSpaceOnUse">
<stop stop-color="#D65923"/>
<stop offset="1" stop-color="#D62E23"/>
</linearGradient>
<linearGradient id="paint2_linear_58_94" x1="94.5" y1="0" x2="94.5" y2="210" gradientUnits="userSpaceOnUse">
<stop stop-color="#D65923"/>
<stop offset="1" stop-color="#D62E23"/>
</linearGradient>
<linearGradient id="paint3_linear_58_94" x1="94.5" y1="0" x2="94.5" y2="210" gradientUnits="userSpaceOnUse">
<stop stop-color="#D65923"/>
<stop offset="1" stop-color="#D62E23"/>
</linearGradient>
</defs>
</svg>
