<svg width="500" height="370" viewBox="0 0 500 370" fill="none" xmlns="http://www.w3.org/2000/svg">
<g clip-path="url(#clip0_443_5812)">
<path d="M449.9 344.16H416.78V344.41H449.9V344.16Z" fill="#EBEBEB"/>
<path d="M331.22 346.88H322.53V347.13H331.22V346.88Z" fill="#EBEBEB"/>
<path d="M415.78 334.88H396.59V335.13H415.78V334.88Z" fill="#EBEBEB"/>
<path d="M95.65 336.56H52.46V336.81H95.65V336.56Z" fill="#EBEBEB"/>
<path d="M110.89 336.56H104.56V336.81H110.89V336.56Z" fill="#EBEBEB"/>
<path d="M225.15 340.78H131.47V341.03H225.15V340.78Z" fill="#EBEBEB"/>
<path d="M237.01 283.47H43.92C40.77 283.47 38.21 280.91 38.21 277.76V6.33C38.21 3.18 40.77 0.619995 43.92 0.619995H237.02C240.17 0.619995 242.73 3.18 242.73 6.33V277.76C242.73 280.91 240.17 283.47 237.02 283.47H237.01ZM43.92 0.869995C40.91 0.869995 38.46 3.32 38.46 6.33V277.76C38.46 280.77 40.91 283.22 43.92 283.22H237.02C240.03 283.22 242.48 280.77 242.48 277.76V6.33C242.48 3.32 240.03 0.869995 237.02 0.869995H43.92Z" fill="#EBEBEB"/>
<path d="M453.31 283.47H260.21C257.06 283.47 254.5 280.91 254.5 277.76V6.33C254.5 3.18 257.06 0.619995 260.21 0.619995H453.31C456.46 0.619995 459.02 3.18 459.02 6.33V277.76C459.02 280.91 456.46 283.47 453.31 283.47ZM260.21 0.869995C257.2 0.869995 254.75 3.32 254.75 6.33V277.76C254.75 280.77 257.2 283.22 260.21 283.22H453.31C456.32 283.22 458.77 280.77 458.77 277.76V6.33C458.77 3.32 456.32 0.869995 453.31 0.869995H260.21Z" fill="#EBEBEB"/>
<path d="M500 328.07H0V328.32H500V328.07Z" fill="#EBEBEB"/>
<path d="M416.75 40.34H291.96V173.23H416.75V40.34Z" fill="#EBEBEB"/>
<path d="M409.25 47.84H299.46V165.73H409.25V47.84Z" fill="#E8E8E8"/>
<path d="M342.55 165.73H375.55L406.53 47.84H373.53L342.55 165.73Z" fill="#FAFAFA"/>
<path d="M358.2 47.84L327.22 165.73H335.22L366.2 47.84H358.2Z" fill="#FAFAFA"/>
<path d="M418.33 46.59H290.38L287.68 40.29H421.03L418.33 46.59Z" fill="#E8E8E8"/>
<path d="M418.33 50.24H290.38L287.68 43.94H421.03L418.33 50.24Z" fill="#B2B2B2"/>
<path d="M418.33 53.89H290.38L287.68 47.59H421.03L418.33 53.89Z" fill="#E6E6E6"/>
<path d="M418.33 57.54H290.38L287.68 51.24H421.03L418.33 57.54Z" fill="#D64923"/>
<path d="M425.68 32.4H283.03V40.8H425.68V32.4Z" fill="#D64923"/>
<path d="M284.49 116.96C283.69 116.96 283.04 116.31 283.04 115.51V66.52C283.04 65.72 283.69 65.07 284.49 65.07C285.29 65.07 285.94 65.72 285.94 66.52V115.51C285.94 116.31 285.29 116.96 284.49 116.96Z" fill="#D64923"/>
<path d="M285.01 39.11H283.96V68.21H285.01V39.11Z" fill="#D64923"/>
<path d="M90.52 37.76H88.72V178.13H90.52V37.76Z" fill="#D64923"/>
<path d="M202.57 37.76H200.77V178.13H202.57V37.76Z" fill="#D64923"/>
<path d="M209.62 46.59H81.67L78.97 40.29H212.32L209.62 46.59Z" fill="#E8E8E8"/>
<path d="M209.62 55.24H81.67L78.97 48.94H212.32L209.62 55.24Z" fill="#E8E8E8"/>
<path d="M209.62 63.89H81.67L78.97 57.59H212.32L209.62 63.89Z" fill="#E8E8E8"/>
<path d="M209.62 72.54H81.67L78.97 66.24H212.32L209.62 72.54Z" fill="#E8E8E8"/>
<path d="M209.62 81.19H81.67L78.97 74.89H212.32L209.62 81.19Z" fill="#E8E8E8"/>
<path d="M209.62 89.84H81.67L78.97 83.54H212.32L209.62 89.84Z" fill="#E8E8E8"/>
<path d="M209.62 98.49H81.67L78.97 92.19H212.32L209.62 98.49Z" fill="#E8E8E8"/>
<path d="M209.62 107.13H81.67L78.97 100.83H212.32L209.62 107.13Z" fill="#E8E8E8"/>
<path d="M209.62 115.78H81.67L78.97 109.48H212.32L209.62 115.78Z" fill="#E8E8E8"/>
<path d="M209.62 124.43H81.67L78.97 118.13H212.32L209.62 124.43Z" fill="#E8E8E8"/>
<path d="M209.62 133.08H81.67L78.97 126.78H212.32L209.62 133.08Z" fill="#E8E8E8"/>
<path d="M209.62 141.73H81.67L78.97 135.43H212.32L209.62 141.73Z" fill="#E8E8E8"/>
<path d="M209.62 150.38H81.67L78.97 144.08H212.32L209.62 150.38Z" fill="#E8E8E8"/>
<path d="M209.62 159.03H81.67L78.97 152.73H212.32L209.62 159.03Z" fill="#E8E8E8"/>
<path d="M209.62 167.68H81.67L78.97 161.38H212.32L209.62 167.68Z" fill="#E8E8E8"/>
<path d="M209.62 176.33H81.67L78.97 170.03H212.32L209.62 176.33Z" fill="#E8E8E8"/>
<path d="M212.32 176.33H78.97V179.93H212.32V176.33Z" fill="#D64923"/>
<path d="M216.97 32.4H74.3201V40.8H216.97V32.4Z" fill="#D64923"/>
<path d="M75.7901 116.96C74.9901 116.96 74.3401 116.31 74.3401 115.51V66.52C74.3401 65.72 74.9901 65.07 75.7901 65.07C76.5901 65.07 77.2401 65.72 77.2401 66.52V115.51C77.2401 116.31 76.5901 116.96 75.7901 116.96Z" fill="#D64923"/>
<path d="M76.31 39.11H75.26V68.21H76.31V39.11Z" fill="#D64923"/>
<path d="M89.3201 268.04C89.2001 268.18 89.8701 269.12 87.1301 268.7C80.3801 267.69 68.6301 264.95 65.3601 258.01C60.6901 248.1 75.1701 251.72 74.6701 246.65C74.1701 241.58 57.6901 242.47 55.9401 235.03C54.1901 227.6 65.3701 231.14 65.5201 227.51C65.6701 223.89 52.7901 226.14 50.2301 218.12C47.6701 210.1 57.4101 216 56.2901 212.67C55.1701 209.34 44.2801 194.25 50.2001 192.5C56.1301 190.75 66.1201 206.23 69.9701 208.42C73.8201 210.61 77.2501 197.98 81.8401 203.31C86.4301 208.64 79.1501 227.3 85.0101 230.92C89.3701 233.62 88.1401 226.19 93.9001 227.57C101.72 229.45 99.0901 257.08 89.3101 268.02L89.3201 268.04Z" fill="#EBEBEB"/>
<path d="M68.4901 227.56C71.1401 227.78 73.1001 228.32 74.3201 228.76C71.9401 225.28 70.2301 223.49 70.1701 223.43C69.9801 223.23 69.9801 222.92 70.1701 222.72C70.3701 222.53 70.6801 222.53 70.8801 222.72C70.9301 222.77 74.8701 226.83 79.1901 234.78C81.3101 221.99 75.9601 210.82 75.9001 210.7C75.8101 210.51 75.8901 210.29 76.0701 210.2C76.2501 210.11 76.4801 210.19 76.5701 210.37C76.6301 210.49 82.3501 222.42 79.7501 235.84C80.4401 237.16 81.1401 238.56 81.8201 240.08C83.8001 244.45 85.8801 250.05 87.5201 256.79C88.6601 254.73 91.2701 249.22 91.5001 241.53C91.5001 241.32 91.6801 241.16 91.8901 241.17C92.1001 241.18 92.2601 241.35 92.2501 241.56C91.9801 250.46 88.5701 256.55 87.7801 257.85C89.9501 267.21 91.2501 278.73 90.3201 292.31C90.3001 292.59 90.0601 292.79 89.7901 292.77C89.7701 292.77 89.7501 292.77 89.7301 292.77C89.4901 292.72 89.3101 292.5 89.3301 292.25C90.5701 274.28 87.8801 259.83 84.1601 248.89C83.2201 247.8 80.4301 245 76.1801 244.34C75.9901 244.29 75.8401 244.12 75.8701 243.91C75.9001 243.71 76.0901 243.57 76.3001 243.6C79.6601 244.13 82.1201 245.87 83.5801 247.22C80.8401 239.62 77.6401 233.84 75.0501 229.89C74.2201 229.51 71.9401 228.63 68.4201 228.33C68.2201 228.3 68.0601 228.13 68.0801 227.92C68.1001 227.71 68.2801 227.56 68.4801 227.58L68.4901 227.56Z" fill="#E8E8E8"/>
<path d="M97.96 271.87C103.57 271.98 113.15 266.77 116.91 261.7C120.73 256.56 109.99 259.75 111.09 255.71C112.19 251.67 125.43 254.66 127.87 248.87C130.31 243.09 120.76 244.42 121.14 241.46C121.52 238.5 131.41 239.1 134.59 232.96C137.77 226.81 129.06 230.26 130.43 227.71C131.8 225.16 142.7 214.44 138.14 212.21C133.58 209.97 123.35 221.14 119.93 222.39C116.5 223.64 115.7 215.92 111.25 219.61C106.79 223.3 110.13 239.42 104.88 241.55C100.97 243.13 102.63 235.75 98.14 237.61C90.26 240.87 95.69 271.82 97.97 271.86L97.96 271.87Z" fill="#D64923"/>
<g opacity="0.3">
<path d="M97.96 271.87C103.57 271.98 113.15 266.77 116.91 261.7C120.73 256.56 109.99 259.75 111.09 255.71C112.19 251.67 125.43 254.66 127.87 248.87C130.31 243.09 120.76 244.42 121.14 241.46C121.52 238.5 131.41 239.1 134.59 232.96C137.77 226.81 129.06 230.26 130.43 227.71C131.8 225.16 142.7 214.44 138.14 212.21C133.58 209.97 123.35 221.14 119.93 222.39C116.5 223.64 115.7 215.92 111.25 219.61C106.79 223.3 110.13 239.42 104.88 241.55C100.97 243.13 102.63 235.75 98.14 237.61C90.26 240.87 95.69 271.82 97.97 271.86L97.96 271.87Z" fill="#D64923"/>
</g>
<path d="M99.8201 265.14C99.7401 265.11 99.6701 265.06 99.6201 264.98C99.4901 264.73 96.4201 258.78 97.1001 249.95C97.1201 249.74 97.2901 249.59 97.5001 249.61C97.7101 249.63 97.8601 249.81 97.8401 250.01C97.2601 257.47 99.4901 262.93 100.11 264.3C102.62 257.48 105.63 251.42 108.65 246.23C107.66 234.19 113.83 224.33 113.89 224.23C114 224.06 114.23 224 114.41 224.11C114.58 224.22 114.64 224.45 114.53 224.63C114.47 224.72 108.8 233.79 109.33 245.07C116.52 233.03 123.53 226.04 123.67 225.9C123.87 225.71 124.18 225.71 124.38 225.9C124.57 226.1 124.57 226.41 124.38 226.61C124.26 226.73 119.27 231.71 113.44 240.45C116.86 239.18 120.57 238.52 124.04 238.58C124.25 238.58 124.41 238.75 124.41 238.96C124.41 239.16 124.24 239.33 124.03 239.33C120.32 239.26 116.32 240.04 112.72 241.53C110.71 244.61 108.63 248.13 106.62 252.02C108.55 250.72 112.29 248.91 117.08 250.18C117.28 250.23 117.4 250.44 117.35 250.64C117.3 250.84 117.09 250.96 116.89 250.91C110.81 249.31 106.53 252.94 105.83 253.58C100.33 264.65 95.5901 278.65 94.9601 294.69C94.9501 294.96 94.7301 295.17 94.4601 295.17H94.4401C94.1601 295.16 93.9501 294.93 93.9601 294.65C94.3901 283.79 96.6801 273.87 99.8201 265.13V265.14Z" fill="#E8E8E8"/>
<path d="M82.1901 326.65C76.8401 316.58 73.3201 302.04 73.3201 295.67C73.3201 290.28 75.8501 285.45 79.8601 282.06H107.27C111.28 285.45 113.81 290.28 113.81 295.67C113.81 302.04 110.29 316.59 104.94 326.65H82.2001H82.1901Z" fill="#B2B2B2"/>
<path d="M245.18 369.38C352.263 369.38 439.07 364.312 439.07 358.06C439.07 351.808 352.263 346.74 245.18 346.74C138.098 346.74 51.29 351.808 51.29 358.06C51.29 364.312 138.098 369.38 245.18 369.38Z" fill="#E8E8E8"/>
<path d="M292.65 65.31H268.67C267.1 65.31 265.67 66.48 265.34 68.04L265.18 68.79C264.36 72.6 260.87 75.45 257.04 75.45H234.24C230.4 75.45 227.42 72.6 227.26 68.79L227.23 68.04C227.17 66.48 225.94 65.31 224.37 65.31H200.39C192.39 65.31 185.34 71.79 184.64 79.79L165.35 300.33C164.65 308.33 170.57 314.81 178.57 314.81H270.84C278.84 314.81 285.89 308.33 286.59 300.33L305.88 79.79C306.58 71.79 300.66 65.31 292.66 65.31H292.65Z" fill="#002029"/>
<path opacity="0.7" d="M292.65 65.31H268.67C267.1 65.31 265.67 66.48 265.34 68.04L265.18 68.79C264.36 72.6 260.87 75.45 257.04 75.45H234.24C230.4 75.45 227.42 72.6 227.26 68.79L227.23 68.04C227.17 66.48 225.94 65.31 224.37 65.31H200.39C192.39 65.31 185.34 71.79 184.64 79.79L165.35 300.33C164.65 308.33 170.57 314.81 178.57 314.81H270.84C278.84 314.81 285.89 308.33 286.59 300.33L305.88 79.79C306.58 71.79 300.66 65.31 292.66 65.31H292.65Z" fill="#DFF8FF"/>
<path d="M283.3 166.74H234.31C232.53 166.74 231.22 165.3 231.37 163.52L235.06 121.33C235.22 119.55 236.78 118.11 238.56 118.11H287.55C289.33 118.11 290.64 119.55 290.49 121.33L286.8 163.52C286.64 165.3 285.08 166.74 283.3 166.74Z" fill="#DFF8FF"/>
<path d="M266.98 298.66H184.99C180.58 298.66 177.31 295.08 177.7 290.67C178.09 286.26 181.98 282.68 186.39 282.68H268.38C272.79 282.68 276.06 286.26 275.67 290.67C275.28 295.08 271.39 298.66 266.98 298.66Z" fill="#DFF8FF"/>
<path d="M273.53 106.52H198.3C195.82 106.52 193.99 104.51 194.21 102.03L194.82 95.02C195.04 92.54 197.22 90.53 199.7 90.53H274.93C277.41 90.53 279.24 92.54 279.02 95.02L278.41 102.03C278.19 104.51 276.01 106.52 273.53 106.52Z" fill="#DFF8FF"/>
<path d="M288.83 94.79C288.77 95.48 288.16 96.04 287.47 96.04C286.78 96.04 286.27 95.48 286.33 94.79C286.39 94.1 287 93.54 287.69 93.54C288.38 93.54 288.89 94.1 288.83 94.79Z" fill="#DFF8FF"/>
<path d="M288.5 98.53C288.44 99.22 287.83 99.78 287.14 99.78C286.45 99.78 285.94 99.22 286 98.53C286.06 97.84 286.67 97.28 287.36 97.28C288.05 97.28 288.56 97.84 288.5 98.53Z" fill="#DFF8FF"/>
<path d="M288.18 102.26C288.12 102.95 287.51 103.51 286.82 103.51C286.13 103.51 285.62 102.95 285.68 102.26C285.74 101.57 286.35 101.01 287.04 101.01C287.73 101.01 288.24 101.57 288.18 102.26Z" fill="#DFF8FF"/>
<path d="M277.21 236.35H185.68C183.9 236.35 182.59 234.91 182.74 233.13L186.95 184.97C187.11 183.19 188.67 181.75 190.45 181.75H281.98C283.76 181.75 285.07 183.19 284.92 184.97L280.71 233.13C280.55 234.91 278.99 236.35 277.21 236.35Z" fill="#DFF8FF"/>
<path d="M210.86 246.41H182.36C181.93 246.41 181.6 246.06 181.64 245.62C181.68 245.19 182.06 244.83 182.49 244.83H210.99C211.42 244.83 211.75 245.18 211.71 245.62C211.67 246.05 211.29 246.41 210.86 246.41Z" fill="#DFF8FF"/>
<path d="M246.48 246.41H215.89C215.46 246.41 215.13 246.06 215.17 245.62C215.21 245.19 215.59 244.83 216.02 244.83H246.61C247.04 244.83 247.37 245.18 247.33 245.62C247.29 246.05 246.91 246.41 246.48 246.41Z" fill="#DFF8FF"/>
<path d="M201.03 253.35H181.75C181.32 253.35 180.99 253 181.03 252.56C181.07 252.13 181.45 251.77 181.89 251.77H201.17C201.6 251.77 201.93 252.12 201.89 252.56C201.85 252.99 201.47 253.35 201.03 253.35Z" fill="#DFF8FF"/>
<path d="M237.64 253.35H206.06C205.63 253.35 205.3 253 205.34 252.56C205.38 252.13 205.76 251.77 206.19 251.77H237.77C238.2 251.77 238.53 252.12 238.49 252.56C238.45 252.99 238.07 253.35 237.64 253.35Z" fill="#DFF8FF"/>
<path d="M232.54 260.3H181.15C180.72 260.3 180.39 259.95 180.43 259.51C180.47 259.08 180.85 258.72 181.29 258.72H232.68C233.11 258.72 233.44 259.07 233.4 259.51C233.36 259.94 232.98 260.3 232.55 260.3H232.54Z" fill="#DFF8FF"/>
<path d="M240.96 260.3H237.57C237.14 260.3 236.81 259.95 236.85 259.51C236.89 259.08 237.27 258.72 237.7 258.72H241.09C241.52 258.72 241.85 259.07 241.81 259.51C241.77 259.94 241.39 260.3 240.96 260.3Z" fill="#DFF8FF"/>
<path d="M204.53 267.24H180.54C180.11 267.24 179.78 266.89 179.82 266.45C179.86 266.02 180.24 265.66 180.67 265.66H204.66C205.09 265.66 205.42 266.01 205.38 266.45C205.34 266.88 204.96 267.24 204.53 267.24Z" fill="#DFF8FF"/>
<path d="M239.44 267.24H209.57C209.14 267.24 208.81 266.89 208.85 266.45C208.89 266.02 209.27 265.66 209.71 265.66H239.58C240.01 265.66 240.34 266.01 240.3 266.45C240.26 266.88 239.88 267.24 239.45 267.24H239.44Z" fill="#DFF8FF"/>
<path d="M209.48 274.19H179.94C179.51 274.19 179.18 273.84 179.22 273.4C179.26 272.97 179.64 272.61 180.07 272.61H209.61C210.04 272.61 210.37 272.96 210.33 273.4C210.29 273.83 209.91 274.19 209.47 274.19H209.48Z" fill="#DFF8FF"/>
<path d="M238.3 274.19H214.5C214.07 274.19 213.74 273.84 213.78 273.4C213.82 272.97 214.2 272.61 214.63 272.61H238.43C238.86 272.61 239.19 272.96 239.15 273.4C239.11 273.83 238.73 274.19 238.3 274.19Z" fill="#DFF8FF"/>
<path d="M282.14 162.75C281.74 163.16 281.1 163.2 280.72 162.84L239.79 123.78C239.41 123.41 239.42 122.78 239.82 122.37C240.22 121.96 240.86 121.92 241.24 122.28L282.17 161.34C282.55 161.71 282.54 162.34 282.14 162.75Z" fill="#002029"/>
<path d="M236.17 162.73C235.84 162.32 235.94 161.68 236.38 161.32L257.26 144.25C257.71 143.88 258.33 143.93 258.66 144.34C258.99 144.75 258.89 145.39 258.45 145.75L237.57 162.82C237.12 163.19 236.5 163.15 236.17 162.73Z" fill="#002029"/>
<path d="M263.15 140.67C262.82 140.26 262.92 139.62 263.36 139.26L284.28 122.16C284.73 121.79 285.35 121.83 285.68 122.25C286.01 122.66 285.91 123.3 285.47 123.66L264.55 140.76C264.1 141.13 263.48 141.09 263.15 140.67Z" fill="#002029"/>
<g opacity="0.7">
<path d="M282.14 162.75C281.74 163.16 281.1 163.2 280.72 162.84L239.79 123.78C239.41 123.41 239.42 122.78 239.82 122.37C240.22 121.96 240.86 121.92 241.24 122.28L282.17 161.34C282.55 161.71 282.54 162.34 282.14 162.75Z" fill="#DFF8FF"/>
</g>
<g opacity="0.7">
<path d="M236.17 162.73C235.84 162.32 235.94 161.68 236.38 161.32L257.26 144.25C257.71 143.88 258.33 143.93 258.66 144.34C258.99 144.75 258.89 145.39 258.45 145.75L237.57 162.82C237.12 163.19 236.5 163.15 236.17 162.73Z" fill="#DFF8FF"/>
</g>
<g opacity="0.7">
<path d="M263.15 140.67C262.82 140.26 262.92 139.62 263.36 139.26L284.28 122.16C284.73 121.79 285.35 121.83 285.68 122.25C286.01 122.66 285.91 123.3 285.47 123.66L264.55 140.76C264.1 141.13 263.48 141.09 263.15 140.67Z" fill="#DFF8FF"/>
</g>
<path d="M165.74 60.51H152.79C150.16 60.51 148.03 62.64 148.03 65.27V78.22C148.03 80.85 150.16 82.98 152.79 82.98H165.74C168.37 82.98 170.5 80.85 170.5 78.22V65.27C170.5 62.64 168.37 60.51 165.74 60.51ZM159.26 65.11C161.21 65.11 162.27 66.69 162.27 68.65C162.27 70.61 161.22 72.19 159.26 72.19C157.3 72.19 156.25 70.61 156.25 68.65C156.25 66.69 157.3 65.11 159.26 65.11ZM167.08 78.38H151.44C151.31 78.38 151.19 78.33 151.11 78.24L152.11 75.5C152.76 73.74 154.43 72.57 156.31 72.57H162.21C164.09 72.57 165.76 73.74 166.41 75.5L167.41 78.24C167.32 78.33 167.21 78.38 167.08 78.38Z" fill="#002029"/>
<path opacity="0.7" d="M165.74 60.51H152.79C150.16 60.51 148.03 62.64 148.03 65.27V78.22C148.03 80.85 150.16 82.98 152.79 82.98H165.74C168.37 82.98 170.5 80.85 170.5 78.22V65.27C170.5 62.64 168.37 60.51 165.74 60.51ZM159.26 65.11C161.21 65.11 162.27 66.69 162.27 68.65C162.27 70.61 161.22 72.19 159.26 72.19C157.3 72.19 156.25 70.61 156.25 68.65C156.25 66.69 157.3 65.11 159.26 65.11ZM167.08 78.38H151.44C151.31 78.38 151.19 78.33 151.11 78.24L152.11 75.5C152.76 73.74 154.43 72.57 156.31 72.57H162.21C164.09 72.57 165.76 73.74 166.41 75.5L167.41 78.24C167.32 78.33 167.21 78.38 167.08 78.38Z" fill="white"/>
<path d="M119.66 113.78H109.82C106.28 113.78 103.41 116.65 103.41 120.19V130.03C103.41 133.57 106.28 136.44 109.82 136.44H119.66C123.2 136.44 126.07 133.57 126.07 130.03V120.19C126.07 116.65 123.2 113.78 119.66 113.78ZM114.74 130.48C114.74 130.48 110.7 126.08 110.7 123.85C110.7 121.62 112.51 119.81 114.74 119.81C116.97 119.81 118.78 121.62 118.78 123.85C118.78 126.08 114.74 130.48 114.74 130.48Z" fill="#002029"/>
<path d="M114.74 122.01C113.72 122.01 112.9 122.84 112.9 123.86C112.9 124.88 113.73 125.71 114.74 125.71C115.75 125.71 116.59 124.88 116.59 123.86C116.59 122.84 115.76 122.01 114.74 122.01Z" fill="#002029"/>
<g opacity="0.7">
<path d="M119.66 113.78H109.82C106.28 113.78 103.41 116.65 103.41 120.19V130.03C103.41 133.57 106.28 136.44 109.82 136.44H119.66C123.2 136.44 126.07 133.57 126.07 130.03V120.19C126.07 116.65 123.2 113.78 119.66 113.78ZM114.74 130.48C114.74 130.48 110.7 126.08 110.7 123.85C110.7 121.62 112.51 119.81 114.74 119.81C116.97 119.81 118.78 121.62 118.78 123.85C118.78 126.08 114.74 130.48 114.74 130.48Z" fill="white"/>
<path d="M114.74 122.01C113.72 122.01 112.9 122.84 112.9 123.86C112.9 124.88 113.73 125.71 114.74 125.71C115.75 125.71 116.59 124.88 116.59 123.86C116.59 122.84 115.76 122.01 114.74 122.01Z" fill="white"/>
</g>
<path d="M335.7 85.9L342.29 81.63L335.7 77.37V85.9Z" fill="#002029"/>
<path d="M344.19 70.01H331.63C328.67 70.01 326.28 72.41 326.28 75.36V87.92C326.28 90.88 328.68 93.27 331.63 93.27H344.19C347.15 93.27 349.54 90.87 349.54 87.92V75.36C349.54 72.4 347.14 70.01 344.19 70.01ZM337.91 90C333.29 90 329.55 86.25 329.55 81.64C329.55 77.02 333.3 73.28 337.91 73.28C342.52 73.28 346.27 77.03 346.27 81.64C346.27 86.26 342.53 90 337.91 90Z" fill="#002029"/>
<g opacity="0.7">
<path d="M335.7 85.9L342.29 81.63L335.7 77.37V85.9Z" fill="white"/>
<path d="M344.19 70.01H331.63C328.67 70.01 326.28 72.41 326.28 75.36V87.92C326.28 90.88 328.68 93.27 331.63 93.27H344.19C347.15 93.27 349.54 90.87 349.54 87.92V75.36C349.54 72.4 347.14 70.01 344.19 70.01ZM337.91 90C333.29 90 329.55 86.25 329.55 81.64C329.55 77.02 333.3 73.28 337.91 73.28C342.52 73.28 346.27 77.03 346.27 81.64C346.27 86.26 342.53 90 337.91 90Z" fill="white"/>
</g>
<path d="M356.52 118.18C356.52 117.92 356.51 117.66 356.48 117.41L357.99 116.57C357.88 115.84 357.69 115.14 357.43 114.48L355.71 114.51C355.49 114.04 355.23 113.6 354.94 113.18L355.83 111.7C355.37 111.14 354.86 110.62 354.3 110.17L352.82 111.06C352.4 110.77 351.96 110.51 351.49 110.29L351.52 108.57C350.85 108.31 350.15 108.12 349.43 108.01L348.59 109.52C348.34 109.5 348.08 109.48 347.82 109.48C347.56 109.48 347.3 109.49 347.05 109.52L346.21 108.01C345.48 108.12 344.78 108.31 344.12 108.57L344.15 110.29C343.68 110.51 343.24 110.77 342.82 111.06L341.34 110.17C340.78 110.63 340.26 111.14 339.81 111.7L340.7 113.18C340.41 113.6 340.15 114.04 339.93 114.51L338.21 114.48C337.95 115.15 337.76 115.85 337.65 116.57L339.16 117.41C339.14 117.66 339.12 117.92 339.12 118.18C339.12 118.44 339.13 118.7 339.16 118.95L337.65 119.79C337.76 120.52 337.95 121.22 338.21 121.88L339.93 121.85C340.15 122.32 340.41 122.76 340.7 123.18L339.81 124.66C340.27 125.22 340.78 125.74 341.34 126.19L342.82 125.3C343.24 125.59 343.68 125.85 344.15 126.07L344.12 127.79C344.79 128.05 345.49 128.24 346.21 128.35L347.05 126.84C347.3 126.86 347.56 126.88 347.82 126.88C348.08 126.88 348.34 126.87 348.59 126.84L349.43 128.35C350.16 128.24 350.86 128.05 351.52 127.79L351.49 126.07C351.96 125.85 352.4 125.59 352.82 125.3L354.3 126.19C354.86 125.73 355.38 125.22 355.83 124.66L354.94 123.18C355.23 122.76 355.49 122.32 355.71 121.85L357.43 121.88C357.69 121.21 357.88 120.51 357.99 119.79L356.48 118.95C356.5 118.7 356.52 118.44 356.52 118.18ZM347.81 124.1C344.54 124.1 341.89 121.45 341.89 118.18C341.89 114.91 344.54 112.26 347.81 112.26C351.08 112.26 353.73 114.91 353.73 118.18C353.73 121.45 351.08 124.1 347.81 124.1Z" fill="#002029"/>
<path opacity="0.7" d="M356.52 118.18C356.52 117.92 356.51 117.66 356.48 117.41L357.99 116.57C357.88 115.84 357.69 115.14 357.43 114.48L355.71 114.51C355.49 114.04 355.23 113.6 354.94 113.18L355.83 111.7C355.37 111.14 354.86 110.62 354.3 110.17L352.82 111.06C352.4 110.77 351.96 110.51 351.49 110.29L351.52 108.57C350.85 108.31 350.15 108.12 349.43 108.01L348.59 109.52C348.34 109.5 348.08 109.48 347.82 109.48C347.56 109.48 347.3 109.49 347.05 109.52L346.21 108.01C345.48 108.12 344.78 108.31 344.12 108.57L344.15 110.29C343.68 110.51 343.24 110.77 342.82 111.06L341.34 110.17C340.78 110.63 340.26 111.14 339.81 111.7L340.7 113.18C340.41 113.6 340.15 114.04 339.93 114.51L338.21 114.48C337.95 115.15 337.76 115.85 337.65 116.57L339.16 117.41C339.14 117.66 339.12 117.92 339.12 118.18C339.12 118.44 339.13 118.7 339.16 118.95L337.65 119.79C337.76 120.52 337.95 121.22 338.21 121.88L339.93 121.85C340.15 122.32 340.41 122.76 340.7 123.18L339.81 124.66C340.27 125.22 340.78 125.74 341.34 126.19L342.82 125.3C343.24 125.59 343.68 125.85 344.15 126.07L344.12 127.79C344.79 128.05 345.49 128.24 346.21 128.35L347.05 126.84C347.3 126.86 347.56 126.88 347.82 126.88C348.08 126.88 348.34 126.87 348.59 126.84L349.43 128.35C350.16 128.24 350.86 128.05 351.52 127.79L351.49 126.07C351.96 125.85 352.4 125.59 352.82 125.3L354.3 126.19C354.86 125.73 355.38 125.22 355.83 124.66L354.94 123.18C355.23 122.76 355.49 122.32 355.71 121.85L357.43 121.88C357.69 121.21 357.88 120.51 357.99 119.79L356.48 118.95C356.5 118.7 356.52 118.44 356.52 118.18ZM347.81 124.1C344.54 124.1 341.89 121.45 341.89 118.18C341.89 114.91 344.54 112.26 347.81 112.26C351.08 112.26 353.73 114.91 353.73 118.18C353.73 121.45 351.08 124.1 347.81 124.1Z" fill="white"/>
<path d="M333.73 147.91C333.73 147.52 333.71 147.14 333.68 146.76L335.94 145.51C335.77 144.42 335.48 143.38 335.1 142.38L332.52 142.42C332.19 141.72 331.81 141.05 331.37 140.43L332.7 138.22C332.02 137.38 331.25 136.61 330.41 135.93L328.2 137.26C327.57 136.82 326.91 136.43 326.21 136.11L326.25 133.53C325.25 133.15 324.2 132.86 323.12 132.69L321.87 134.95C321.49 134.92 321.11 134.9 320.72 134.9C320.33 134.9 319.95 134.92 319.57 134.95L318.32 132.69C317.23 132.86 316.19 133.15 315.19 133.53L315.23 136.11C314.53 136.44 313.86 136.82 313.24 137.26L311.03 135.93C310.19 136.61 309.42 137.38 308.74 138.22L310.07 140.43C309.63 141.06 309.24 141.72 308.92 142.42L306.34 142.38C305.96 143.38 305.67 144.43 305.5 145.51L307.76 146.76C307.73 147.14 307.71 147.52 307.71 147.91C307.71 148.3 307.73 148.68 307.76 149.06L305.5 150.31C305.67 151.4 305.96 152.44 306.34 153.44L308.92 153.4C309.25 154.1 309.63 154.77 310.07 155.39L308.74 157.6C309.42 158.44 310.19 159.21 311.03 159.89L313.24 158.56C313.87 159 314.53 159.39 315.23 159.71L315.19 162.29C316.19 162.67 317.24 162.96 318.32 163.13L319.57 160.87C319.95 160.9 320.33 160.92 320.72 160.92C321.11 160.92 321.49 160.9 321.87 160.87L323.12 163.13C324.21 162.96 325.25 162.67 326.25 162.29L326.21 159.71C326.91 159.38 327.58 159 328.2 158.56L330.41 159.89C331.25 159.21 332.02 158.44 332.7 157.6L331.37 155.39C331.81 154.76 332.2 154.1 332.52 153.4L335.1 153.44C335.48 152.44 335.77 151.4 335.94 150.31L333.68 149.06C333.71 148.68 333.73 148.3 333.73 147.91ZM320.69 153.05C317.85 153.05 315.55 150.75 315.55 147.91C315.55 145.07 317.85 142.77 320.69 142.77C323.53 142.77 325.83 145.07 325.83 147.91C325.83 150.75 323.53 153.05 320.69 153.05Z" fill="#002029"/>
<path opacity="0.7" d="M333.73 147.91C333.73 147.52 333.71 147.14 333.68 146.76L335.94 145.51C335.77 144.42 335.48 143.38 335.1 142.38L332.52 142.42C332.19 141.72 331.81 141.05 331.37 140.43L332.7 138.22C332.02 137.38 331.25 136.61 330.41 135.93L328.2 137.26C327.57 136.82 326.91 136.43 326.21 136.11L326.25 133.53C325.25 133.15 324.2 132.86 323.12 132.69L321.87 134.95C321.49 134.92 321.11 134.9 320.72 134.9C320.33 134.9 319.95 134.92 319.57 134.95L318.32 132.69C317.23 132.86 316.19 133.15 315.19 133.53L315.23 136.11C314.53 136.44 313.86 136.82 313.24 137.26L311.03 135.93C310.19 136.61 309.42 137.38 308.74 138.22L310.07 140.43C309.63 141.06 309.24 141.72 308.92 142.42L306.34 142.38C305.96 143.38 305.67 144.43 305.5 145.51L307.76 146.76C307.73 147.14 307.71 147.52 307.71 147.91C307.71 148.3 307.73 148.68 307.76 149.06L305.5 150.31C305.67 151.4 305.96 152.44 306.34 153.44L308.92 153.4C309.25 154.1 309.63 154.77 310.07 155.39L308.74 157.6C309.42 158.44 310.19 159.21 311.03 159.89L313.24 158.56C313.87 159 314.53 159.39 315.23 159.71L315.19 162.29C316.19 162.67 317.24 162.96 318.32 163.13L319.57 160.87C319.95 160.9 320.33 160.92 320.72 160.92C321.11 160.92 321.49 160.9 321.87 160.87L323.12 163.13C324.21 162.96 325.25 162.67 326.25 162.29L326.21 159.71C326.91 159.38 327.58 159 328.2 158.56L330.41 159.89C331.25 159.21 332.02 158.44 332.7 157.6L331.37 155.39C331.81 154.76 332.2 154.1 332.52 153.4L335.1 153.44C335.48 152.44 335.77 151.4 335.94 150.31L333.68 149.06C333.71 148.68 333.73 148.3 333.73 147.91ZM320.69 153.05C317.85 153.05 315.55 150.75 315.55 147.91C315.55 145.07 317.85 142.77 320.69 142.77C323.53 142.77 325.83 145.07 325.83 147.91C325.83 150.75 323.53 153.05 320.69 153.05Z" fill="white"/>
<path d="M296.97 89.93V95.17L291.98 97.8C291.12 98.26 291.12 99.49 291.98 99.95L296.97 102.58V107.82C296.97 108.99 297.92 109.94 299.09 109.94H316.98C318.15 109.94 319.1 108.99 319.1 107.82V89.93C319.1 88.76 318.15 87.81 316.98 87.81H299.09C297.92 87.81 296.97 88.76 296.97 89.93Z" fill="#002029"/>
<g opacity="0.9">
<path d="M303.12 95.38H313.28C313.97 95.38 314.53 94.82 314.53 94.13C314.53 93.44 313.97 92.88 313.28 92.88H303.12C302.43 92.88 301.87 93.44 301.87 94.13C301.87 94.82 302.43 95.38 303.12 95.38Z" fill="white"/>
<path d="M313.29 97.62H303.13C302.44 97.62 301.88 98.18 301.88 98.87C301.88 99.56 302.44 100.12 303.13 100.12H313.29C313.98 100.12 314.54 99.56 314.54 98.87C314.54 98.18 313.98 97.62 313.29 97.62Z" fill="white"/>
<path d="M313.29 102.36H303.13C302.44 102.36 301.88 102.92 301.88 103.61C301.88 104.3 302.44 104.86 303.13 104.86H313.29C313.98 104.86 314.54 104.3 314.54 103.61C314.54 102.92 313.98 102.36 313.29 102.36Z" fill="white"/>
</g>
<path d="M195.9 81.7H200.17L202.37 85.87C203.01 87.08 204.74 87.08 205.37 85.87L207.57 81.7H211.84C213.54 81.7 214.92 80.32 214.92 78.62V62.67C214.92 60.97 213.54 59.59 211.84 59.59H195.89C194.19 59.59 192.81 60.97 192.81 62.67V78.62C192.81 80.32 194.19 81.7 195.89 81.7H195.9Z" fill="#002029"/>
<path opacity="0.9" d="M203.88 64.35L198.96 67.24V75.66H202.62V70H205.15V75.66H208.81V67.24L203.88 64.35Z" fill="white"/>
<path d="M243.8 310.46H239.95L237.49 305.8C236.96 304.8 235.52 304.8 234.99 305.8L232.53 310.46H228.68C226.74 310.46 225.17 312.03 225.17 313.97V329.07C225.17 331.01 226.74 332.58 228.68 332.58H243.78C245.72 332.58 247.29 331.01 247.29 329.07V313.97C247.29 312.03 245.72 310.46 243.78 310.46H243.8Z" fill="#002029"/>
<path opacity="0.9" d="M238.39 316.22C236.26 314.09 232.79 314.09 230.67 316.22C228.54 318.35 228.54 321.81 230.67 323.94C232.56 325.83 235.5 326.04 237.62 324.58C237.66 324.82 237.77 325.06 237.96 325.25L241.35 328.64C241.83 329.12 242.6 329.12 243.08 328.64C243.56 328.16 243.56 327.39 243.08 326.91L239.69 323.52C239.5 323.33 239.27 323.22 239.02 323.18C240.48 321.05 240.27 318.12 238.38 316.23L238.39 316.22ZM237.24 322.79C235.75 324.28 233.32 324.28 231.83 322.79C230.34 321.3 230.34 318.87 231.83 317.37C233.32 315.88 235.75 315.88 237.25 317.37C238.75 318.86 238.74 321.29 237.25 322.79H237.24Z" fill="white"/>
<path d="M405.29 209.9C405.29 209.9 397.14 230.1 389.16 232.29C381.18 234.48 369.15 232.7 369.15 232.7L365.43 233.72L361.78 233.18C361.78 233.18 361.7 233.18 361.65 233.17L357.53 233.08C356.83 233.06 356.44 232.38 356.83 231.84L358.31 229.8C358.43 229.64 358.6 229.52 358.8 229.45L362.72 228.19C362.87 228.14 363.04 228.13 363.2 228.15L369.19 229.1C369.19 229.1 385.84 226.37 387.54 224.83C389.23 223.29 394.25 207.14 394.25 207.14L405.3 209.91L405.29 209.9Z" fill="#EEC1BB"/>
<path opacity="0.1" d="M369.57 229.02C369.32 229.06 369.19 229.08 369.19 229.08L363.2 228.13C363.04 228.11 362.88 228.12 362.72 228.17L358.8 229.43C358.6 229.49 358.43 229.62 358.31 229.78L356.83 231.82C356.44 232.36 356.83 233.04 357.53 233.06L361.65 233.15C361.65 233.15 361.73 233.15 361.78 233.16L364.23 233.52C366.05 232.73 367.86 231.08 369.56 229.01L369.57 229.02Z" fill="black"/>
<path d="M410.21 189.89C404.29 187.95 395.96 192.4 392.77 211.04L405.06 214.63C405.06 214.63 418.67 192.67 410.21 189.9V189.89Z" fill="#002029"/>
<path d="M375.77 165.53C375.77 166.14 376.1 166.64 376.5 166.63C376.9 166.63 377.25 166.1 377.22 165.51C377.2 164.92 376.89 164.4 376.49 164.41C376.09 164.42 375.77 164.92 375.77 165.53Z" fill="#263238"/>
<path d="M378.19 166.14L375.28 170.95C375.28 170.95 376.29 172.09 378.47 171.25L378.19 166.14Z" fill="#D4827D"/>
<path d="M378.74 161.69C378.67 161.77 378.56 161.81 378.45 161.8C377.65 161.66 376.84 161.92 376.26 162.48C376.14 162.61 375.94 162.63 375.81 162.51C375.68 162.39 375.67 162.19 375.78 162.06C376.5 161.32 377.53 160.99 378.54 161.16C378.72 161.18 378.84 161.35 378.81 161.52C378.81 161.58 378.77 161.64 378.73 161.69H378.74Z" fill="#263238"/>
<path d="M399.3 161.17C399.76 169.3 400.12 172.74 396.54 177.36C390.81 182.31 381.04 183.1 378.17 175.27C375.58 168.22 375.27 156.14 382.8 151.95C388.16 148.97 394.93 150.9 397.92 156.26C398.76 157.77 399.23 159.45 399.31 161.17H399.3Z" fill="#EEC1BB"/>
<path d="M387.97 178.96L390.03 191L400.07 188.68L396.56 176.39L387.97 178.96Z" fill="#EEC1BB"/>
<path d="M380.74 161.77C381.25 156.49 379.44 162.59 376.99 155.62C374.54 148.65 386.08 142.99 387.93 144.29C389.77 145.59 388.72 147.59 394.82 148.71C400.92 149.83 400.66 155.76 400.66 155.76C400.66 155.76 404.17 157.39 402.92 164.93C401.67 172.47 396.91 178.17 396.91 178.17C396.91 178.17 394.6 175.79 390.95 177.99C390.95 177.99 389.15 176.98 387.38 174.34C385.73 171.88 385.23 169.55 382.97 169.34C378.24 168.91 380.57 163.51 380.74 161.77Z" fill="#263238"/>
<path d="M399.99 156.68C399.99 156.68 404.97 153.62 402.77 150.41C400.57 147.2 401.63 153.94 399.99 156.68Z" fill="#263238"/>
<path d="M382.17 164.84C381.06 166.08 380.49 167.71 380.58 169.37C380.72 171.57 382.88 171.96 384.58 170.76C386.12 169.67 387.89 167.22 386.91 165.29C385.93 163.36 383.55 163.35 382.17 164.84Z" fill="#FFC3BD"/>
<path opacity="0.1" d="M388.16 180.1L388.98 184.88C388.93 180.51 391.24 178.35 391.24 178.35C388.89 178.7 388.16 180.1 388.16 180.1Z" fill="black"/>
<path d="M317.57 211.18H314.7V228.11H317.57V211.18Z" fill="#002029"/>
<path opacity="0.7" d="M317.57 211.18H314.7V228.11H317.57V211.18Z" fill="white"/>
<path d="M297.85 177.56H290.7C288.02 177.56 285.85 179.73 285.85 182.41V215.53C285.85 218.21 288.02 220.38 290.7 220.38H297.85V177.56Z" fill="#002029"/>
<path d="M341.58 177.56H293.2C290.521 177.56 288.35 179.731 288.35 182.41V215.53C288.35 218.209 290.521 220.38 293.2 220.38H341.58C344.258 220.38 346.43 218.209 346.43 215.53V182.41C346.43 179.731 344.258 177.56 341.58 177.56Z" fill="#002029"/>
<path opacity="0.5" d="M341.58 177.56H293.2C290.521 177.56 288.35 179.731 288.35 182.41V215.53C288.35 218.209 290.521 220.38 293.2 220.38H341.58C344.258 220.38 346.43 218.209 346.43 215.53V182.41C346.43 179.731 344.258 177.56 341.58 177.56Z" fill="white"/>
<path d="M341.58 179.56H293.2C291.626 179.56 290.35 180.836 290.35 182.41V215.53C290.35 217.104 291.626 218.38 293.2 218.38H341.58C343.154 218.38 344.43 217.104 344.43 215.53V182.41C344.43 180.836 343.154 179.56 341.58 179.56Z" fill="#263238"/>
<path d="M305.69 235.21C305.69 229.44 310.37 224.77 316.13 224.77C321.89 224.77 326.57 229.45 326.57 235.21H305.68H305.69Z" fill="#002029"/>
<path d="M330.34 231.64H309.46V235.04H351.23V233.64L330.34 231.64Z" fill="#002029"/>
<path opacity="0.8" d="M330.34 231.64H309.46V235.04H351.23V233.64L330.34 231.64Z" fill="white"/>
<path d="M330.34 235.04H309.46V231.64L330.34 233.64V235.04Z" fill="#002029"/>
<path opacity="0.6" d="M330.34 235.04H309.46V231.64L330.34 233.64V235.04Z" fill="white"/>
<path d="M376.4 351.75H333.3C329.68 351.75 326.75 348.82 326.75 345.2V246.13C326.75 242.51 329.68 239.58 333.3 239.58H376.4C377.37 239.58 378.15 240.36 378.15 241.33C378.15 242.3 377.37 243.08 376.4 243.08H333.3C331.62 243.08 330.25 244.44 330.25 246.13V345.2C330.25 346.88 331.61 348.25 333.3 348.25H376.4C377.37 348.25 378.15 349.03 378.15 350C378.15 350.97 377.37 351.75 376.4 351.75Z" fill="#263238"/>
<g opacity="0.5">
<path d="M376.4 351.75H333.3C329.68 351.75 326.75 348.82 326.75 345.2V246.13C326.75 242.51 329.68 239.58 333.3 239.58H376.4C377.37 239.58 378.15 240.36 378.15 241.33C378.15 242.3 377.37 243.08 376.4 243.08H333.3C331.62 243.08 330.25 244.44 330.25 246.13V345.2C330.25 346.88 331.61 348.25 333.3 348.25H376.4C377.37 348.25 378.15 349.03 378.15 350C378.15 350.97 377.37 351.75 376.4 351.75Z" fill="white"/>
</g>
<path d="M333.14 235.04H271.95V240.17H333.14V235.04Z" fill="#002029"/>
<path opacity="0.2" d="M333.14 235.04H271.95V240.17H333.14V235.04Z" fill="white"/>
<path d="M382.53 235.04H330.34V240.17H382.53V235.04Z" fill="#002029"/>
<path opacity="0.5" d="M382.53 235.04H330.34V240.17H382.53V235.04Z" fill="white"/>
<path d="M364.23 315.4L367.12 344.61H360.2L353.27 316.16L364.23 315.4Z" fill="#EEC1BB"/>
<path d="M359.55 342.71L368.38 342.86C368.71 342.86 369 343.1 369.06 343.43L370.53 350.64C370.67 351.28 370.26 351.91 369.62 352.04C369.54 352.06 369.45 352.07 369.37 352.07C366.19 351.96 363.36 351.74 359.4 351.68C354.72 351.6 355.9 352.18 350.4 352.17C347.09 352.16 346.54 348.38 347.95 348.22C354.39 347.52 355.09 345.59 357.61 343.33C358.16 342.9 358.84 342.68 359.54 342.72L359.55 342.71Z" fill="#263238"/>
<path opacity="0.1" d="M366.37 336.99L364.23 315.4L353.27 316.16L358.34 336.99H366.37Z" fill="black"/>
<path d="M411.61 248.03L383.22 249.05C383.22 249.05 345.03 262.4 343.95 272.71C342.85 283.29 355.69 331.89 355.69 331.89H367.1C367.1 331.89 363.95 296.22 362.75 285.3C361.54 274.38 402.54 278 409.66 268.68C416.21 260.1 411.61 248.03 411.61 248.03Z" fill="#263238"/>
<path opacity="0.2" d="M411.61 248.03L383.22 249.05C383.22 249.05 345.03 262.4 343.95 272.71C342.85 283.29 355.69 331.89 355.69 331.89H367.1C367.1 331.89 363.95 296.22 362.75 285.3C361.54 274.38 402.54 278 409.66 268.68C416.21 260.1 411.61 248.03 411.61 248.03Z" fill="#005269"/>
<path d="M369.05 330.26L369.3 334.29H355.2L353.82 330.26H369.05Z" fill="#002029"/>
<path d="M337.82 316.79L338.58 344.61H331.78L327.75 316.79H337.82Z" fill="#EEC1BB"/>
<path d="M330.84 342.71L339.67 342.86C340 342.86 340.29 343.1 340.35 343.43L341.82 350.64C341.96 351.28 341.55 351.91 340.91 352.04C340.83 352.06 340.74 352.07 340.66 352.07C337.48 351.96 334.65 351.74 330.69 351.68C326.01 351.6 327.19 352.18 321.69 352.17C318.38 352.16 317.83 348.38 319.24 348.22C325.68 347.52 326.38 345.59 328.9 343.33C329.45 342.9 330.13 342.68 330.83 342.72L330.84 342.71Z" fill="#263238"/>
<path opacity="0.1" d="M338.37 336.97L337.82 316.79H327.75L330.68 336.99C332.87 336.99 335.89 336.99 338.38 336.97H338.37Z" fill="black"/>
<path d="M399.27 250.38C399.27 250.38 401.63 271.95 379.67 272.96C357.71 273.97 340.59 276.49 340.09 284.29C339.59 292.1 340.09 331.89 340.09 331.89H328.16C328.16 331.89 323.52 306.74 321.71 291.13C319.95 275.98 316.74 264.99 332.29 259.86C348.82 254.4 378.2 249.36 378.2 249.36L399.36 248.02L399.29 250.37L399.27 250.38Z" fill="#005269"/>
<path d="M341.85 330.26L341.1 334.29H328L326.62 330.26H341.85Z" fill="#002029"/>
<path d="M404.04 188.47C404.04 188.47 404.04 183.6 394.21 184.16C383.78 184.76 385.74 189.42 385.74 189.42L404.04 188.46V188.47Z" fill="#002029"/>
<path opacity="0.3" d="M404.04 188.47C404.04 188.47 404.04 183.6 394.21 184.16C383.78 184.76 385.74 189.42 385.74 189.42L404.04 188.46V188.47Z" fill="black"/>
<path d="M413.16 210.27C412.5 219.88 412.73 248.79 412.73 248.79C412.73 248.79 391.76 250.17 375.25 249.63L373.34 194.02C373.34 192.04 374.57 190.24 376.48 189.49C381.14 187.68 392.08 185.63 409.19 187.87C415.09 188.64 413.94 198.91 413.16 210.27Z" fill="#D64923"/>
<path d="M376.71 209.9C376.71 209.9 368.56 230.1 360.58 232.29C352.6 234.48 340.57 232.7 340.57 232.7L336.85 233.72L333.2 233.18C333.2 233.18 333.12 233.18 333.07 233.17L328.95 233.08C328.25 233.06 327.86 232.38 328.25 231.84L329.73 229.8C329.85 229.64 330.02 229.52 330.22 229.45L334.14 228.19C334.29 228.14 334.46 228.13 334.62 228.15L340.61 229.1C340.61 229.1 357.26 226.37 358.96 224.83C360.65 223.29 365.67 207.14 365.67 207.14L376.72 209.91L376.71 209.9Z" fill="#EEC1BB"/>
<path opacity="0.1" d="M376.5 200.5C376.5 200.5 375.24 202 373.69 204.19L374.24 220.29C380.37 217.59 382.8 201.8 382.8 201.8L378.82 198.98L376.49 200.51L376.5 200.5Z" fill="black"/>
<path d="M381.63 189.89C375.71 187.95 367.38 192.4 364.19 211.04L376.48 214.63C376.48 214.63 390.09 192.67 381.63 189.9V189.89Z" fill="#D64923"/>
<path d="M389.46 283.44H380.21V310.55H389.46V283.44Z" fill="#263238"/>
<path opacity="0.6" d="M389.46 283.44H380.21V310.55H389.46V283.44Z" fill="white"/>
<path d="M390.89 335.11V300.66H378.77V335.11L351.18 338.94V342.77L384.83 339.9L418.48 342.77V338.94L390.89 335.11Z" fill="#263238"/>
<path d="M350.78 352.16C352.796 352.16 354.43 350.526 354.43 348.51C354.43 346.494 352.796 344.86 350.78 344.86C348.764 344.86 347.13 346.494 347.13 348.51C347.13 350.526 348.764 352.16 350.78 352.16Z" fill="#002029"/>
<path d="M418.48 352.16C420.496 352.16 422.13 350.526 422.13 348.51C422.13 346.494 420.496 344.86 418.48 344.86C416.464 344.86 414.83 346.494 414.83 348.51C414.83 350.526 416.464 352.16 418.48 352.16Z" fill="#002029"/>
<path d="M384.83 352.16C386.846 352.16 388.48 350.526 388.48 348.51C388.48 346.494 386.846 344.86 384.83 344.86C382.814 344.86 381.18 346.494 381.18 348.51C381.18 350.526 382.814 352.16 384.83 352.16Z" fill="#002029"/>
<path opacity="0.3" d="M389.46 283.44H380.21V290.14H389.46V283.44Z" fill="black"/>
<path d="M421.4 221.99H391.26C386.35 221.99 382.25 225.73 381.79 230.61L379.25 257.85C378.67 264.05 373.62 268.89 367.4 269.21L338.31 270.68C334.77 270.86 332 273.78 332 277.32V277.93C332 280.97 334.47 283.44 337.51 283.44H426.1L430.87 232.39C431.39 226.81 427 222 421.4 222V221.99Z" fill="#002029"/>
<path opacity="0.3" d="M421.4 221.99H391.26C386.35 221.99 382.25 225.73 381.79 230.61L379.25 257.85C378.67 264.05 373.62 268.89 367.4 269.21L338.31 270.68C334.77 270.86 332 273.78 332 277.32V277.93C332 280.97 334.47 283.44 337.51 283.44H426.1L430.87 232.39C431.39 226.81 427 222 421.4 222V221.99Z" fill="white"/>
<path d="M352.22 252.71H356.37V274.42C356.37 275.52 355.47 276.42 354.37 276.42H354.22C353.12 276.42 352.22 275.52 352.22 274.42V252.71Z" fill="#263238"/>
<path opacity="0.2" d="M352.22 252.71H356.37V274.42C356.37 275.52 355.47 276.42 354.37 276.42H354.22C353.12 276.42 352.22 275.52 352.22 274.42V252.71Z" fill="white"/>
<path d="M372.23 246.44H362.98V254.1H372.23C374.34 254.1 376.06 252.39 376.06 250.27C376.06 248.15 374.35 246.44 372.23 246.44Z" fill="#002029"/>
<path opacity="0.5" d="M372.23 246.44H362.98V254.1H372.23C374.34 254.1 376.06 252.39 376.06 250.27C376.06 248.15 374.35 246.44 372.23 246.44Z" fill="white"/>
<path d="M368.54 246.44H336.21C334.172 246.44 332.52 248.092 332.52 250.13V250.41C332.52 252.448 334.172 254.1 336.21 254.1H368.54C370.578 254.1 372.23 252.448 372.23 250.41V250.13C372.23 248.092 370.578 246.44 368.54 246.44Z" fill="#002029"/>
<path opacity="0.3" d="M368.54 246.44H336.21C334.172 246.44 332.52 248.092 332.52 250.13V250.41C332.52 252.448 334.172 254.1 336.21 254.1H368.54C370.578 254.1 372.23 252.448 372.23 250.41V250.13C372.23 248.092 370.578 246.44 368.54 246.44Z" fill="white"/>
<path d="M428.18 283.44H383.87L388.81 230.62C389.27 225.73 393.37 222 398.28 222H428.42C434.02 222 438.41 226.82 437.89 232.39L433.58 278.53C433.32 281.31 430.98 283.44 428.19 283.44H428.18Z" fill="#002029"/>
<path opacity="0.5" d="M428.18 283.44H383.87L388.81 230.62C389.27 225.73 393.37 222 398.28 222H428.42C434.02 222 438.41 226.82 437.89 232.39L433.58 278.53C433.32 281.31 430.98 283.44 428.19 283.44H428.18Z" fill="white"/>
<path d="M324.67 351.75H281.57C277.95 351.75 275.02 348.82 275.02 345.2V246.13C275.02 242.51 277.95 239.58 281.57 239.58H324.67C325.64 239.58 326.42 240.36 326.42 241.33C326.42 242.3 325.64 243.08 324.67 243.08H281.57C279.89 243.08 278.52 244.44 278.52 246.13V345.2C278.52 346.88 279.88 348.25 281.57 348.25H324.67C325.64 348.25 326.42 349.03 326.42 350C326.42 350.97 325.64 351.75 324.67 351.75Z" fill="#263238"/>
<g opacity="0.5">
<path d="M324.67 351.75H281.57C277.95 351.75 275.02 348.82 275.02 345.2V246.13C275.02 242.51 277.95 239.58 281.57 239.58H324.67C325.64 239.58 326.42 240.36 326.42 241.33C326.42 242.3 325.64 243.08 324.67 243.08H281.57C279.89 243.08 278.52 244.44 278.52 246.13V345.2C278.52 346.88 279.88 348.25 281.57 348.25H324.67C325.64 348.25 326.42 349.03 326.42 350C326.42 350.97 325.64 351.75 324.67 351.75Z" fill="white"/>
</g>
<path d="M296.19 187.45L293.16 185.44C292.84 185.22 292.84 184.75 293.16 184.53L296.19 182.52C296.42 182.37 296.72 182.43 296.87 182.66C297.02 182.89 296.96 183.19 296.73 183.34L294.25 184.99L296.73 186.64C296.96 186.79 297.02 187.1 296.87 187.32C296.72 187.55 296.41 187.61 296.19 187.46V187.45Z" fill="white"/>
<path d="M302.83 187.32C302.68 187.09 302.74 186.79 302.97 186.64L305.45 184.99L302.97 183.34C302.74 183.19 302.68 182.88 302.83 182.66C302.98 182.43 303.29 182.37 303.51 182.52L306.54 184.53C306.87 184.75 306.87 185.22 306.54 185.44L303.51 187.45C303.28 187.6 302.98 187.54 302.83 187.31V187.32Z" fill="white"/>
<path d="M298.72 188.63C298.46 188.55 298.32 188.27 298.4 188.01L300.47 181.47C300.55 181.21 300.83 181.07 301.09 181.15C301.35 181.23 301.49 181.51 301.41 181.77L299.34 188.31C299.26 188.57 298.98 188.71 298.72 188.63Z" fill="white"/>
<path d="M315.7 193.67H293.43C293.14 193.67 292.91 193.44 292.91 193.15C292.91 192.86 293.14 192.63 293.43 192.63H315.7C315.99 192.63 316.22 192.86 316.22 193.15C316.22 193.44 315.99 193.67 315.7 193.67Z" fill="white"/>
<path d="M341.28 193.67H319.01C318.72 193.67 318.49 193.44 318.49 193.15C318.49 192.86 318.72 192.63 319.01 192.63H341.28C341.57 192.63 341.8 192.86 341.8 193.15C341.8 193.44 341.57 193.67 341.28 193.67Z" fill="white"/>
<path d="M306.16 198.25H293.44C293.15 198.25 292.92 198.02 292.92 197.73C292.92 197.44 293.15 197.21 293.44 197.21H306.16C306.45 197.21 306.68 197.44 306.68 197.73C306.68 198.02 306.45 198.25 306.16 198.25Z" fill="white"/>
<path d="M330.32 198.25H309.48C309.19 198.25 308.96 198.02 308.96 197.73C308.96 197.44 309.19 197.21 309.48 197.21H330.32C330.61 197.21 330.84 197.44 330.84 197.73C330.84 198.02 330.61 198.25 330.32 198.25Z" fill="white"/>
<path d="M327.35 202.83H293.43C293.14 202.83 292.91 202.6 292.91 202.31C292.91 202.02 293.14 201.79 293.43 201.79H327.35C327.64 201.79 327.87 202.02 327.87 202.31C327.87 202.6 327.64 202.83 327.35 202.83Z" fill="white"/>
<path d="M337.75 202.83H330.67C330.38 202.83 330.15 202.6 330.15 202.31C330.15 202.02 330.38 201.79 330.67 201.79H337.75C338.04 201.79 338.27 202.02 338.27 202.31C338.27 202.6 338.04 202.83 337.75 202.83Z" fill="white"/>
<path d="M309.27 207.42H293.43C293.14 207.42 292.91 207.19 292.91 206.9C292.91 206.61 293.14 206.38 293.43 206.38H309.27C309.56 206.38 309.79 206.61 309.79 206.9C309.79 207.19 309.56 207.42 309.27 207.42Z" fill="white"/>
<path d="M332.3 207.42H312.58C312.29 207.42 312.06 207.19 312.06 206.9C312.06 206.61 312.29 206.38 312.58 206.38H332.3C332.59 206.38 332.82 206.61 332.82 206.9C332.82 207.19 332.59 207.42 332.3 207.42Z" fill="white"/>
<path d="M315.7 212H293.43C293.14 212 292.91 211.77 292.91 211.48C292.91 211.19 293.14 210.96 293.43 210.96H315.7C315.99 210.96 316.22 211.19 316.22 211.48C316.22 211.77 315.99 212 315.7 212Z" fill="white"/>
<path d="M334.73 212H319.02C318.73 212 318.5 211.77 318.5 211.48C318.5 211.19 318.73 210.96 319.02 210.96H334.73C335.02 210.96 335.25 211.19 335.25 211.48C335.25 211.77 335.02 212 334.73 212Z" fill="white"/>
<path d="M141.47 122.49C141.88 127.2 140.86 135.73 137.3 138.46C143.1 140.55 149.23 144.15 153.16 148.9C157.05 143.24 152.62 140.01 152.62 140.01C147.61 138.23 148.16 134.44 149.44 130.95L141.46 122.49H141.47Z" fill="#B97964"/>
<path d="M160.4 118.43C160.34 119.02 160.62 119.53 161.01 119.57C161.4 119.61 161.76 119.15 161.81 118.56C161.87 117.97 161.59 117.45 161.2 117.42C160.81 117.38 160.47 117.84 160.4 118.43Z" fill="#263238"/>
<path d="M161.05 117.43L162.51 117.15C162.51 117.15 161.68 118.23 161.05 117.43Z" fill="#263238"/>
<path d="M160.6 119.06C161.01 120.46 161.6 121.8 162.37 123.04C161.72 123.42 160.93 123.5 160.22 123.24L160.61 119.05L160.6 119.06Z" fill="#A24E3F"/>
<path d="M162.08 115.31C162.17 115.3 162.26 115.26 162.32 115.19C162.44 115.04 162.43 114.82 162.28 114.69C161.45 113.93 160.3 113.62 159.19 113.87C159.02 113.97 158.97 114.19 159.07 114.35C159.13 114.46 159.25 114.52 159.37 114.52C160.25 114.35 161.15 114.6 161.81 115.21C161.88 115.28 161.97 115.32 162.07 115.32L162.08 115.31Z" fill="#263238"/>
<path d="M140.97 114.67C140.74 121.99 140.49 125.1 143.75 129.17C148.66 135.3 157.55 133.96 159.92 126.84C162.06 120.43 162.08 109.52 155.36 105.97C148.63 102.43 141.21 107.33 140.97 114.67Z" fill="#B97964"/>
<path d="M141.32 128.48C134.13 127.25 136.19 122.72 136.19 122.72C129.11 121.29 134.58 117.83 134.58 117.83C128.69 115.29 134.58 113.02 134.58 113.02C128.9 108.31 137.04 106.71 137.04 106.71C135.03 99.36 142.01 102.38 142.01 102.38C145.82 96.07 149.09 102.1 149.09 102.1C155.75 93.05 157.38 100.69 157.38 100.69C164.18 98.9 161.57 106.06 161.57 106.06C167.17 107.56 162.78 110.4 162.78 110.4C164.94 113.13 157.13 113.6 157.13 113.6C157.13 113.6 160.85 119.56 157.1 121.25L147.64 128.5C147.64 128.5 143.3 126.69 141.33 128.5L141.32 128.48Z" fill="#263238"/>
<path d="M148.39 122.58C148.39 122.58 153.34 110.61 149.48 100.34L152.78 99.21C152.78 99.21 157.09 114.1 148.38 122.58H148.39Z" fill="#002029"/>
<path d="M153.38 121.26C154.21 122.98 154.52 123.72 155.7 124.3C156.74 124.88 158.05 124.51 158.63 123.48C158.9 123.01 158.97 122.45 158.85 121.92C158.54 120.2 157.21 117.67 155.39 117.61C153.56 117.56 152.53 119.56 153.39 121.26H153.38Z" fill="#B97964"/>
<path d="M148.21 146.24C148.21 146.24 154.98 151.21 157.73 153.21L177.32 143.97C177.27 141.75 178.58 139.72 180.63 138.85L182.02 138.26L184.97 136.95C186.09 136.45 187.39 136.59 188.38 137.31C189.55 138.16 190.06 139.66 189.65 141.05C188.81 143.91 186.53 146.12 183.65 146.87L180.79 147.62C180.79 147.62 163.99 160.37 158.01 160.7C152.03 161.03 143.22 155.11 143.22 155.11L148.2 146.23L148.21 146.24Z" fill="#B97964"/>
<path d="M131.93 137.81C137.1 137.79 142.88 141.03 151.98 146.93C151.98 146.93 150.26 153.4 144.97 158.01C144.97 158.01 139.98 156.67 133.34 150.41C125.3 142.84 128.77 137.82 131.94 137.8L131.93 137.81Z" fill="#263238"/>
<path d="M230.13 152.79H181.14C179.36 152.79 178.05 151.35 178.2 149.57L181.89 107.38C182.05 105.6 183.61 104.16 185.39 104.16H234.38C236.16 104.16 237.47 105.6 237.32 107.38L233.63 149.57C233.47 151.35 231.91 152.79 230.13 152.79Z" fill="#002029"/>
<path opacity="0.4" d="M230.13 152.79H181.14C179.36 152.79 178.05 151.35 178.2 149.57L181.89 107.38C182.05 105.6 183.61 104.16 185.39 104.16H234.38C236.16 104.16 237.47 105.6 237.32 107.38L233.63 149.57C233.47 151.35 231.91 152.79 230.13 152.79Z" fill="white"/>
<path opacity="0.7" d="M230.31 150.79C230.98 150.79 231.58 150.24 231.64 149.57L235.33 107.38C235.39 106.71 234.89 106.16 234.22 106.16H185.23C184.56 106.16 183.96 106.71 183.9 107.38L180.21 149.57C180.15 150.24 180.65 150.79 181.32 150.79H230.31Z" fill="white"/>
<path d="M196.26 125.98L180.24 149.15L180.2 149.57C180.14 150.24 180.64 150.79 181.31 150.79H209.07L196.26 125.98Z" fill="#002029"/>
<path opacity="0.3" d="M196.26 125.98L180.24 149.15L180.2 149.57C180.14 150.24 180.64 150.79 181.31 150.79H209.07L196.26 125.98Z" fill="white"/>
<path d="M231.77 147.95L218.36 122.48L198.5 150.79H230.31C230.98 150.79 231.58 150.24 231.64 149.57L231.78 147.95H231.77Z" fill="#002029"/>
<path d="M213.18 117.98C212.96 120.47 210.77 122.48 208.28 122.48C205.79 122.48 203.95 120.46 204.17 117.98C204.39 115.49 206.58 113.48 209.07 113.48C211.56 113.48 213.4 115.5 213.18 117.98Z" fill="#002029"/>
<path opacity="0.4" d="M213.18 117.98C212.96 120.47 210.77 122.48 208.28 122.48C205.79 122.48 203.95 120.46 204.17 117.98C204.39 115.49 206.58 113.48 209.07 113.48C211.56 113.48 213.4 115.5 213.18 117.98Z" fill="white"/>
<path d="M90.9002 323.04L85.9202 337.8L93.5502 340.91L99.5202 327.29L90.9002 323.04Z" fill="#B97964"/>
<path d="M96.2902 340.54C96.2102 340.5 96.1702 340.41 96.1702 340.32C96.1802 340.23 96.2502 340.15 96.3402 340.13C96.5002 340.09 100.1 339.29 101.44 340.15C101.69 340.31 101.87 340.55 101.94 340.84C102.05 341.17 101.94 341.53 101.68 341.75C101.17 342.11 99.9802 341.96 98.8902 341.62C97.9902 341.34 97.1202 340.98 96.2802 340.54H96.2902ZM97.0502 340.47C98.6202 341.18 100.84 341.85 101.42 341.4C101.5 341.35 101.59 341.24 101.52 340.93C101.48 340.75 101.37 340.6 101.2 340.51C101.08 340.43 100.95 340.37 100.82 340.34C99.5702 340.14 98.2902 340.19 97.0502 340.47Z" fill="#002029"/>
<path d="M96.18 340.5C96.13 340.44 96.12 340.36 96.14 340.28C96.19 340.17 97.15 337.88 98.55 337.3C98.96 337.13 99.41 337.13 99.82 337.3C100.38 337.53 100.46 337.88 100.41 338.12C100.29 339.17 97.59 340.42 96.4 340.56C96.37 340.56 96.34 340.56 96.31 340.54C96.26 340.54 96.21 340.52 96.17 340.49L96.18 340.5ZM99.56 337.66C99.3 337.58 99.01 337.59 98.76 337.7C97.87 338.25 97.17 339.07 96.76 340.03C98.05 339.72 99.89 338.66 100.02 338.05C100.02 337.99 100.04 337.83 99.68 337.69L99.56 337.66Z" fill="#002029"/>
<path d="M95.7701 339.04L86.1901 336.08C85.8301 335.97 85.4401 336.12 85.2501 336.45L81.1101 343.71C80.7401 344.35 80.9601 345.17 81.6001 345.54C81.6801 345.59 81.7701 345.63 81.8601 345.66C85.3301 346.67 88.4601 347.43 92.7601 348.76C97.8401 350.33 96.3601 350.54 102.3 352.47C105.88 353.63 107.8 349.74 106.34 349.07C99.6301 346.04 99.5601 343.71 97.6401 340.38C97.2001 339.72 96.5401 339.24 95.7701 339.04Z" fill="#263238"/>
<path opacity="0.2" d="M88.51 330.12L96.51 334.16L99.52 327.29L90.9 323.04L88.51 330.12Z" fill="#263238"/>
<path d="M124.72 186.52C124.72 186.52 113.97 194.73 116.27 220.45C116.48 222.83 117.25 225.32 117.26 228.04C117.26 229.85 116.76 231.12 116.17 235.18C115.31 241.11 113.73 263.18 112.06 266.05C110.41 268.89 109.71 268.42 105.02 276.33C99.97 284.85 93.52 299.79 88.5 325.12C88.5 325.12 92.87 328.53 99.73 329.82C99.73 329.82 127.2 286.5 133.04 270.37C138.26 255.94 144.49 209.89 144.49 209.89L144.99 189.92L124.7 186.5L124.72 186.52Z" fill="#005269"/>
<path opacity="0.1" d="M136.48 220.45H128.69C128.69 220.45 126.13 244.93 134.59 265.35C135.47 262.07 136.37 258.14 137.24 253.89L140.6 232.33C140.12 228.69 139.75 225.91 139.69 225.73C139.52 225.16 136.47 220.45 136.47 220.45H136.48Z" fill="black"/>
<path d="M135.2 328.98L135.25 344.67L144.1 344.07L145.46 328.98H135.2Z" fill="#B97964"/>
<path d="M145.12 343.81C145.03 343.79 144.96 343.73 144.94 343.64C144.92 343.55 144.96 343.46 145.04 343.41C145.18 343.32 148.32 341.38 149.86 341.75C150.15 341.81 150.4 341.99 150.56 342.23C150.78 342.5 150.8 342.88 150.61 343.18C150.25 343.68 149.08 343.94 147.94 343.98C147 344.01 146.05 343.96 145.12 343.82V343.81ZM145.81 343.49C147.53 343.64 149.84 343.54 150.25 342.93C150.31 342.85 150.36 342.72 150.19 342.46C150.1 342.3 149.93 342.2 149.75 342.17C149.61 342.14 149.47 342.12 149.33 342.13C148.08 342.36 146.89 342.82 145.81 343.49Z" fill="#002029"/>
<path d="M145.01 343.8C144.94 343.76 144.9 343.69 144.91 343.61C144.91 343.49 145.07 341.01 146.21 340.01C146.54 339.71 146.97 339.56 147.41 339.6C148.01 339.64 148.21 339.93 148.24 340.18C148.47 341.21 146.34 343.28 145.26 343.8C145.23 343.81 145.2 343.82 145.17 343.81C145.12 343.83 145.07 343.83 145.02 343.81L145.01 343.8ZM147.27 340.01C146.99 340.01 146.73 340.12 146.53 340.31C145.87 341.13 145.48 342.12 145.41 343.17C146.52 342.46 147.92 340.85 147.84 340.23C147.82 340.17 147.79 340.02 147.4 340L147.28 340.02L147.27 340.01Z" fill="#002029"/>
<path d="M144.14 342.56L134.12 342.92C133.74 342.93 133.42 343.21 133.35 343.58L131.83 351.8C131.69 352.53 132.17 353.23 132.89 353.37C132.98 353.39 133.08 353.4 133.17 353.39C136.78 353.2 139.99 352.89 144.49 352.73C149.8 352.54 148.47 353.23 154.72 353.09C158.48 353.01 159.02 348.71 157.42 348.55C150.09 347.89 149.25 345.72 146.34 343.2C145.71 342.72 144.93 342.49 144.14 342.55V342.56Z" fill="#263238"/>
<path opacity="0.2" d="M135.23 337.09L144.75 336.89L145.46 328.98H135.2L135.23 337.09Z" fill="#263238"/>
<path d="M130.71 183.64C130.71 183.64 119.98 197.85 127.93 225.67L136.9 266.25C136.9 266.25 128.36 284.71 132.87 333.41C132.87 333.41 139.65 334.5 146.12 333.11C146.12 333.11 156.11 281.68 157.63 264.3C159.3 245.17 158.3 187.47 158.3 187.47L130.72 183.62L130.71 183.64Z" fill="#005269"/>
<path d="M137.19 137.61C137.19 137.61 135.53 130.51 146.18 133.61C156.84 136.72 155.95 142.79 155.95 142.79L137.19 137.61Z" fill="#263238"/>
<path opacity="0.4" d="M137.19 137.61C137.19 137.61 135.53 130.51 146.18 133.61C156.84 136.72 155.95 142.79 155.95 142.79L137.19 137.61Z" fill="black"/>
<path d="M163.63 155.37C163.63 157.86 162.58 161.46 161.64 165.49C161.18 167.4 160.76 169.39 160.48 171.41C158.97 182.42 158.48 194 158.48 194C158.48 194 141.06 198.89 124.14 187.19C124.14 187.19 128.33 183.64 127.47 159.05C127.08 147.97 123.08 134.8 141.39 136.87C156.85 138.62 162.05 143.42 163.3 150.93C163.3 151.02 163.33 151.12 163.35 151.22C163.38 151.45 163.41 151.68 163.44 151.92C163.57 153.01 163.63 154.17 163.63 155.37Z" fill="#D64923"/>
<path opacity="0.4" d="M163.63 155.37C163.63 157.86 162.58 161.46 161.64 165.49C157.46 160.46 153.27 151.04 153.27 151.04L156.72 145.96L162.8 148.79C163.01 149.48 163.17 150.19 163.3 150.93C163.3 151.02 163.33 151.12 163.35 151.22C163.38 151.45 163.41 151.68 163.44 151.92C163.57 153.01 163.63 154.17 163.63 155.37Z" fill="black"/>
<path d="M169.95 151.02C169.95 151.02 175.9 156.94 178.32 159.33L199.06 153.11C199.34 150.9 200.94 149.09 203.09 148.54L204.56 148.17L207.68 147.31C208.86 146.98 210.13 147.31 211 148.17C212.03 149.19 212.31 150.74 211.7 152.06C210.44 154.76 207.86 156.61 204.9 156.93L201.96 157.25C201.96 157.25 183.44 167.36 177.48 166.8C171.52 166.24 163.69 159.07 163.69 159.07L169.94 151.03L169.95 151.02Z" fill="#B97964"/>
<path d="M155.1 140.26C160.22 141.01 165.45 145.08 173.57 152.26C173.57 152.26 170.91 158.4 164.99 162.18C164.99 162.18 160.25 160.11 154.62 152.94C147.8 144.26 151.97 139.81 155.11 140.27L155.1 140.26Z" fill="#D64923"/>
</g>
<defs>
<clipPath id="clip0_443_5812">
<rect width="500" height="368.76" fill="white" transform="translate(0 0.619995)"/>
</clipPath>
</defs>
</svg>
