<svg width="320" height="421" viewBox="0 0 320 421" fill="none" xmlns="http://www.w3.org/2000/svg">
<g opacity="0.2">
<rect x="305.344" y="411.229" width="78.1679" height="73.2824" rx="8" transform="rotate(180 305.344 411.229)" fill="white"/>
<rect x="29.313" y="421" width="29.313" height="31.7557" rx="8" transform="rotate(180 29.313 421)" fill="white"/>
<rect x="97.7099" y="259.779" width="24.4275" height="26.4631" rx="8" transform="rotate(180 97.7099 259.779)" fill="white"/>
<rect x="317.557" y="98.5573" width="24.4275" height="26.4631" rx="8" transform="rotate(180 317.557 98.5573)" fill="white"/>
<rect x="317.557" y="306.191" width="24.4275" height="26.4631" rx="8" transform="rotate(180 317.557 306.191)" fill="white"/>
<rect x="178.321" y="298.863" width="24.4275" height="24.4275" rx="8" transform="rotate(180 178.321 298.863)" fill="white"/>
<rect x="256.489" y="362.374" width="58.626" height="54.9618" rx="8" transform="rotate(180 256.489 362.374)" fill="#E73900"/>
<rect x="183.206" y="416.115" width="39.084" height="36.6412" rx="8" transform="rotate(180 183.206 416.115)" fill="#E73900"/>
<rect x="109.924" y="421" width="58.626" height="54.9618" rx="8" transform="rotate(180 109.924 421)" fill="#E73900"/>
<rect x="73.2824" y="320.847" width="29.313" height="27.4809" rx="8" transform="rotate(180 73.2824 320.847)" fill="#E73900"/>
<rect x="158.779" y="269.55" width="39.084" height="36.6412" rx="8" transform="rotate(180 158.779 269.55)" fill="#E73900"/>
<rect x="244.275" y="193.824" width="29.313" height="27.4809" rx="8" transform="rotate(180 244.275 193.824)" fill="#E73900"/>
<rect x="251.603" y="142.527" width="24.4275" height="22.9008" rx="8" transform="rotate(180 251.603 142.527)" fill="#E73900"/>
<rect x="302.901" y="223.137" width="29.313" height="27.4809" rx="8" transform="rotate(180 302.901 223.137)" fill="#E73900"/>
<rect x="320" y="37.4886" width="39.084" height="36.6412" rx="8" transform="rotate(180 320 37.4886)" fill="#E73900"/>
<rect x="266.26" y="295.198" width="78.1679" height="73.2824" rx="8" transform="rotate(180 266.26 295.198)" fill="#005269"/>
<rect x="173.435" y="355.046" width="39.084" height="36.6412" rx="8" transform="rotate(180 173.435 355.046)" fill="#005269"/>
<rect x="141.679" y="304.969" width="19.542" height="18.3206" rx="8" transform="rotate(180 141.679 304.969)" fill="#005269"/>
<rect x="197.863" y="206.038" width="19.542" height="18.3206" rx="8" transform="rotate(180 197.863 206.038)" fill="#005269"/>
<rect x="190.534" y="153.519" width="39.084" height="36.6412" rx="8" transform="rotate(180 190.534 153.519)" fill="#005269"/>
<rect x="320" y="187.718" width="39.084" height="36.6412" rx="8" transform="rotate(180 320 187.718)" fill="#005269"/>
<rect x="261.374" y="76.5725" width="29.313" height="27.4809" rx="8" transform="rotate(180 261.374 76.5725)" fill="#005269"/>
</g>
</svg>
