<svg width="500" height="444" viewBox="0 0 500 444" fill="none" xmlns="http://www.w3.org/2000/svg">
<g clip-path="url(#clip0_443_6151)">
<path d="M303.99 69.395C301.71 72.865 300.18 76.685 299.36 80.615L293.09 81.205V93.345L299.36 93.935C300.18 97.865 301.71 101.685 303.99 105.155L299.99 109.995L308.57 118.575L313.41 114.575C316.88 116.855 320.7 118.385 324.63 119.205L325.22 125.475H337.36L337.95 119.205C341.89 118.385 345.7 116.855 349.17 114.575L354.01 118.575L362.59 109.995L358.59 105.155C360.87 101.685 362.4 97.865 363.22 93.935L369.49 93.345V81.205L363.22 80.615C362.4 76.685 360.87 72.865 358.59 69.395L362.59 64.555L354.01 55.975L349.17 59.975C345.7 57.695 341.88 56.155 337.95 55.345L337.36 49.075H325.22L324.63 55.345C320.7 56.165 316.88 57.695 313.41 59.975L308.57 55.975L299.99 64.555L303.99 69.395ZM345.22 73.345C352.92 81.045 352.92 93.525 345.22 101.215C337.52 108.915 325.04 108.915 317.35 101.215C309.65 93.515 309.65 81.035 317.35 73.345C325.05 65.645 337.53 65.645 345.22 73.345Z" fill="#F0F0F0"/>
<path d="M269.88 0.494995H184.18C181.452 0.494995 179.24 2.70671 179.24 5.435V71.015C179.24 73.7433 181.452 75.955 184.18 75.955H269.88C272.608 75.955 274.82 73.7433 274.82 71.015V5.435C274.82 2.70671 272.608 0.494995 269.88 0.494995Z" fill="#407BFF"/>
<path d="M183.86 0.494995H270.27C272.78 0.494995 274.82 2.535 274.82 5.045V13.655H179.24V5.125C179.24 2.575 181.31 0.494995 183.87 0.494995H183.86Z" fill="#8CADF9"/>
<path opacity="0.5" d="M269.75 8.03498C269.75 9.62498 268.46 10.905 266.88 10.905C265.3 10.905 264.01 9.61498 264.01 8.03498C264.01 6.45498 265.3 5.16498 266.88 5.16498C268.46 5.16498 269.75 6.45498 269.75 8.03498Z" fill="#4D4D4D"/>
<path opacity="0.5" d="M261.59 8.03498C261.59 9.62498 260.3 10.905 258.72 10.905C257.14 10.905 255.85 9.61498 255.85 8.03498C255.85 6.45498 257.14 5.16498 258.72 5.16498C260.3 5.16498 261.59 6.45498 261.59 8.03498Z" fill="#4D4D4D"/>
<path opacity="0.5" d="M250.55 10.905C252.135 10.905 253.42 9.62004 253.42 8.03498C253.42 6.44992 252.135 5.16498 250.55 5.16498C248.965 5.16498 247.68 6.44992 247.68 8.03498C247.68 9.62004 248.965 10.905 250.55 10.905Z" fill="#4D4D4D"/>
<path opacity="0.6" d="M252.32 24.655H201.18V27.335H252.32V24.655Z" fill="#407BFF"/>
<path d="M238.56 30.445H201.97V33.125H238.56V30.445Z" fill="#8CADF9"/>
<path d="M266.19 24.655H256.84V27.335H266.19V24.655Z" fill="#F0F0F0"/>
<path d="M197.63 24.655H187.57V27.335H197.63V24.655Z" fill="#F0F0F0"/>
<path d="M252.32 36.885H201.18V39.565H252.32V36.885Z" fill="#F0F0F0"/>
<path opacity="0.6" d="M266.19 36.885H256.84V39.565H266.19V36.885Z" fill="#407BFF"/>
<path d="M197.63 36.885H187.57V39.565H197.63V36.885Z" fill="#F0F0F0"/>
<path opacity="0.6" d="M252.32 62.385H201.18V65.065H252.32V62.385Z" fill="#407BFF"/>
<path opacity="0.6" d="M266.19 62.385H256.84V65.065H266.19V62.385Z" fill="#407BFF"/>
<path d="M252.32 43.335H201.18V46.015H252.32V43.335Z" fill="#F0F0F0"/>
<path d="M266.19 43.335H256.84V46.015H266.19V43.335Z" fill="#8CADF9"/>
<path d="M197.63 43.335H187.57V46.015H197.63V43.335Z" fill="#8CADF9"/>
<path d="M266.88 30.555H242.57V33.235H266.88V30.555Z" fill="#F0F0F0"/>
<path opacity="0.6" d="M237.77 48.955H201.18V51.635H237.77V48.955Z" fill="#407BFF"/>
<path d="M266.08 49.065H241.77V51.745H266.08V49.065Z" fill="#F0F0F0"/>
<path d="M219.48 54.785H201.18V57.465H219.48V54.785Z" fill="#8CADF9"/>
<path d="M400.3 53.525L389.47 58.585L400.3 63.645V67.725L385.83 60.705V56.465L400.3 49.445V53.525Z" fill="#E0E0E0"/>
<path d="M433.27 56.465V60.705L418.8 67.725V63.645L429.63 58.585L418.8 53.525V49.445L433.27 56.465Z" fill="#E0E0E0"/>
<path d="M412.08 46.605L405.02 71.005H408.55L415.61 46.605H412.08Z" fill="#E0E0E0"/>
<path d="M37.36 184.105C36.03 186.135 35.13 188.365 34.65 190.665L30.99 191.005V198.095L34.65 198.445C35.13 200.745 36.02 202.975 37.36 205.005L35.02 207.825L40.03 212.835L42.85 210.495C44.88 211.825 47.11 212.725 49.41 213.195L49.75 216.855H56.84L57.18 213.195C59.48 212.715 61.71 211.825 63.74 210.485L66.56 212.825L71.57 207.815L69.23 204.995C70.56 202.965 71.46 200.735 71.93 198.435L75.59 198.095V191.005L71.93 190.655C71.45 188.355 70.56 186.125 69.22 184.105L71.56 181.285L66.55 176.275L63.73 178.615C61.7 177.285 59.47 176.385 57.17 175.905L56.82 172.245H49.73L49.39 175.905C47.09 176.385 44.86 177.275 42.83 178.615L40.01 176.275L35 181.285L37.34 184.105H37.36ZM61.44 186.415C65.93 190.915 65.94 198.195 61.44 202.695C56.94 207.195 49.66 207.195 45.16 202.695C40.66 198.195 40.66 190.915 45.16 186.415C49.66 181.915 56.94 181.915 61.44 186.415Z" fill="#E0E0E0"/>
<path d="M439.11 101.585C438 103.265 437.26 105.115 436.86 107.025L433.82 107.315V113.205L436.86 113.495C437.26 115.405 438 117.255 439.11 118.935L437.17 121.275L441.33 125.435L443.67 123.495C445.35 124.605 447.2 125.345 449.11 125.745L449.4 128.785H455.29L455.58 125.745C457.49 125.345 459.34 124.605 461.02 123.495L463.36 125.435L467.52 121.275L465.58 118.935C466.69 117.255 467.43 115.405 467.83 113.495L470.87 113.205V107.315L467.83 107.025C467.43 105.115 466.69 103.265 465.58 101.585L467.52 99.245L463.36 95.085L461.02 97.025C459.34 95.915 457.49 95.175 455.58 94.775L455.29 91.735H449.4L449.11 94.775C447.2 95.175 445.35 95.915 443.67 97.025L441.33 95.085L437.17 99.245L439.11 101.585ZM459.11 103.495C462.84 107.225 462.84 113.275 459.11 117.015C455.38 120.745 449.33 120.745 445.59 117.015C441.85 113.285 441.86 107.235 445.59 103.495C449.32 99.765 455.37 99.765 459.11 103.495Z" fill="#E0E0E0"/>
<path d="M470.61 392.735H435.76V392.995H470.61V392.735Z" fill="#EBEBEB"/>
<path d="M345.75 395.595H336.6V395.855H345.75V395.595Z" fill="#EBEBEB"/>
<path d="M434.7 382.965H414.51V383.225H434.7V382.965Z" fill="#EBEBEB"/>
<path d="M97.9 384.735H52.46V384.995H97.9V384.735Z" fill="#EBEBEB"/>
<path d="M113.93 384.735H107.27V384.995H113.93V384.735Z" fill="#EBEBEB"/>
<path d="M234.15 389.175H135.59V389.435H234.15V389.175Z" fill="#EBEBEB"/>
<path d="M443.92 315.405H263.17C259.94 315.405 257.31 312.775 257.31 309.545V46.275C257.31 43.045 259.94 40.415 263.17 40.415H443.92C447.15 40.415 449.78 43.045 449.78 46.275V309.545C449.78 312.775 447.15 315.405 443.92 315.405ZM263.17 40.665C260.08 40.665 257.56 43.185 257.56 46.275V309.545C257.56 312.635 260.08 315.155 263.17 315.155H443.92C447.01 315.155 449.53 312.635 449.53 309.545V46.275C449.53 43.185 447.01 40.665 443.92 40.665H263.17Z" fill="#E0E0E0"/>
<path d="M235.49 315.405H54.75C51.52 315.405 48.89 312.775 48.89 309.545V46.275C48.89 43.045 51.52 40.415 54.75 40.415H235.5C238.73 40.415 241.36 43.045 241.36 46.275V309.545C241.36 312.775 238.73 315.405 235.5 315.405H235.49ZM54.75 40.665C51.66 40.665 49.14 43.185 49.14 46.275V309.545C49.14 312.635 51.66 315.155 54.75 315.155H235.5C238.59 315.155 241.11 312.635 241.11 309.545V46.275C241.11 43.185 238.59 40.665 235.5 40.665H54.75Z" fill="#E0E0E0"/>
<path d="M500 376.475H0V376.725H500V376.475Z" fill="#E0E0E0"/>
<path d="M455.06 413.755C455.06 417.145 361.54 419.885 246.19 419.885C130.84 419.885 37.3199 417.135 37.3199 413.755C37.3199 410.375 130.84 407.625 246.19 407.625C361.54 407.625 455.06 410.375 455.06 413.755Z" fill="#F5F5F5"/>
<path d="M94.51 87.275H118.14V319.805H92.72C88.68 319.805 85.4 316.525 85.4 312.485V96.385C85.4 91.355 89.48 87.275 94.51 87.275Z" fill="#263238"/>
<path d="M215.62 315.795L205.22 369.085H220.31L232.35 316.235L215.62 315.795Z" fill="#263238"/>
<path d="M200.17 368.445H192.53V376.085H200.17V368.445Z" fill="#263238"/>
<path opacity="0.5" d="M94.51 87.275H118.14V319.805H92.72C88.68 319.805 85.4 316.525 85.4 312.485V96.385C85.4 91.355 89.48 87.275 94.51 87.275Z" fill="white"/>
<path opacity="0.5" d="M215.62 315.795L205.22 369.085H220.31L232.35 316.235L215.62 315.795Z" fill="white"/>
<path opacity="0.5" d="M200.17 368.445H192.53V376.085H200.17V368.445Z" fill="white"/>
<path d="M310.38 376.095H213.46L227.23 295.335H291.73L310.38 376.095Z" fill="#263238"/>
<path opacity="0.7" d="M310.38 376.095H213.46L227.23 295.335H291.73L310.38 376.095Z" fill="white"/>
<path opacity="0.1" d="M297.34 319.805H223.02L220.31 335.715L299.51 329.175L297.34 319.805Z" fill="black"/>
<path d="M323.66 368.445H198.03V376.085H323.66V368.445Z" fill="#263238"/>
<g opacity="0.7">
<path d="M323.66 368.445H198.03V376.085H323.66V368.445Z" fill="white"/>
</g>
<path d="M101.23 87.275H415.47C419.91 87.275 423.51 90.935 423.51 95.445V311.625C423.51 316.135 419.91 319.795 415.47 319.795H101.23C96.7901 319.795 93.1901 316.135 93.1901 311.625V95.445C93.1901 90.935 96.7901 87.275 101.23 87.275Z" fill="#263238"/>
<g opacity="0.7">
<path d="M101.23 87.275H415.47C419.91 87.275 423.51 90.935 423.51 95.445V311.625C423.51 316.135 419.91 319.795 415.47 319.795H101.23C96.7901 319.795 93.1901 316.135 93.1901 311.625V95.445C93.1901 90.935 96.7901 87.275 101.23 87.275Z" fill="white"/>
</g>
<path d="M414.73 95.275H100.55V303.735H414.73V95.275Z" fill="#D64923"/>
<path opacity="0.9" d="M414.73 95.275H100.55V303.735H414.73V95.275Z" fill="white"/>
<path d="M414.73 95.275H100.55V112.005H414.73V95.275Z" fill="#D64923"/>
<path opacity="0.5" d="M410.55 103.645C410.55 105.605 408.96 107.205 406.99 107.205C405.02 107.205 403.43 105.615 403.43 103.645C403.43 101.675 405.02 100.085 406.99 100.085C408.96 100.085 410.55 101.675 410.55 103.645Z" fill="white"/>
<path opacity="0.5" d="M400.44 103.645C400.44 105.605 398.85 107.205 396.88 107.205C394.91 107.205 393.32 105.615 393.32 103.645C393.32 101.675 394.91 100.085 396.88 100.085C398.85 100.085 400.44 101.675 400.44 103.645Z" fill="white"/>
<path opacity="0.5" d="M390.34 103.645C390.34 105.605 388.75 107.205 386.78 107.205C384.81 107.205 383.22 105.615 383.22 103.645C383.22 101.675 384.81 100.085 386.78 100.085C388.75 100.085 390.34 101.675 390.34 103.645Z" fill="white"/>
<path d="M158.8 234.085C157.77 235.645 157.08 237.365 156.72 239.135L153.9 239.405V244.865L156.72 245.135C157.09 246.905 157.78 248.615 158.8 250.185L157 252.355L160.86 256.215L163.03 254.415C164.59 255.445 166.31 256.135 168.08 256.495L168.35 259.315H173.81L174.08 256.495C175.85 256.125 177.56 255.435 179.13 254.415L181.3 256.215L185.16 252.355L183.36 250.185C184.39 248.625 185.08 246.905 185.44 245.135L188.26 244.865V239.405L185.44 239.135C185.07 237.365 184.38 235.655 183.36 234.085L185.16 231.915L181.3 228.055L179.13 229.855C177.57 228.825 175.85 228.135 174.08 227.775L173.81 224.955H168.35L168.08 227.775C166.31 228.145 164.6 228.835 163.03 229.855L160.86 228.055L157 231.915L158.8 234.085ZM176.1 237.105C178.87 239.875 178.87 244.375 176.1 247.145C173.33 249.915 168.83 249.915 166.06 247.145C163.29 244.375 163.29 239.875 166.06 237.105C168.83 234.335 173.33 234.335 176.1 237.105Z" fill="#D64923"/>
<path opacity="0.4" d="M158.8 234.085C157.77 235.645 157.08 237.365 156.72 239.135L153.9 239.405V244.865L156.72 245.135C157.09 246.905 157.78 248.615 158.8 250.185L157 252.355L160.86 256.215L163.03 254.415C164.59 255.445 166.31 256.135 168.08 256.495L168.35 259.315H173.81L174.08 256.495C175.85 256.125 177.56 255.435 179.13 254.415L181.3 256.215L185.16 252.355L183.36 250.185C184.39 248.625 185.08 246.905 185.44 245.135L188.26 244.865V239.405L185.44 239.135C185.07 237.365 184.38 235.655 183.36 234.085L185.16 231.915L181.3 228.055L179.13 229.855C177.57 228.825 175.85 228.135 174.08 227.775L173.81 224.955H168.35L168.08 227.775C166.31 228.145 164.6 228.835 163.03 229.855L160.86 228.055L157 231.915L158.8 234.085ZM176.1 237.105C178.87 239.875 178.87 244.375 176.1 247.145C173.33 249.915 168.83 249.915 166.06 247.145C163.29 244.375 163.29 239.875 166.06 237.105C168.83 234.335 173.33 234.335 176.1 237.105Z" fill="white"/>
<path d="M319.92 167.295C318.97 168.745 318.33 170.335 317.99 171.965L315.38 172.215V177.275L317.99 177.525C318.33 179.165 318.97 180.755 319.92 182.195L318.25 184.205L321.82 187.775L323.83 186.105C325.28 187.055 326.87 187.695 328.5 188.035L328.75 190.645H333.81L334.06 188.035C335.7 187.695 337.29 187.055 338.73 186.105L340.74 187.775L344.31 184.205L342.64 182.195C343.59 180.745 344.23 179.155 344.57 177.525L347.18 177.275V172.215L344.57 171.965C344.23 170.325 343.59 168.735 342.64 167.295L344.31 165.285L340.74 161.715L338.73 163.385C337.28 162.435 335.69 161.795 334.06 161.455L333.81 158.845H328.75L328.5 161.455C326.86 161.795 325.27 162.435 323.83 163.385L321.82 161.715L318.25 165.285L319.92 167.295ZM335.94 170.095C338.51 172.665 338.51 176.825 335.94 179.395C333.37 181.965 329.21 181.965 326.64 179.395C324.07 176.825 324.07 172.665 326.64 170.095C329.21 167.525 333.37 167.525 335.94 170.095Z" fill="#D64923"/>
<path opacity="0.4" d="M319.92 167.295C318.97 168.745 318.33 170.335 317.99 171.965L315.38 172.215V177.275L317.99 177.525C318.33 179.165 318.97 180.755 319.92 182.195L318.25 184.205L321.82 187.775L323.83 186.105C325.28 187.055 326.87 187.695 328.5 188.035L328.75 190.645H333.81L334.06 188.035C335.7 187.695 337.29 187.055 338.73 186.105L340.74 187.775L344.31 184.205L342.64 182.195C343.59 180.745 344.23 179.155 344.57 177.525L347.18 177.275V172.215L344.57 171.965C344.23 170.325 343.59 168.735 342.64 167.295L344.31 165.285L340.74 161.715L338.73 163.385C337.28 162.435 335.69 161.795 334.06 161.455L333.81 158.845H328.75L328.5 161.455C326.86 161.795 325.27 162.435 323.83 163.385L321.82 161.715L318.25 165.285L319.92 167.295ZM335.94 170.095C338.51 172.665 338.51 176.825 335.94 179.395C333.37 181.965 329.21 181.965 326.64 179.395C324.07 176.825 324.07 172.665 326.64 170.095C329.21 167.525 333.37 167.525 335.94 170.095Z" fill="white"/>
<path d="M313.66 139.315C313.05 140.245 312.63 141.275 312.41 142.335L310.72 142.495V145.765L312.41 145.925C312.63 146.985 313.04 148.015 313.66 148.945L312.58 150.245L314.89 152.555L316.19 151.475C317.12 152.085 318.15 152.505 319.21 152.725L319.37 154.415H322.64L322.8 152.725C323.86 152.505 324.89 152.095 325.82 151.475L327.12 152.555L329.43 150.245L328.35 148.945C328.96 148.015 329.38 146.985 329.6 145.925L331.29 145.765V142.495L329.6 142.335C329.38 141.275 328.97 140.245 328.35 139.315L329.43 138.015L327.12 135.705L325.82 136.785C324.89 136.175 323.86 135.755 322.8 135.535L322.64 133.845H319.37L319.21 135.535C318.15 135.755 317.12 136.165 316.19 136.785L314.89 135.705L312.58 138.015L313.66 139.315ZM324.01 141.125C325.67 142.785 325.67 145.475 324.01 147.135C322.35 148.795 319.66 148.795 318 147.135C316.34 145.475 316.34 142.785 318 141.125C319.66 139.465 322.35 139.465 324.01 141.125Z" fill="#D64923"/>
<path opacity="0.7" d="M313.66 139.315C313.05 140.245 312.63 141.275 312.41 142.335L310.72 142.495V145.765L312.41 145.925C312.63 146.985 313.04 148.015 313.66 148.945L312.58 150.245L314.89 152.555L316.19 151.475C317.12 152.085 318.15 152.505 319.21 152.725L319.37 154.415H322.64L322.8 152.725C323.86 152.505 324.89 152.095 325.82 151.475L327.12 152.555L329.43 150.245L328.35 148.945C328.96 148.015 329.38 146.985 329.6 145.925L331.29 145.765V142.495L329.6 142.335C329.38 141.275 328.97 140.245 328.35 139.315L329.43 138.015L327.12 135.705L325.82 136.785C324.89 136.175 323.86 135.755 322.8 135.535L322.64 133.845H319.37L319.21 135.535C318.15 135.755 317.12 136.165 316.19 136.785L314.89 135.705L312.58 138.015L313.66 139.315ZM324.01 141.125C325.67 142.785 325.67 145.475 324.01 147.135C322.35 148.795 319.66 148.795 318 147.135C316.34 145.475 316.34 142.785 318 141.125C319.66 139.465 322.35 139.465 324.01 141.125Z" fill="white"/>
<path d="M177 266.835C176.39 267.765 175.97 268.795 175.75 269.855L174.06 270.015V273.285L175.75 273.445C175.97 274.505 176.38 275.535 177 276.465L175.92 277.765L178.23 280.075L179.53 278.995C180.46 279.605 181.49 280.025 182.55 280.245L182.71 281.935H185.98L186.14 280.245C187.2 280.025 188.23 279.615 189.16 278.995L190.46 280.075L192.77 277.765L191.69 276.465C192.3 275.535 192.72 274.505 192.94 273.445L194.63 273.285V270.015L192.94 269.855C192.72 268.795 192.31 267.765 191.69 266.835L192.77 265.535L190.46 263.225L189.16 264.305C188.23 263.695 187.2 263.275 186.14 263.055L185.98 261.365H182.71L182.55 263.055C181.49 263.275 180.46 263.685 179.53 264.305L178.23 263.225L175.92 265.535L177 266.835ZM187.35 268.645C189.01 270.305 189.01 272.995 187.35 274.655C185.69 276.315 183 276.315 181.34 274.655C179.68 272.995 179.68 270.305 181.34 268.645C183 266.985 185.69 266.985 187.35 268.645Z" fill="#D64923"/>
<path opacity="0.7" d="M177 266.835C176.39 267.765 175.97 268.795 175.75 269.855L174.06 270.015V273.285L175.75 273.445C175.97 274.505 176.38 275.535 177 276.465L175.92 277.765L178.23 280.075L179.53 278.995C180.46 279.605 181.49 280.025 182.55 280.245L182.71 281.935H185.98L186.14 280.245C187.2 280.025 188.23 279.615 189.16 278.995L190.46 280.075L192.77 277.765L191.69 276.465C192.3 275.535 192.72 274.505 192.94 273.445L194.63 273.285V270.015L192.94 269.855C192.72 268.795 192.31 267.765 191.69 266.835L192.77 265.535L190.46 263.225L189.16 264.305C188.23 263.695 187.2 263.275 186.14 263.055L185.98 261.365H182.71L182.55 263.055C181.49 263.275 180.46 263.685 179.53 264.305L178.23 263.225L175.92 265.535L177 266.835ZM187.35 268.645C189.01 270.305 189.01 272.995 187.35 274.655C185.69 276.315 183 276.315 181.34 274.655C179.68 272.995 179.68 270.305 181.34 268.645C183 266.985 185.69 266.985 187.35 268.645Z" fill="white"/>
<path d="M199.5 172.555C195.07 179.305 192.09 186.715 190.5 194.365L178.32 195.515V219.095L190.5 220.245C192.09 227.885 195.07 235.305 199.5 242.055L191.72 251.445L208.4 268.125L217.79 260.345C224.54 264.775 231.95 267.755 239.6 269.345L240.75 281.525H264.33L265.48 269.345C273.13 267.755 280.54 264.775 287.29 260.345L296.68 268.125L313.36 251.445L305.58 242.055C310.01 235.305 312.99 227.895 314.58 220.245L326.76 219.095V195.515L314.58 194.365C312.99 186.725 310.01 179.305 305.58 172.555L313.36 163.165L296.68 146.485L287.29 154.265C280.54 149.835 273.13 146.855 265.48 145.265L264.33 133.085H240.75L239.6 145.265C231.96 146.855 224.54 149.835 217.79 154.265L208.4 146.485L191.72 163.165L199.5 172.555ZM279.62 180.225C294.57 195.175 294.57 219.425 279.62 234.375C264.66 249.325 240.42 249.325 225.47 234.375C210.52 219.425 210.52 195.175 225.47 180.225C240.42 165.275 264.67 165.275 279.62 180.225Z" fill="#D64923"/>
<path d="M241.26 210.665H232.75L231.13 214.595H226.79L234.95 196.275H239.14L247.33 214.595H242.88L241.26 210.665ZM239.93 207.445L237.03 200.435L234.13 207.445H239.94H239.93Z" fill="#D64923"/>
<path d="M261.4 197.085C262.6 197.625 263.52 198.395 264.16 199.385C264.8 200.375 265.13 201.555 265.13 202.915C265.13 204.275 264.81 205.435 264.16 206.435C263.51 207.435 262.59 208.205 261.4 208.735C260.21 209.265 258.8 209.535 257.17 209.535H253.48V214.585H249.24V196.265H257.17C258.79 196.265 260.2 196.535 261.4 197.075V197.085ZM259.84 205.265C260.5 204.715 260.83 203.935 260.83 202.925C260.83 201.915 260.5 201.105 259.84 200.555C259.18 200.005 258.21 199.735 256.94 199.735H253.48V206.095H256.94C258.21 206.095 259.18 205.825 259.84 205.275V205.265Z" fill="#D64923"/>
<path d="M268.14 196.275H272.38V214.595H268.14V196.275Z" fill="#D64923"/>
<path d="M217.79 212.145C217.54 212.145 217.32 211.955 217.29 211.695C216.23 201.245 219.27 191.235 225.86 183.515C226.04 183.305 226.36 183.285 226.56 183.455C226.77 183.635 226.79 183.945 226.62 184.155C220.21 191.665 217.24 201.405 218.28 211.575C218.31 211.845 218.11 212.095 217.83 212.125C217.81 212.125 217.8 212.125 217.78 212.125L217.79 212.145Z" fill="#D64923"/>
<path d="M219.48 220.045C219.26 220.045 219.06 219.905 219 219.685C218.59 218.295 218.26 216.865 218 215.445C217.95 215.175 218.13 214.915 218.4 214.865C218.67 214.815 218.93 214.995 218.98 215.265C219.23 216.655 219.56 218.045 219.95 219.405C220.03 219.665 219.88 219.945 219.61 220.025C219.56 220.035 219.52 220.045 219.47 220.045H219.48Z" fill="#D64923"/>
<path d="M128.33 155.065V205.125H171.08" stroke="#D64923" stroke-linecap="round" stroke-linejoin="round"/>
<path d="M128.33 157.625C129.744 157.625 130.89 156.479 130.89 155.065C130.89 153.651 129.744 152.505 128.33 152.505C126.916 152.505 125.77 153.651 125.77 155.065C125.77 156.479 126.916 157.625 128.33 157.625Z" fill="#D64923"/>
<path d="M389.2 247.245C390.614 247.245 391.76 246.099 391.76 244.685C391.76 243.271 390.614 242.125 389.2 242.125C387.786 242.125 386.64 243.271 386.64 244.685C386.64 246.099 387.786 247.245 389.2 247.245Z" fill="#D64923"/>
<path d="M389.2 244.315V264.165H326.58V236.755H317.2" stroke="#D64923" stroke-miterlimit="10"/>
<path d="M468.88 271.655H359.99V376.095H468.88V271.655Z" fill="#407BFF"/>
<path opacity="0.4" d="M468.88 271.655H359.99V376.095H468.88V271.655Z" fill="white"/>
<path opacity="0.4" d="M468.87 271.655H394.65V376.095H468.87V271.655Z" fill="white"/>
<path d="M465.16 276.995H398.36V289.925H465.16V276.995Z" fill="#407BFF"/>
<path d="M465.16 293.165H398.36V306.095H465.16V293.165Z" fill="#407BFF"/>
<path d="M465.16 309.325H398.36V322.255H465.16V309.325Z" fill="#407BFF"/>
<path d="M465.16 325.495H398.36V338.425H465.16V325.495Z" fill="#407BFF"/>
<path d="M465.16 341.665H398.36V354.595H465.16V341.665Z" fill="#407BFF"/>
<path d="M465.16 357.835H398.36V370.765H465.16V357.835Z" fill="#407BFF"/>
<path d="M390.77 276.995H363.88V289.925H390.77V276.995Z" fill="#407BFF"/>
<path d="M390.77 293.165H363.88V306.095H390.77V293.165Z" fill="#407BFF"/>
<path d="M390.77 309.325H363.88V322.255H390.77V309.325Z" fill="#407BFF"/>
<path d="M390.77 325.495H363.88V338.425H390.77V325.495Z" fill="#407BFF"/>
<path d="M390.77 341.665H363.88V354.595H390.77V341.665Z" fill="#407BFF"/>
<path d="M390.77 357.835H363.88V370.765H390.77V357.835Z" fill="#407BFF"/>
<path opacity="0.3" d="M461.89 278.675H460.33V288.245H461.89V278.675Z" fill="white"/>
<path opacity="0.3" d="M458.89 278.675H457.33V288.245H458.89V278.675Z" fill="white"/>
<path opacity="0.3" d="M455.89 278.675H454.33V288.245H455.89V278.675Z" fill="white"/>
<path opacity="0.3" d="M452.89 278.675H451.33V288.245H452.89V278.675Z" fill="white"/>
<path opacity="0.3" d="M449.89 278.675H448.33V288.245H449.89V278.675Z" fill="white"/>
<path opacity="0.3" d="M461.89 294.845H460.33V304.405H461.89V294.845Z" fill="white"/>
<path opacity="0.3" d="M458.89 294.845H457.33V304.405H458.89V294.845Z" fill="white"/>
<path opacity="0.3" d="M455.89 294.845H454.33V304.405H455.89V294.845Z" fill="white"/>
<path opacity="0.3" d="M452.89 294.845H451.33V304.405H452.89V294.845Z" fill="white"/>
<path opacity="0.3" d="M449.89 294.845H448.33V304.405H449.89V294.845Z" fill="white"/>
<path opacity="0.3" d="M461.89 311.015H460.33V320.575H461.89V311.015Z" fill="white"/>
<path opacity="0.3" d="M458.89 311.015H457.33V320.575H458.89V311.015Z" fill="white"/>
<path opacity="0.3" d="M455.89 311.015H454.33V320.575H455.89V311.015Z" fill="white"/>
<path opacity="0.3" d="M452.89 311.015H451.33V320.575H452.89V311.015Z" fill="white"/>
<path opacity="0.3" d="M449.89 311.015H448.33V320.575H449.89V311.015Z" fill="white"/>
<path opacity="0.3" d="M461.89 327.185H460.33V336.755H461.89V327.185Z" fill="white"/>
<path opacity="0.3" d="M458.89 327.185H457.33V336.755H458.89V327.185Z" fill="white"/>
<path opacity="0.3" d="M455.89 327.185H454.33V336.755H455.89V327.185Z" fill="white"/>
<path opacity="0.3" d="M452.89 327.185H451.33V336.755H452.89V327.185Z" fill="white"/>
<path opacity="0.3" d="M449.89 327.185H448.33V336.755H449.89V327.185Z" fill="white"/>
<path opacity="0.3" d="M461.89 343.355H460.33V352.915H461.89V343.355Z" fill="white"/>
<path opacity="0.3" d="M458.89 343.355H457.33V352.915H458.89V343.355Z" fill="white"/>
<path opacity="0.3" d="M455.89 343.355H454.33V352.915H455.89V343.355Z" fill="white"/>
<path opacity="0.3" d="M452.89 343.355H451.33V352.915H452.89V343.355Z" fill="white"/>
<path opacity="0.3" d="M449.89 343.355H448.33V352.915H449.89V343.355Z" fill="white"/>
<path opacity="0.3" d="M461.89 359.515H460.33V369.085H461.89V359.515Z" fill="white"/>
<path opacity="0.3" d="M458.89 359.515H457.33V369.085H458.89V359.515Z" fill="white"/>
<path opacity="0.3" d="M455.89 359.515H454.33V369.085H455.89V359.515Z" fill="white"/>
<path opacity="0.3" d="M452.89 359.515H451.33V369.085H452.89V359.515Z" fill="white"/>
<path opacity="0.3" d="M449.89 359.515H448.33V369.085H449.89V359.515Z" fill="white"/>
<path opacity="0.2" d="M406.13 283.455C406.13 284.335 405.42 285.045 404.54 285.045C403.66 285.045 402.95 284.335 402.95 283.455C402.95 282.575 403.66 281.865 404.54 281.865C405.42 281.865 406.13 282.575 406.13 283.455Z" fill="white"/>
<path opacity="0.2" d="M416.13 283.455C416.13 284.335 415.42 285.045 414.54 285.045C413.66 285.045 412.95 284.335 412.95 283.455C412.95 282.575 413.66 281.865 414.54 281.865C415.42 281.865 416.13 282.575 416.13 283.455Z" fill="white"/>
<path opacity="0.4" d="M426.13 283.455C426.13 284.335 425.42 285.045 424.54 285.045C423.66 285.045 422.95 284.335 422.95 283.455C422.95 282.575 423.66 281.865 424.54 281.865C425.42 281.865 426.13 282.575 426.13 283.455Z" fill="white"/>
<path opacity="0.4" d="M406.13 299.625C406.13 300.505 405.42 301.215 404.54 301.215C403.66 301.215 402.95 300.505 402.95 299.625C402.95 298.745 403.66 298.035 404.54 298.035C405.42 298.035 406.13 298.745 406.13 299.625Z" fill="white"/>
<path opacity="0.2" d="M416.13 299.625C416.13 300.505 415.42 301.215 414.54 301.215C413.66 301.215 412.95 300.505 412.95 299.625C412.95 298.745 413.66 298.035 414.54 298.035C415.42 298.035 416.13 298.745 416.13 299.625Z" fill="white"/>
<path opacity="0.4" d="M426.13 299.625C426.13 300.505 425.42 301.215 424.54 301.215C423.66 301.215 422.95 300.505 422.95 299.625C422.95 298.745 423.66 298.035 424.54 298.035C425.42 298.035 426.13 298.745 426.13 299.625Z" fill="white"/>
<path opacity="0.2" d="M406.13 315.795C406.13 316.675 405.42 317.385 404.54 317.385C403.66 317.385 402.95 316.675 402.95 315.795C402.95 314.915 403.66 314.205 404.54 314.205C405.42 314.205 406.13 314.915 406.13 315.795Z" fill="white"/>
<path opacity="0.4" d="M416.13 315.795C416.13 316.675 415.42 317.385 414.54 317.385C413.66 317.385 412.95 316.675 412.95 315.795C412.95 314.915 413.66 314.205 414.54 314.205C415.42 314.205 416.13 314.915 416.13 315.795Z" fill="white"/>
<path opacity="0.2" d="M426.13 315.795C426.13 316.675 425.42 317.385 424.54 317.385C423.66 317.385 422.95 316.675 422.95 315.795C422.95 314.915 423.66 314.205 424.54 314.205C425.42 314.205 426.13 314.915 426.13 315.795Z" fill="white"/>
<path opacity="0.4" d="M406.13 331.965C406.13 332.845 405.42 333.555 404.54 333.555C403.66 333.555 402.95 332.845 402.95 331.965C402.95 331.085 403.66 330.375 404.54 330.375C405.42 330.375 406.13 331.085 406.13 331.965Z" fill="white"/>
<path opacity="0.2" d="M416.13 331.965C416.13 332.845 415.42 333.555 414.54 333.555C413.66 333.555 412.95 332.845 412.95 331.965C412.95 331.085 413.66 330.375 414.54 330.375C415.42 330.375 416.13 331.085 416.13 331.965Z" fill="white"/>
<path opacity="0.2" d="M426.13 331.965C426.13 332.845 425.42 333.555 424.54 333.555C423.66 333.555 422.95 332.845 422.95 331.965C422.95 331.085 423.66 330.375 424.54 330.375C425.42 330.375 426.13 331.085 426.13 331.965Z" fill="white"/>
<path opacity="0.2" d="M406.13 348.135C406.13 349.015 405.42 349.725 404.54 349.725C403.66 349.725 402.95 349.015 402.95 348.135C402.95 347.255 403.66 346.545 404.54 346.545C405.42 346.545 406.13 347.255 406.13 348.135Z" fill="white"/>
<path opacity="0.4" d="M416.13 348.135C416.13 349.015 415.42 349.725 414.54 349.725C413.66 349.725 412.95 349.015 412.95 348.135C412.95 347.255 413.66 346.545 414.54 346.545C415.42 346.545 416.13 347.255 416.13 348.135Z" fill="white"/>
<path opacity="0.4" d="M426.13 348.135C426.13 349.015 425.42 349.725 424.54 349.725C423.66 349.725 422.95 349.015 422.95 348.135C422.95 347.255 423.66 346.545 424.54 346.545C425.42 346.545 426.13 347.255 426.13 348.135Z" fill="white"/>
<path opacity="0.4" d="M406.13 364.305C406.13 365.185 405.42 365.895 404.54 365.895C403.66 365.895 402.95 365.185 402.95 364.305C402.95 363.425 403.66 362.715 404.54 362.715C405.42 362.715 406.13 363.425 406.13 364.305Z" fill="white"/>
<path opacity="0.2" d="M416.13 364.305C416.13 365.185 415.42 365.895 414.54 365.895C413.66 365.895 412.95 365.185 412.95 364.305C412.95 363.425 413.66 362.715 414.54 362.715C415.42 362.715 416.13 363.425 416.13 364.305Z" fill="white"/>
<path opacity="0.4" d="M426.13 364.305C426.13 365.185 425.42 365.895 424.54 365.895C423.66 365.895 422.95 365.185 422.95 364.305C422.95 363.425 423.66 362.715 424.54 362.715C425.42 362.715 426.13 363.425 426.13 364.305Z" fill="white"/>
<path opacity="0.3" d="M394.65 271.655H359.99V376.095H394.65V271.655Z" fill="black"/>
<path d="M460.15 141.525H358.95C356.222 141.525 354.01 143.737 354.01 146.465V229.985C354.01 232.713 356.222 234.925 358.95 234.925H460.15C462.878 234.925 465.09 232.713 465.09 229.985V146.465C465.09 143.737 462.878 141.525 460.15 141.525Z" fill="#D64923"/>
<path opacity="0.5" d="M460.15 141.525H358.95C356.222 141.525 354.01 143.737 354.01 146.465V229.985C354.01 232.713 356.222 234.925 358.95 234.925H460.15C462.878 234.925 465.09 232.713 465.09 229.985V146.465C465.09 143.737 462.878 141.525 460.15 141.525Z" fill="white"/>
<path d="M358.64 141.525H460.55C463.06 141.525 465.1 143.565 465.1 146.075V157.815H354.02V146.155C354.02 143.605 356.09 141.525 358.65 141.525H358.64Z" fill="#D64923"/>
<path opacity="0.5" d="M458.81 150.855C458.81 152.815 457.22 154.415 455.25 154.415C453.28 154.415 451.69 152.825 451.69 150.855C451.69 148.885 453.28 147.295 455.25 147.295C457.22 147.295 458.81 148.885 458.81 150.855Z" fill="white"/>
<path opacity="0.5" d="M448.71 150.855C448.71 152.815 447.12 154.415 445.15 154.415C443.18 154.415 441.59 152.825 441.59 150.855C441.59 148.885 443.18 147.295 445.15 147.295C447.12 147.295 448.71 148.885 448.71 150.855Z" fill="white"/>
<path opacity="0.5" d="M438.6 150.855C438.6 152.815 437.01 154.415 435.04 154.415C433.07 154.415 431.48 152.825 431.48 150.855C431.48 148.885 433.07 147.295 435.04 147.295C437.01 147.295 438.6 148.885 438.6 150.855Z" fill="white"/>
<path opacity="0.6" d="M435.98 171.425H379.01V174.745H435.98V171.425Z" fill="white"/>
<path opacity="0.6" d="M420.66 178.605H379.89V181.925H420.66V178.605Z" fill="#263238"/>
<path d="M451.38 171.425H440.17V174.745H451.38V171.425Z" fill="#D64923"/>
<path d="M375.05 171.425H363.84V174.745H375.05V171.425Z" fill="#D64923"/>
<path d="M435.98 186.575H379.01V189.895H435.98V186.575Z" fill="#D64923"/>
<path opacity="0.6" d="M451.38 186.575H440.17V189.895H451.38V186.575Z" fill="white"/>
<path d="M375.05 186.575H363.84V189.895H375.05V186.575Z" fill="#D64923"/>
<path d="M435.98 218.135H379.01V221.455H435.98V218.135Z" fill="#D64923"/>
<path opacity="0.6" d="M451.38 218.135H440.17V221.455H451.38V218.135Z" fill="white"/>
<path d="M435.98 194.555H379.01V197.875H435.98V194.555Z" fill="#D64923"/>
<path opacity="0.6" d="M451.38 194.555H440.17V197.875H451.38V194.555Z" fill="#263238"/>
<path opacity="0.6" d="M375.05 194.555H363.84V197.875H375.05V194.555Z" fill="#263238"/>
<path d="M452.2 178.735H425.12V182.055H452.2V178.735Z" fill="#D64923"/>
<path opacity="0.6" d="M419.78 201.515H379.01V204.835H419.78V201.515Z" fill="white"/>
<path d="M451.31 201.645H424.23V204.965H451.31V201.645Z" fill="#D64923"/>
<path opacity="0.6" d="M399.39 208.725H379.01V212.045H399.39V208.725Z" fill="#263238"/>
<path d="M158.84 45.915H57.6399C54.9117 45.915 52.7 48.1267 52.7 50.855V134.375C52.7 137.103 54.9117 139.315 57.6399 139.315H158.84C161.568 139.315 163.78 137.103 163.78 134.375V50.855C163.78 48.1267 161.568 45.915 158.84 45.915Z" fill="#D64923"/>
<path opacity="0.5" d="M158.84 45.915H57.6399C54.9117 45.915 52.7 48.1267 52.7 50.855V134.375C52.7 137.103 54.9117 139.315 57.6399 139.315H158.84C161.568 139.315 163.78 137.103 163.78 134.375V50.855C163.78 48.1267 161.568 45.915 158.84 45.915Z" fill="white"/>
<path d="M57.32 45.915H159.23C161.74 45.915 163.78 47.955 163.78 50.465V62.205H52.7V50.545C52.7 47.995 54.77 45.915 57.33 45.915H57.32Z" fill="#D64923"/>
<path opacity="0.5" d="M157.5 55.255C157.5 57.215 155.91 58.815 153.94 58.815C151.97 58.815 150.38 57.225 150.38 55.255C150.38 53.285 151.97 51.695 153.94 51.695C155.91 51.695 157.5 53.285 157.5 55.255Z" fill="white"/>
<path opacity="0.5" d="M147.4 55.255C147.4 57.215 145.81 58.815 143.84 58.815C141.87 58.815 140.28 57.225 140.28 55.255C140.28 53.285 141.87 51.695 143.84 51.695C145.81 51.695 147.4 53.285 147.4 55.255Z" fill="white"/>
<path opacity="0.5" d="M137.29 55.255C137.29 57.215 135.7 58.815 133.73 58.815C131.76 58.815 130.17 57.225 130.17 55.255C130.17 53.285 131.76 51.695 133.73 51.695C135.7 51.695 137.29 53.285 137.29 55.255Z" fill="white"/>
<path d="M143.24 97.985C139.55 93.045 132.01 90.635 126.98 94.195C125.74 87.125 120.62 80.855 113.93 78.235C107.24 75.615 99.22 76.735 93.51 81.085C87.79 85.435 84.58 92.865 85.33 100.015C80.48 98.915 75.14 100.075 71.98 105.095C67.89 111.605 73.19 118.055 73.19 118.055L101.69 118.215V107.765H98.05C97.4 107.765 97.07 106.995 97.52 106.525L101.72 102.145L106.57 97.075C106.86 96.775 107.34 96.775 107.63 97.075L112.48 102.145L116.68 106.525C117.13 106.995 116.8 107.765 116.15 107.765H112.51V118.275L142.84 118.445C147.16 113.475 146.94 102.925 143.25 97.985H143.24Z" fill="white"/>
<path d="M100.52 378.875C100.52 378.875 187.64 358.465 191.79 376.615C197.7 402.515 134.85 419.945 101.37 418.875C67.89 417.805 100.53 378.875 100.53 378.875H100.52Z" fill="#002029"/>
<path opacity="0.2" d="M100.52 378.875C100.52 378.875 187.64 358.465 191.79 376.615C197.7 402.515 134.85 419.945 101.37 418.875C67.89 417.805 100.53 378.875 100.53 378.875H100.52Z" fill="black"/>
<path opacity="0.7" d="M163.2 382.205L122.29 408.205L127.75 415.965C127.75 415.965 124.87 420.225 119.4 407.135L144.71 390.405C144.71 390.405 136.79 389.605 136.99 388.375C137.33 386.345 154.73 382.475 162.67 380.725C163.08 380.575 163.53 380.785 163.68 381.195C163.83 381.605 163.62 382.055 163.21 382.205H163.2Z" fill="black"/>
<path opacity="0.7" d="M120.8 405.275L127.9 416.775C119.15 418.305 110.26 419.005 101.36 418.865C98.4399 418.845 95.5399 418.325 92.8099 417.315L90.3199 412.755L95.6899 401.955L120.8 405.275Z" fill="black"/>
<path d="M134.34 400.705L116.15 412.245L119.41 421.075L140.77 411.475L134.34 400.705Z" fill="#B97964"/>
<path d="M106.13 415.205L107.92 421.555C107.92 421.555 109.26 421.835 109.68 423.175C109.91 423.925 109.36 425.995 109.36 425.995L114.14 443.495C114.14 443.495 115.34 443.175 115.81 442.835C116.38 442.425 116.84 442.005 117.21 441.575C118.5 440.085 118.64 437.915 118.69 436.315C118.77 433.625 120.31 425.785 120.31 425.785C120.31 425.785 120.9 423.745 123.06 421.945C124.26 420.945 124.82 419.675 124.71 418.885C124.48 417.285 123.33 416.685 121.84 416.865L120.1 417.075C118.86 416.145 118.48 414.585 119.26 413.075C119.26 413.075 120.29 409.265 118.69 409.905C117.78 410.275 113.76 412.065 110.54 413.385C109.79 413.695 109.08 413.985 108.46 414.235C107.08 414.805 106.13 415.195 106.13 415.195V415.205Z" fill="#002029"/>
<path d="M119.64 429.975C119.69 429.875 119.66 429.755 119.58 429.675C119.2 429.325 118.74 429.085 118.22 428.975C117.94 428.915 117.82 429.365 118.1 429.415C118.57 429.515 118.97 429.725 119.3 430.025C119.41 430.125 119.57 430.105 119.64 429.965V429.975Z" fill="#407BFF"/>
<path d="M120 428.425C120.05 428.325 120.02 428.205 119.94 428.125C119.56 427.775 119.1 427.535 118.58 427.425C118.3 427.365 118.18 427.815 118.46 427.865C118.93 427.965 119.33 428.175 119.66 428.475C119.77 428.575 119.93 428.555 120 428.415V428.425Z" fill="#407BFF"/>
<path d="M120.3 426.855C120.35 426.755 120.32 426.635 120.24 426.555C119.86 426.205 119.4 425.965 118.88 425.855C118.6 425.795 118.48 426.245 118.76 426.295C119.23 426.395 119.63 426.605 119.96 426.905C120.07 427.005 120.23 426.985 120.3 426.845V426.855Z" fill="#407BFF"/>
<path opacity="0.2" d="M108.46 414.245C107.08 414.815 106.13 415.205 106.13 415.205L107.92 421.555C107.92 421.555 109.26 421.835 109.68 423.175C109.91 423.925 109.36 425.995 109.36 425.995L114.14 443.495C114.14 443.495 115.34 443.175 115.81 442.835C116.07 442.645 116.3 442.455 116.52 442.265L108.81 414.095C108.7 414.145 108.57 414.195 108.46 414.235V414.245Z" fill="white"/>
<path d="M120.05 426.745C120.64 426.525 121.24 426.305 121.86 426.195C122.48 426.085 123.14 426.085 123.73 426.305C124.01 426.405 124.29 426.585 124.35 426.875C124.41 427.175 124.2 427.475 123.95 427.655C123.47 428.005 122.83 428.085 122.25 427.975C121.67 427.865 120.54 427.105 120.06 426.755" stroke="#407BFF" stroke-width="0.25" stroke-miterlimit="10"/>
<path d="M120.03 426.675C120.53 426.285 121.02 425.885 121.44 425.415C121.86 424.945 122.2 424.385 122.32 423.765C122.38 423.475 122.37 423.135 122.16 422.935C121.93 422.725 121.57 422.755 121.29 422.875C120.74 423.105 120.34 423.605 120.13 424.165C119.92 424.725 119.98 426.085 120.03 426.675Z" stroke="#407BFF" stroke-width="0.25" stroke-miterlimit="10"/>
<path d="M136.51 323.445C136.51 323.445 139.69 351.775 140.54 353.295C143.42 358.435 162.46 367.245 162.46 367.245L172.17 365.215L179.13 371.025L174.54 374.615L169.16 372.585C166.22 373.105 163.24 373.375 160.26 373.365C155.24 373.365 131.05 367.235 127.01 360.485C122.97 353.735 121.12 322.505 121.12 322.505L136.51 323.445Z" fill="#B97964"/>
<path d="M120.71 334.575C120.71 334.575 113.25 309.695 122.55 302.795C131.85 295.885 139.24 330.095 139.24 330.095L120.71 334.585V334.575Z" fill="#407BFF"/>
<path opacity="0.3" d="M120.71 334.575C120.71 334.575 113.25 309.695 122.55 302.795C131.85 295.885 139.24 330.095 139.24 330.095L120.71 334.585V334.575Z" fill="white"/>
<path d="M126.6 380.075L126.53 347.105L125.61 301.705L106.34 297.735L89.39 296.985L70.1 305.815L69.65 316.895C69.65 316.895 71.86 367.765 71.73 369.295C71.58 371.175 66.11 382.975 66.11 382.975C90.48 388.525 126.99 381.765 126.61 380.085L126.6 380.075Z" fill="#407BFF"/>
<path opacity="0.3" d="M126.6 380.075L126.53 347.105L125.61 301.705L106.34 297.735L89.39 296.985L70.1 305.815L69.65 316.895C69.65 316.895 71.86 367.765 71.73 369.295C71.58 371.175 66.11 382.975 66.11 382.975C90.48 388.525 126.99 381.765 126.61 380.085L126.6 380.075Z" fill="white"/>
<path d="M99 304.295C99 304.295 103.73 308.505 106.15 303.065L107.41 304.045C107.41 304.045 107.29 308.095 104.99 309.445C105.55 311.695 115.15 344.395 116.87 360.875L114.25 367.555L107.28 362.055C107.28 362.055 103.9 333.775 102.74 309.755C99.95 308.805 97.74 306.715 96.71 304.045L99 304.295Z" fill="#407BFF"/>
<path opacity="0.2" d="M105.1 304.845L109.2 308.035L109.87 298.465L108.57 298.185L107.49 304.635L105.54 303.505L105.1 304.845Z" fill="black"/>
<path opacity="0.2" d="M85.35 298.835C85.28 298.865 95 310.725 95 310.725L98.3 308.215L100.57 306.295L101.16 305.575L88.29 296.635C88.29 296.635 86.57 298.395 86.39 298.395C86.21 298.395 85.35 298.845 85.35 298.845V298.835Z" fill="black"/>
<path d="M86.04 298.635L90.74 294.435L103.61 306.485L100.24 305.295L95.34 309.055L86.04 298.635Z" fill="#407BFF"/>
<path d="M103.61 306.485C103.33 305.945 104.64 294.995 104.64 294.995L109.2 298.115C108.96 298.065 108.8 307.165 108.65 307.165C108.5 307.165 105.63 304.055 105.63 304.055L103.61 306.485Z" fill="#407BFF"/>
<path opacity="0.2" d="M126.26 333.235L125.26 311.975L130.02 332.325L126.26 333.235Z" fill="black"/>
<path opacity="0.2" d="M85.02 336.335C85.62 336.215 88.66 335.225 88.66 335.225L81.91 316.435L91.18 337.215L85.61 339.435L85.03 336.335H85.02Z" fill="black"/>
<path opacity="0.3" d="M86.04 298.635L90.74 294.435L103.61 306.485L100.24 305.295L95.34 309.055L86.04 298.635Z" fill="white"/>
<path opacity="0.3" d="M103.61 306.485C103.33 305.945 104.64 294.995 104.64 294.995L109.2 298.115C108.96 298.065 108.8 307.165 108.65 307.165C108.5 307.165 105.63 304.055 105.63 304.055L103.61 306.485Z" fill="white"/>
<path opacity="0.3" d="M110.91 324.065L113.07 334.675L119.36 336.955L123.61 333.245L122.83 323.225L110.91 324.065Z" fill="white"/>
<path d="M104.38 305.565L102.39 306.055C102.39 306.055 102.31 306.185 102.36 306.105C102.39 306.055 101.27 309.875 101.27 309.875C101.59 310.155 102.66 312.005 102.79 311.975C102.91 311.945 105.56 311.695 105.56 311.695L106.52 308.895C106.52 308.895 104.37 305.535 104.39 305.565H104.38Z" fill="#407BFF"/>
<path opacity="0.2" d="M104.38 305.565L102.39 306.055C102.39 306.055 102.31 306.185 102.36 306.105C102.39 306.055 101.27 309.875 101.27 309.875C101.59 310.155 102.66 312.005 102.79 311.975C102.91 311.945 105.56 311.695 105.56 311.695L106.52 308.895C106.52 308.895 104.37 305.535 104.39 305.565H104.38Z" fill="black"/>
<path d="M82.41 320.755C82.41 320.755 87.14 352.205 89.87 355.145C94.48 360.115 117.33 373.295 117.33 373.295L128.73 369.295C129.53 369.035 130.41 369.175 131.07 369.675L138.87 375.625L138.13 376.255C137.81 376.525 137.34 376.585 136.96 376.395L135.75 375.795L137.11 377.125L136.68 377.485C136.25 377.845 135.66 377.975 135.11 377.825L131.62 376.885L134.84 379.025C134.12 379.635 133.12 379.845 132.2 379.575L127.1 378.125C123.62 378.925 120.08 379.425 116.51 379.645C110.5 380.015 82.14 370.105 76.85 362.845C71.56 355.585 66.11 325.455 66.11 325.455L82.41 320.755Z" fill="#B97964"/>
<path d="M67.31 341.675C67.31 341.675 60.24 313.175 69.54 306.265C78.84 299.355 88.05 335.415 88.05 335.415L67.31 341.675Z" fill="#407BFF"/>
<path opacity="0.3" d="M67.31 341.675C67.31 341.675 60.24 313.175 69.54 306.265C78.84 299.355 88.05 335.415 88.05 335.415L67.31 341.675Z" fill="white"/>
<path d="M128.18 267.955C129.36 267.845 130.37 266.775 130.43 265.595C130.48 264.415 129.57 263.255 128.4 263.045L122.89 262.495C123.15 266.035 123.41 269.575 123.68 273.115C124.75 273.385 125.9 273.445 126.94 273.085C127.98 272.725 128.9 271.915 129.21 270.855C129.52 269.795 129.13 268.525 128.19 267.965L128.18 267.955Z" fill="#263238"/>
<path d="M107.11 288.365L95.2599 273.455C95.2599 273.455 95.2599 273.465 95.2599 273.505C95.2599 274.915 95.2099 276.525 95.0999 278.245C95.0999 278.255 93.8299 277.635 93.8199 277.645C93.3099 285.395 90.2499 298.605 90.3899 299.745L102.84 305.935L105.11 303.665L105.55 298.625C104.3 295.465 105.48 291.795 107.12 288.355L107.11 288.365Z" fill="#B97964"/>
<path opacity="0.2" d="M105.33 293.395L97.8399 287.475C97.6499 290.485 99.2299 295.225 105.24 297.685C104.88 295.875 105 294.585 105.34 293.395H105.33Z" fill="black"/>
<path d="M97.7899 266.065C95.3399 276.095 94.4099 280.915 97.8399 287.465C102.99 297.325 115.59 297.405 121 288.285C125.87 280.075 129.07 265.045 120.6 258.225C112.26 251.505 100.24 256.035 97.7899 266.065Z" fill="#B97964"/>
<path d="M99.8998 252.445C102.94 247.435 110.88 246.625 113.82 250.575C114.26 251.165 109.51 251.305 110.05 251.285L107.27 259.185C106.73 258.875 105.37 259.205 104.21 260.835C104.21 260.835 102.42 271.705 96.7898 274.745C91.2598 267.115 91.8898 252.455 99.8998 252.445Z" fill="#263238"/>
<path d="M91.3498 273.065C91.3498 275.845 92.6398 278.355 94.2898 279.935C96.7698 282.305 99.6598 280.475 100.34 277.285C100.96 274.415 100.41 269.725 97.2498 268.565C94.1398 267.415 91.3398 269.895 91.3398 273.075L91.3498 273.065Z" fill="#B97964"/>
<path d="M111.37 274.475C111.06 275.485 111.34 276.455 112 276.655C112.66 276.855 113.45 276.195 113.76 275.185C114.07 274.175 113.79 273.205 113.13 273.005C112.47 272.805 111.68 273.465 111.37 274.465V274.475Z" fill="#263238"/>
<path d="M121.25 277.685C120.94 278.695 121.22 279.665 121.88 279.865C122.54 280.065 123.33 279.405 123.64 278.395C123.95 277.385 123.67 276.415 123.01 276.215C122.35 276.015 121.56 276.675 121.25 277.675V277.685Z" fill="#263238"/>
<path d="M117.77 274.995C117.77 274.995 119.02 279.585 119.6 282.315C119.74 282.965 119.25 283.605 118.58 283.625C117.13 283.665 115.77 282.855 115.77 282.855L117.78 275.005L117.77 274.995Z" fill="#A24E3F"/>
<path d="M110.32 268.425C110.45 268.535 110.64 268.575 110.81 268.505C112.88 267.725 114.37 268.775 114.38 268.785C114.6 268.945 114.91 268.895 115.07 268.675C115.23 268.455 115.18 268.145 114.96 267.985C114.88 267.925 113.02 266.615 110.45 267.585C110.19 267.685 110.06 267.965 110.16 268.215C110.19 268.295 110.24 268.365 110.31 268.415L110.32 268.425Z" fill="#263238"/>
<path d="M126.5 273.095C126.59 273.085 126.68 273.045 126.76 272.975C126.96 272.795 126.98 272.475 126.8 272.275C124.99 270.235 122.75 270.575 122.65 270.585C122.38 270.625 122.19 270.885 122.23 271.145C122.27 271.415 122.52 271.595 122.78 271.555C122.87 271.535 124.61 271.295 126.05 272.935C126.16 273.065 126.33 273.115 126.49 273.095H126.5Z" fill="#263238"/>
<path d="M110.54 284.895C110.88 285.175 111.25 285.425 111.64 285.645C111.77 285.715 111.92 285.675 112.01 285.565C112.07 285.425 112.01 285.275 111.89 285.195C109.88 284.115 108.5 282.135 108.19 279.875C108.17 279.735 108.05 279.625 107.91 279.635C107.78 279.635 107.67 279.725 107.66 279.855C107.66 279.875 107.66 279.895 107.66 279.915C107.9 281.895 108.94 283.705 110.54 284.895Z" fill="#263238"/>
<path d="M133.15 260.465C132.47 258.465 130.09 257.615 127.98 257.465C129.3 257.445 130.34 256.095 130.35 254.775C130.35 253.455 129.53 252.235 128.49 251.425C126.63 249.965 123.98 249.585 121.79 250.465C122.21 250.265 122.35 249.715 122.22 249.265C122.09 248.825 121.74 248.485 121.37 248.195C119.14 246.485 115.68 246.655 113.62 248.575C112.9 246.145 110.09 244.555 107.64 245.195C105.25 245.815 100.75 246.295 100.05 252.415C98.0199 250.975 94.8799 251.285 93.2799 253.215C91.5499 255.305 91.9999 258.835 94.1999 260.425C93.1099 259.965 91.7499 260.675 91.2999 261.775C90.8499 262.875 91.1999 264.185 91.9599 265.095C92.7199 266.005 93.8399 266.555 94.9799 266.875C96.0499 267.185 97.2099 267.305 98.2799 266.975C99.3499 266.645 100.29 265.785 100.51 264.695C100.69 265.845 101.9 266.695 103.05 266.575C104.21 266.455 105.18 265.455 105.37 264.305C105.56 263.155 105.01 261.945 104.09 261.245C105.41 262.515 107.95 262.015 108.68 260.335C109.66 262.205 111.05 263.975 112.98 264.815C114.92 265.655 117.47 265.295 118.71 263.585C119.34 264.315 119.98 265.065 120.8 265.585C121.61 266.105 122.64 266.375 123.56 266.085C124.48 265.795 125.21 264.815 125.01 263.865C126.53 265.135 128.68 265.795 130.55 265.155C132.43 264.515 133.77 262.345 133.14 260.465H133.15Z" fill="#263238"/>
<path d="M143.43 377.895H107.27C107.27 377.895 107.27 377.895 107.27 377.905C107.27 379.285 108.82 380.395 110.71 380.395H139.95C139.95 380.395 139.98 380.395 140 380.395H169.61C171.49 380.385 173 379.265 172.99 377.895H143.43Z" fill="#263238"/>
<path d="M170.15 380.255H137.12C136.55 380.255 136.09 379.875 136.1 379.415C136.1 379.325 136.12 379.245 136.15 379.165L150.84 345.475C151.21 344.515 152.32 343.855 153.57 343.855H186.62C187.18 343.855 187.63 344.215 187.63 344.665C187.63 344.755 187.61 344.855 187.57 344.945L172.88 378.635C172.5 379.595 171.4 380.245 170.15 380.255Z" fill="#263238"/>
<path opacity="0.7" d="M186.63 343.855H153.58C152.33 343.855 151.22 344.515 150.85 345.475L136.71 377.895H107.28C107.28 377.895 107.28 377.895 107.28 377.905C107.28 379.285 108.83 380.395 110.72 380.395H139.96C139.96 380.395 139.99 380.395 140.01 380.395H169.62C170.22 380.395 170.77 380.265 171.25 380.065C172.02 379.805 172.63 379.295 172.89 378.625L187.58 344.935C187.62 344.845 187.64 344.755 187.64 344.655C187.64 344.205 187.19 343.845 186.63 343.845V343.855Z" fill="white"/>
<path d="M166.78 361.795C166.07 363.415 164.62 364.525 163.54 364.295C162.46 364.065 162.17 362.595 162.87 360.975C163.56 359.355 165.03 358.265 166.1 358.495C167.18 358.725 167.5 360.135 166.78 361.795Z" fill="white"/>
<path d="M152.55 415.265L173.83 418.685L177.24 409.915L154.88 402.935L152.55 415.265Z" fill="#B97964"/>
<path d="M183.29 423.115L186.16 417.175C186.16 417.175 185.34 416.075 185.92 414.795C186.24 414.075 188.03 412.895 188.03 412.895L196.05 396.615C196.05 396.615 194.94 396.065 194.36 396.005C193.66 395.935 193.04 395.945 192.48 396.015C190.52 396.275 188.98 397.805 187.88 398.965C186.04 400.925 179.68 405.775 179.68 405.775C179.68 405.775 177.88 406.915 175.07 406.835C173.5 406.785 172.25 407.365 171.81 408.035C170.92 409.385 171.38 410.595 172.62 411.455L174.06 412.445C174.38 413.965 173.62 415.385 172.04 415.995C172.04 415.995 168.74 418.165 170.36 418.745C171.29 419.075 175.48 420.395 178.77 421.545C179.54 421.815 180.26 422.065 180.89 422.285C182.3 422.775 183.27 423.115 183.27 423.115H183.29Z" fill="#002029"/>
<path d="M182.97 403.095C182.87 403.135 182.81 403.245 182.82 403.355C182.87 403.865 183.05 404.355 183.37 404.785C183.54 405.015 183.93 404.765 183.76 404.535C183.48 404.155 183.31 403.725 183.27 403.275C183.25 403.125 183.12 403.035 182.98 403.095H182.97Z" fill="#407BFF"/>
<path d="M181.67 404.015C181.57 404.055 181.51 404.165 181.52 404.275C181.57 404.785 181.75 405.275 182.07 405.705C182.24 405.935 182.63 405.685 182.46 405.455C182.18 405.075 182.01 404.645 181.97 404.195C181.95 404.045 181.82 403.955 181.68 404.015H181.67Z" fill="#407BFF"/>
<path d="M180.4 405.005C180.3 405.045 180.24 405.155 180.25 405.265C180.3 405.775 180.48 406.265 180.8 406.695C180.97 406.925 181.36 406.675 181.19 406.445C180.91 406.065 180.74 405.635 180.7 405.185C180.68 405.035 180.55 404.945 180.41 405.005H180.4Z" fill="#407BFF"/>
<path opacity="0.2" d="M185.92 414.795C186.24 414.075 188.03 412.895 188.03 412.895L196.05 396.615C196.05 396.615 194.94 396.065 194.36 396.005C194.04 395.975 193.74 395.965 193.45 395.965L180.55 422.165C180.67 422.205 180.79 422.245 180.9 422.285C182.31 422.775 183.28 423.115 183.28 423.115L186.15 417.175C186.15 417.175 185.33 416.075 185.91 414.795H185.92Z" fill="white"/>
<path d="M180.52 405.245C179.93 405.015 179.34 404.785 178.8 404.455C178.26 404.125 177.77 403.695 177.47 403.135C177.33 402.875 177.24 402.555 177.38 402.295C177.53 402.025 177.89 401.955 178.2 401.985C178.79 402.045 179.32 402.405 179.69 402.875C180.05 403.345 180.39 404.665 180.53 405.245" stroke="#407BFF" stroke-width="0.25" stroke-miterlimit="10"/>
<path d="M180.48 405.315C179.85 405.285 179.21 405.245 178.59 405.315C177.96 405.395 177.34 405.585 176.83 405.965C176.6 406.145 176.38 406.395 176.4 406.695C176.43 407.005 176.72 407.215 177.02 407.315C177.58 407.505 178.22 407.395 178.74 407.115C179.26 406.835 180.12 405.775 180.48 405.305" stroke="#407BFF" stroke-width="0.25" stroke-miterlimit="10"/>
<path d="M72.61 405.555C68.02 398.245 57.65 378.445 78.7 374.585C99.75 370.725 170.06 404.145 170.06 404.145L165.6 417.565L100.15 407.245C100.15 407.245 109.11 419.205 98.24 418.655C82.44 417.095 78.65 413.315 72.6 405.555H72.61Z" fill="#002029"/>
<path opacity="0.7" d="M101.7 407.615L83.75 401.965C83.75 401.965 98.81 411.185 104.34 412.275L101.71 407.615H101.7Z" fill="#002029"/>
<path d="M35 237.105H71.6C74.91 237.105 77.59 239.785 77.59 243.095V262.855C77.59 266.165 74.91 268.845 71.6 268.845H62.85L62.78 274.825L56.19 268.845H35.01C31.7 268.845 29.02 266.165 29.02 262.855V243.095C29.02 239.785 31.7 237.105 35.01 237.105H35Z" fill="#D64923"/>
<path d="M48.7901 249.855L43.0201 252.555L48.7901 255.245V257.415L41.0801 253.675V251.415L48.7901 247.675V249.845V249.855Z" fill="white"/>
<path d="M66.3501 251.425V253.685L58.6401 257.425V255.255L64.4101 252.565L58.6401 249.865V247.695L66.3501 251.435V251.425Z" fill="white"/>
<path d="M55.0701 246.165L51.3101 259.165H53.1901L56.9501 246.165H55.0701Z" fill="white"/>
<path d="M63.15 235.755H44.35C44.21 235.755 44.1 235.645 44.1 235.505C44.1 235.365 44.21 235.255 44.35 235.255H63.15C63.29 235.255 63.4 235.365 63.4 235.505C63.4 235.645 63.29 235.755 63.15 235.755Z" fill="#D64923"/>
<path d="M68.34 235.765H65.37C65.23 235.765 65.12 235.655 65.12 235.515C65.12 235.375 65.23 235.265 65.37 235.265H68.34C68.48 235.265 68.59 235.375 68.59 235.515C68.59 235.655 68.48 235.765 68.34 235.765Z" fill="#D64923"/>
</g>
<defs>
<clipPath id="clip0_443_6151">
<rect width="500" height="443.01" fill="white" transform="translate(0 0.494995)"/>
</clipPath>
</defs>
</svg>
