<svg width="632" height="389" viewBox="0 0 632 389" fill="none" xmlns="http://www.w3.org/2000/svg">
<g clip-path="url(#clip0_380_69)">
<path d="M19.35 317.695C19.35 322.645 15.39 326.665 10.51 326.665C5.62998 326.665 1.66998 322.645 1.66998 317.695C1.66998 312.745 5.62998 308.725 10.51 308.725C15.39 308.725 19.35 312.745 19.35 317.695Z" stroke="white" stroke-width="2.09" stroke-miterlimit="10"/>
<path d="M604.54 130.415C604.54 135.365 600.58 139.385 595.7 139.385C590.82 139.385 586.86 135.365 586.86 130.415C586.86 125.465 590.82 121.445 595.7 121.445C600.58 121.445 604.54 125.465 604.54 130.415Z" stroke="white" stroke-width="2.09" stroke-miterlimit="10"/>
<path d="M324.09 31.075C324.09 34.685 321.21 37.605 317.65 37.605C314.09 37.605 311.21 34.675 311.21 31.075C311.21 27.475 314.09 24.545 317.65 24.545C321.21 24.545 324.09 27.475 324.09 31.075Z" stroke="white" stroke-width="2.09" stroke-miterlimit="10"/>
<path d="M173.5 6.39501H63.7C61.99 6.39501 60.6 5.00501 60.6 3.29501C60.6 1.58501 61.99 0.195007 63.7 0.195007H173.5C175.21 0.195007 176.6 1.58501 176.6 3.29501C176.6 5.00501 175.21 6.39501 173.5 6.39501Z" fill="white"/>
<path d="M620.36 371.975H559.96C558.25 371.975 556.86 370.585 556.86 368.875C556.86 367.165 558.25 365.775 559.96 365.775H620.36C622.07 365.775 623.46 367.165 623.46 368.875C623.46 370.585 622.07 371.975 620.36 371.975Z" fill="white"/>
<path d="M583.6 50.415H562C560.29 50.415 558.9 49.025 558.9 47.315C558.9 45.605 560.29 44.215 562 44.215H583.6C585.31 44.215 586.7 45.605 586.7 47.315C586.7 49.025 585.31 50.415 583.6 50.415Z" fill="white"/>
<path d="M628.95 193.615H618.88C617.201 193.615 615.84 194.976 615.84 196.655V206.225C615.84 207.904 617.201 209.265 618.88 209.265H628.95C630.629 209.265 631.99 207.904 631.99 206.225V196.655C631.99 194.976 630.629 193.615 628.95 193.615Z" fill="#7E7E7E"/>
<path d="M44.91 66.905H34.84C33.161 66.905 31.8 68.2661 31.8 69.945V79.515C31.8 81.1939 33.161 82.555 34.84 82.555H44.91C46.5889 82.555 47.95 81.1939 47.95 79.515V69.945C47.95 68.2661 46.5889 66.905 44.91 66.905Z" fill="#7E7E7E"/>
<path d="M417.38 344.265L427.51 382.175L434.42 373.415L446.29 388.795L456.16 381.005L443.12 365.815L453.3 359.795L417.38 344.265Z" fill="white"/>
<path d="M545.01 80.955H118.95C116.155 80.955 113.89 83.2205 113.89 86.015V304.775C113.89 307.57 116.155 309.835 118.95 309.835H545.01C547.805 309.835 550.07 307.57 550.07 304.775V86.015C550.07 83.2205 547.805 80.955 545.01 80.955Z" fill="white"/>
<path d="M118.03 80.955H545.93C548.21 80.955 550.07 82.805 550.07 85.095V108.655H113.89V85.095C113.89 82.815 115.74 80.955 118.03 80.955Z" fill="#7E7E7E"/>
<path d="M143.3 95.755C143.3 98.065 141.43 99.925 139.13 99.925C136.83 99.925 134.96 98.055 134.96 95.755C134.96 93.455 136.83 91.585 139.13 91.585C141.43 91.585 143.3 93.455 143.3 95.755Z" fill="white"/>
<path d="M159.52 95.755C159.52 98.065 157.65 99.925 155.35 99.925C153.05 99.925 151.18 98.055 151.18 95.755C151.18 93.455 153.05 91.585 155.35 91.585C157.65 91.585 159.52 93.455 159.52 95.755Z" fill="white"/>
<path d="M175.75 95.755C175.75 98.065 173.88 99.925 171.58 99.925C169.28 99.925 167.41 98.055 167.41 95.755C167.41 93.445 169.28 91.585 171.58 91.585C173.88 91.585 175.75 93.455 175.75 95.755Z" fill="white"/>
<path d="M498.46 149.805H392.25C387.125 149.805 382.97 153.96 382.97 159.085V239.635C382.97 244.76 387.125 248.915 392.25 248.915H498.46C503.585 248.915 507.74 244.76 507.74 239.635V159.085C507.74 153.96 503.585 149.805 498.46 149.805Z" stroke="#FBE0D4" stroke-miterlimit="10"/>
<path d="M7.03999 130.825H70.37C73.11 130.825 75.33 133.045 75.33 135.785V199.115C75.33 201.855 73.11 204.075 70.37 204.075H7.03999C4.29999 204.075 2.07999 201.855 2.07999 199.115V135.785C2.07999 133.045 4.29999 130.825 7.03999 130.825Z" fill="#005269"/>
<path d="M47.22 161.635C46.53 160.945 46.53 159.825 47.22 159.145C47.91 158.465 49.03 158.455 49.71 159.145L56.77 166.205C57.46 166.895 57.46 168.015 56.77 168.695L49.71 175.755C49.02 176.445 47.9 176.445 47.22 175.755C46.53 175.065 46.53 173.945 47.22 173.265L53.03 167.455L47.22 161.645V161.635ZM22.1 167.445L27.91 173.255C28.6 173.945 28.6 175.065 27.91 175.745C27.22 176.435 26.1 176.435 25.42 175.745L18.36 168.685C17.67 167.995 17.67 166.875 18.36 166.195L25.42 159.135C26.11 158.445 27.23 158.445 27.91 159.135C28.6 159.825 28.6 160.945 27.91 161.625L22.1 167.435V167.445ZM38.19 159.765C38.53 158.855 39.55 158.395 40.46 158.735C41.37 159.075 41.83 160.095 41.49 161.005L36.2 175.115C35.86 176.025 34.84 176.485 33.93 176.145C33.02 175.805 32.56 174.785 32.9 173.875L38.19 159.765Z" fill="white"/>
<path d="M515.7 26.645H402.57C399.151 26.645 396.38 29.4164 396.38 32.835V132.285C396.38 135.704 399.151 138.475 402.57 138.475H515.7C519.119 138.475 521.89 135.704 521.89 132.285V32.835C521.89 29.4164 519.119 26.645 515.7 26.645Z" fill="#FE6F3F"/>
<path d="M435.31 82.545H479.36" stroke="white" stroke-width="1.25" stroke-miterlimit="10"/>
<path d="M415.03 96.155H479.36" stroke="white" stroke-width="1.25" stroke-miterlimit="10"/>
<path d="M415.03 64.995H506.44" stroke="white" stroke-width="1.25" stroke-miterlimit="10"/>
<path d="M413.81 111.795H441.31" stroke="white" stroke-width="1.25" stroke-miterlimit="10"/>
<path d="M449.55 111.795H506.44" stroke="white" stroke-width="1.25" stroke-miterlimit="10"/>
<path d="M413.81 82.545H426.12" stroke="white" stroke-width="1.25" stroke-miterlimit="10"/>
<path d="M448.97 50.475H479.36" stroke="white" stroke-width="1.25" stroke-miterlimit="10"/>
<path d="M430.01 44.465L424.98 56.485" stroke="white" stroke-width="1.25" stroke-miterlimit="10"/>
<path d="M419.98 46.245L415.39 50.475L419.98 54.955" stroke="white" stroke-width="1.25" stroke-miterlimit="10"/>
<path d="M435.93 46.245L440.51 50.475L435.93 54.955" stroke="white" stroke-width="1.25" stroke-miterlimit="10"/>
<path d="M474.25 231.645H592.24C595.57 231.645 598.28 234.355 598.28 237.685V312.455H468.22V237.685C468.22 234.355 470.93 231.645 474.26 231.645H474.25Z" fill="#005269"/>
<path d="M468.21 309.715L499.59 283.985L526.2 303.715L563.24 266.725L598.27 296.025V322.105C598.27 325.565 595.46 328.375 592 328.375H474.47C471.01 328.375 468.2 325.565 468.2 322.105V309.725L468.21 309.715Z" fill="#81ABB7"/>
<path d="M523.69 271.985C528.368 271.985 532.16 268.193 532.16 263.515C532.16 258.837 528.368 255.045 523.69 255.045C519.012 255.045 515.22 258.837 515.22 263.515C515.22 268.193 519.012 271.985 523.69 271.985Z" fill="white"/>
<path d="M270.32 243.775H63.34C59.949 243.775 57.2 246.524 57.2 249.915V373.265C57.2 376.656 59.949 379.405 63.34 379.405H270.32C273.711 379.405 276.46 376.656 276.46 373.265V249.915C276.46 246.524 273.711 243.775 270.32 243.775Z" fill="#7E7E7E"/>
<path d="M113.95 287.955L111.59 287.545C111.31 286.515 110.91 285.535 110.37 284.615L111.74 282.655C112.24 281.935 112.16 280.955 111.54 280.335L110.13 278.925C109.5 278.315 108.52 278.245 107.81 278.755L105.85 280.125C104.93 279.595 103.94 279.185 102.92 278.905L102.51 276.495C102.36 275.645 101.63 275.015 100.76 274.995H98.73C97.85 274.995 97.09 275.625 96.94 276.495L96.53 278.845C95.5 279.125 94.52 279.525 93.6 280.065L91.65 278.755C90.93 278.255 89.95 278.335 89.33 278.955L87.92 280.365C87.3 280.985 87.21 281.965 87.72 282.685L89.09 284.645C88.56 285.565 88.15 286.555 87.87 287.575L85.52 287.985C84.65 288.135 84.02 288.885 84.02 289.775V291.775C84.02 292.655 84.65 293.415 85.52 293.565L87.87 293.975C88.15 295.005 88.55 295.985 89.09 296.905L87.72 298.865C87.22 299.585 87.3 300.565 87.92 301.185L89.33 302.595C89.95 303.215 90.93 303.305 91.65 302.795L93.61 301.425C94.53 301.955 95.52 302.365 96.54 302.645L96.95 304.995C97.1 305.865 97.85 306.495 98.74 306.495H100.77C101.65 306.495 102.41 305.865 102.56 304.995L102.97 302.645C104 302.365 104.98 301.965 105.9 301.425L107.81 302.765C108.53 303.265 109.51 303.185 110.13 302.565L111.54 301.155C112.16 300.535 112.25 299.555 111.74 298.835L110.37 296.865C110.9 295.945 111.31 294.955 111.59 293.935L113.95 293.525C114.82 293.375 115.45 292.625 115.45 291.735V289.735C115.45 288.855 114.82 288.105 113.95 287.955ZM99.74 296.115C96.76 296.115 94.35 293.705 94.35 290.725C94.35 287.745 96.76 285.335 99.74 285.335C102.72 285.335 105.13 287.745 105.13 290.725C105.13 290.725 105.13 290.745 105.13 290.755C105.11 293.715 102.71 296.115 99.74 296.115Z" fill="white"/>
<path d="M135.1 285.885H191.15" stroke="white" stroke-width="1.32" stroke-miterlimit="10"/>
<path d="M88.41 322.225H236.29" stroke="white" stroke-width="1.32" stroke-miterlimit="10"/>
<path d="M88.41 342.545H236.29" stroke="white" stroke-width="1.32" stroke-miterlimit="10"/>
<path d="M135.1 302.205H164.69" stroke="white" stroke-width="1.32" stroke-miterlimit="10"/>
<path d="M181.69 302.205H235.26" stroke="white" stroke-width="1.32" stroke-miterlimit="10"/>
<path d="M371.18 312.605L350.84 327.855L325.64 295.685L345.98 280.435L371.18 312.605Z" fill="#FFC0AF"/>
<path d="M343.17 323.735L370.45 303.275C370.45 303.275 375.34 308.845 384.65 303.275C393.97 297.705 402.15 298.675 407.43 304.295L353.34 344.855C353.34 344.855 348.33 337.245 343.16 323.725L343.17 323.735Z" fill="white"/>
<path d="M407.442 304.338L353.347 344.895L356.245 348.759L410.34 308.202L407.442 304.338Z" fill="#002029"/>
<path d="M347.66 334.285C347.66 334.285 358.69 327.645 365.03 336.105" stroke="#002029" stroke-width="0.99" stroke-miterlimit="10"/>
<path d="M376.55 305.875C376.55 305.875 360.58 298.625 357.86 306.015C354.65 314.735 376.55 305.875 376.55 305.875Z" stroke="#002029" stroke-width="0.99" stroke-linecap="round" stroke-linejoin="round"/>
<path d="M376.55 305.885C376.55 305.885 374.47 289.935 382.84 290.705C391.22 291.475 376.55 305.885 376.55 305.885Z" stroke="#002029" stroke-width="0.99" stroke-linecap="round" stroke-linejoin="round"/>
<path d="M376.41 305.985C376.41 305.985 374.69 307.245 373.22 312.335" stroke="#002029" stroke-width="0.99" stroke-linecap="round" stroke-linejoin="round"/>
<path d="M381.15 305.135C381.15 305.135 378.14 307.655 378.08 311.475" stroke="#002029" stroke-width="0.99" stroke-linecap="round" stroke-linejoin="round"/>
<path d="M270.4 198.915C270.4 198.915 283.83 178.645 306.42 209.665C329.01 240.685 360.9 290.865 360.9 290.865L329.78 312.495L267.22 226.545L270.4 198.925V198.915Z" fill="#024153"/>
<path d="M281.63 192.405L213.47 197.235L235.76 228.835H274.14L281.63 192.405Z" fill="#024153"/>
<path d="M178.46 192.375C178.46 192.375 175.2 201.755 175.58 213.045C176.21 231.845 191.76 246.705 210.56 246.705H266.03L266.38 201.795L229.32 193.705L178.46 192.375Z" fill="#005269"/>
<path d="M294.22 348.585L269.08 352.395L262.09 312.135L287.23 308.325L294.22 348.585Z" fill="#FFC0AF"/>
<path d="M264.27 345.135L297.98 340.015C297.98 340.015 299.65 347.235 310.49 346.735C321.33 346.235 328.08 350.965 330.08 358.415L263.24 368.555C263.24 368.555 262.43 359.485 264.27 345.125V345.135Z" fill="white"/>
<path d="M330.1 358.403L263.255 368.548L263.98 373.324L330.824 363.178L330.1 358.403Z" fill="#002029"/>
<path d="M263.23 356.555C263.23 356.555 276.09 355.925 277.68 366.375" stroke="#002029" stroke-width="0.99" stroke-miterlimit="10"/>
<path d="M302.12 345.195C302.12 345.195 291.48 331.255 285.59 336.475C278.64 342.635 302.12 345.195 302.12 345.195Z" stroke="#002029" stroke-width="0.99" stroke-linecap="round" stroke-linejoin="round"/>
<path d="M302.13 345.205C302.13 345.205 307.84 330.165 314.85 334.805C321.86 339.455 302.13 345.205 302.13 345.205Z" stroke="#002029" stroke-width="0.99" stroke-linecap="round" stroke-linejoin="round"/>
<path d="M301.95 345.225C301.95 345.225 299.84 345.525 296.14 349.315" stroke="#002029" stroke-width="0.99" stroke-linecap="round" stroke-linejoin="round"/>
<path d="M306.53 346.715C306.53 346.715 302.69 347.515 300.82 350.845" stroke="#002029" stroke-width="0.99" stroke-linecap="round" stroke-linejoin="round"/>
<path d="M254.33 201.785C254.33 201.785 275.26 189.415 282.04 227.185C288.82 264.955 295.6 324.025 295.6 324.025L258.16 329.895L239.41 225.245L254.33 201.785Z" fill="#005269"/>
<path d="M243.25 246.695L241.35 236.085" stroke="#473FE0" stroke-miterlimit="10"/>
<path d="M249.26 113.085C249.26 113.085 259.7 137.365 265.32 162.745L287.25 176.195L271.44 197.825L252.07 189.025C248.8 187.535 246.08 185.055 244.31 181.925L225.57 148.835L249.25 113.085H249.26Z" fill="#FE6F3F"/>
<path d="M222.25 94.165C222.25 94.165 202.67 94.065 188.59 110.035C174.51 126.005 178.49 170.185 178.49 192.375L233.84 193.725L249.91 121.195C250.85 117.755 250.21 114.085 248.15 111.175L246.5 108.835C242.46 103.115 236.68 98.855 230.01 96.695L222.24 94.175L222.25 94.165Z" fill="#FE6F3F"/>
<path d="M246.22 131.875L239.41 167.725" stroke="#E8512E" stroke-miterlimit="10"/>
<path d="M187.05 112.125C177.98 123.745 165.85 151.175 162.32 177.655C161.25 185.715 165.52 193.165 173.55 194.455C181.12 195.665 190.28 190.955 192.27 183.555L217.28 122.325C219.4 114.425 212.95 106.275 205.12 103.935C197.89 101.765 191.68 106.185 187.04 112.135L187.05 112.125Z" fill="#FE6F3F"/>
<path d="M199.35 166.765L212.11 131.035" stroke="#E8512E" stroke-miterlimit="10"/>
<path d="M239.41 176.135C239.41 176.135 267.53 165.125 267.61 193.735L236.68 193.785L239.4 176.135H239.41Z" fill="#FFC0AF"/>
<path d="M180.74 166.095L245.93 167.895L240.33 193.715L172.69 194.785C163.19 192.735 160.83 181.105 167.5 174.045C170.56 170.795 176.39 165.055 180.73 166.095H180.74Z" fill="#FE6F3F"/>
<path d="M184.28 165.975L245.94 167.905L244.46 174.725" stroke="#E8512E" stroke-miterlimit="10"/>
<path d="M209.56 193.725H267.61V201.915H209.56C207.3 201.915 205.47 200.085 205.47 197.825C205.47 195.565 207.3 193.735 209.56 193.735V193.725Z" fill="#002029"/>
<path d="M255.4 201.915L270.59 134.235C271.2 133.105 272.38 132.405 273.66 132.405L364.68 132.425C366.62 132.425 367.87 134.465 367 136.195L355.03 193.425C353.99 198.375 349.63 201.925 344.56 201.925H255.39L255.4 201.915Z" fill="#002029"/>
<path d="M313.65 176.125C317.234 176.125 320.14 173.219 320.14 169.635C320.14 166.051 317.234 163.145 313.65 163.145C310.066 163.145 307.16 166.051 307.16 169.635C307.16 173.219 310.066 176.125 313.65 176.125Z" fill="white"/>
<path d="M252.07 68.595C250.93 72.625 253.16 76.795 257.05 77.925C260.95 79.055 265.81 76.855 266.95 72.825C268.09 68.795 265.86 64.625 261.97 63.495C258.07 62.365 253.21 64.565 252.07 68.595Z" fill="#FF847E"/>
<path d="M240.29 85.065L236.69 98.725C235.05 104.865 230.5 107.155 224.67 105.515C219.69 104.115 214.85 100.215 216.53 94.855L224.12 71.515L240.3 85.055L240.29 85.065Z" fill="#FFC0AF"/>
<path d="M236.69 98.725C236.69 98.725 224.27 89.205 223.49 74.655C223.2 69.235 240.81 83.285 240.81 83.285L236.69 98.725Z" fill="#FF847E"/>
<path d="M238.63 91.855C248.74 94.035 258.84 87.595 260.96 79.125L265.29 61.395C267.94 50.785 261.97 40.035 251.8 37.095C241.38 34.085 225.71 39.275 222.65 50.045L222.36 64.475C219.46 76.945 226.71 88.415 238.63 91.865V91.855Z" fill="#FFC0AF"/>
<path d="M224.53 63.655L226.36 64.225L228.13 49.695C228.09 49.175 229.48 41.835 231.13 43.725C232.73 45.545 229.59 44.885 233.9 42.975C240.23 40.165 251.98 39.725 260.91 45.885C263.44 47.625 265.13 50.235 265.68 53.255C265.93 54.595 266.08 56.745 265.85 57.945L266.44 54.585C268.53 44.445 259.48 34.195 250.23 32.415C246.67 31.725 244.13 31.315 239.47 31.105C227.71 30.575 216.68 39.205 217.63 50.945L219.53 59.095L224.51 63.665L224.53 63.655Z" fill="#002029"/>
<path d="M211.63 61.835C210.5 65.825 213.48 70.105 217.34 71.225C221.2 72.345 225.24 70.015 226.38 66.025C227.51 62.035 223.75 57.605 219.9 56.485C216.04 55.365 212.77 57.845 211.64 61.835H211.63Z" fill="#FFC0AF"/>
<path d="M221.14 67.155C221.14 67.155 221.56 61.345 216 61.045" stroke="#D64923" stroke-width="0.99" stroke-linecap="round" stroke-linejoin="round"/>
<path d="M251.03 72.935L251.41 77.175L248.55 76.685" stroke="#D64923" stroke-width="0.99" stroke-linecap="round" stroke-linejoin="round"/>
<path d="M255.77 70.175C255.53 71.155 256.1 72.145 257.06 72.385C258.01 72.625 258.98 72.015 259.22 71.035C259.46 70.055 258.89 69.065 257.93 68.825C256.98 68.585 256.01 69.195 255.77 70.175Z" fill="#002029"/>
<path d="M239.91 66.2651C239.67 67.2451 240.24 68.2351 241.2 68.4751C242.15 68.7151 243.12 68.1051 243.36 67.1251C243.6 66.1451 243.03 65.1551 242.07 64.9151C241.12 64.6751 240.15 65.2851 239.91 66.2651Z" fill="#002029"/>
<path d="M255.74 61.2351C256.36 61.5551 256.98 61.705 257.58 61.8751C258.17 62.0351 258.8 62.1451 259.29 62.3051C260.3 62.6451 261.39 63.4551 262.55 64.1051H262.58C262.8 64.2451 263.08 64.1051 263.2 63.8051C263.27 63.6151 263.27 63.4151 263.2 63.2551C262.86 62.4651 262.42 61.8251 261.91 61.2451C261.39 60.6751 260.8 60.1751 260.07 59.8351C259.32 59.5351 258.64 59.4351 257.91 59.4651C257.19 59.5251 256.49 59.6751 255.77 60.1051C255.52 60.2551 255.4 60.6151 255.49 60.9151C255.53 61.0551 255.62 61.1651 255.72 61.2151L255.75 61.2351H255.74Z" fill="#002029"/>
<path d="M247.54 58.275C246.72 57.425 245.81 56.885 244.85 56.455C243.88 56.035 242.88 55.795 241.77 55.735C240.65 55.685 239.57 55.935 238.51 56.285C237.45 56.665 236.43 57.145 235.42 57.855C235.18 58.025 235.06 58.405 235.15 58.715C235.22 58.945 235.38 59.075 235.56 59.055H235.58C237.59 58.815 239.61 58.435 241.4 58.585C242.3 58.675 243.25 58.905 244.19 59.075C245.14 59.235 246.11 59.435 247.13 59.465H247.15C247.4 59.475 247.64 59.195 247.69 58.835C247.72 58.605 247.65 58.395 247.54 58.275Z" fill="#002029"/>
<path d="M252.09 81.145L239.3 78.275C239.3 78.275 239.97 82.915 244.74 83.985C250.36 85.255 252.1 81.145 252.1 81.145H252.09Z" fill="white"/>
<path d="M217.28 100.605L231.01 117.095L236.43 99.565L217.28 100.605Z" fill="#FFC0AF"/>
<path d="M265.69 53.255C265.69 53.255 254.92 52.825 240.48 39.665C240.48 39.665 244.15 34.445 254.99 39.785C265.83 45.125 265.69 53.245 265.69 53.245V53.255Z" fill="#002029"/>
<path d="M246.06 42.375C246.06 42.375 247.15 45.925 251.56 50.485C251.56 50.485 239.34 51.695 228.37 41.915C217.4 32.135 233.22 36.445 233.22 36.445L247.47 37.435L246.06 42.365V42.375Z" fill="#002029"/>
<path d="M234.18 40.955C234.18 40.955 233.1 55.295 224.69 56.515L225.53 44.655L228.97 39.805L234.18 40.955Z" fill="#002029"/>
</g>
<defs>
<clipPath id="clip0_380_69">
<rect width="631.38" height="388.59" fill="white" transform="translate(0.619995 0.205017)"/>
</clipPath>
</defs>
</svg>
